# Blender 4.3.0
# www.blender.org
mtllib Bread01f.mtl
o Bread01g
v 0.042134 0.006528 0.017129
v 0.010299 0.070590 0.017129
v 0.048968 0.039775 0.017129
v -0.045638 0.057963 0.017129
v -0.049425 0.006528 0.017129
v -0.008175 0.022497 -0.017129
v 0.004751 0.006528 -0.017129
v 0.000062 0.024357 -0.017129
v -0.008733 0.006528 -0.017129
v 0.005757 0.019819 -0.017129
vn 0.6530 -0.1342 -0.7454
vn -0.6439 0.0225 -0.7648
vn -0.0000 -0.0000 -1.0000
vn -0.0000 -1.0000 -0.0000
vn 0.3909 0.4906 -0.7788
vn -0.1375 0.6092 -0.7810
vn -0.0000 -0.0000 1.0000
vn 0.6747 -0.0511 -0.7363
vn -0.6491 0.0478 -0.7592
vt 0.486111 0.864583
vt 0.319444 1.000000
vt 0.333333 0.864583
vt 0.500000 0.114583
vt 0.305556 0.010417
vt 0.361111 0.000000
vt 0.458333 0.187500
vt 0.402778 0.197917
vt 0.375000 0.177083
vt 0.458333 0.093750
vt 0.375000 0.093750
vt 0.125000 0.906250
vt 0.361111 1.000000
vt 0.097222 0.864583
vt 0.291667 1.000000
vt 0.166667 0.104167
vt 0.333333 0.156250
vt 0.986111 0.229167
vt 0.944444 0.072917
vt 0.875000 0.333333
vt 0.750000 0.312500
vt 0.750000 0.062500
vt 0.375000 0.989583
vt 0.513889 0.906250
vt 0.277778 0.000000
s 0
usemtl Primary
f 1/1/1 10/2/1 3/3/1
f 5/4/2 6/5/2 9/6/2
f 6/7/3 8/8/3 10/9/3
f 9/10/3 10/9/3 7/11/3
f 1/12/4 9/13/4 7/2/4
f 2/14/5 10/2/5 8/15/5
f 2/16/6 6/5/6 4/17/6
f 2/18/7 4/19/7 3/20/7
f 1/21/7 4/19/7 5/22/7
f 1/1/8 7/23/8 10/2/8
f 5/4/9 4/17/9 6/5/9
f 9/10/3 6/7/3 10/9/3
f 1/12/4 5/24/4 9/13/4
f 2/14/5 3/3/5 10/2/5
f 2/16/6 8/25/6 6/5/6
f 1/21/7 3/20/7 4/19/7
