# Blender 4.3.0
# www.blender.org
mtllib Bread01a.mtl
o Bread01a
v -0.064817 0.070727 0.070880
v 0.069900 0.000000 0.070880
v 0.021038 0.090107 0.070880
v -0.070629 0.000000 0.070880
v 0.080390 0.042811 0.070880
v 0.000648 0.037450 0.184879
v 0.011210 0.029034 0.184879
v -0.015664 0.000000 0.184879
v -0.014629 0.034002 0.184879
v 0.009343 0.000000 0.184879
v 0.061010 0.000000 -0.075008
v 0.018044 0.078096 -0.075008
v 0.070234 0.036507 -0.075008
v -0.071356 0.070673 0.002362
v -0.062560 0.000000 -0.075008
v -0.077791 0.000000 0.002362
v 0.077791 0.000000 0.002362
v 0.078985 0.001630 0.002362
v 0.089404 0.039767 0.002362
v 0.023694 0.092129 0.002362
v -0.057449 0.061054 -0.075008
v 0.044230 0.000000 -0.152378
v 0.012394 0.064062 -0.152378
v 0.051064 0.033247 -0.152378
v -0.043542 0.051435 -0.152378
v -0.047329 0.000000 -0.152378
v -0.006079 0.015969 -0.186636
v 0.006847 0.000000 -0.186636
v 0.002158 0.017829 -0.186636
v -0.006637 0.000000 -0.186636
v 0.007853 0.013291 -0.186636
vn 0.9653 -0.2365 0.1112
vn -0.2201 0.9753 0.0202
vn -0.9922 0.0815 0.0946
vn -0.9037 0.0743 0.4218
vn 0.6225 0.7812 0.0472
vn -0.0000 -1.0000 -0.0000
vn -0.2036 0.9022 0.3803
vn 0.8817 -0.0567 0.4684
vn 0.5634 0.7070 0.4274
vn -0.0000 -0.0000 1.0000
vn -0.9779 0.0819 -0.1925
vn 0.9469 -0.2392 -0.2149
vn -0.2174 0.9631 -0.1588
vn 0.6125 0.7687 -0.1842
vn -0.0000 -0.0000 -1.0000
vn -0.9786 0.0720 -0.1926
vn 0.9581 -0.1970 -0.2078
vn 0.6530 -0.1342 -0.7454
vn -0.6439 0.0225 -0.7648
vn 0.3909 0.4906 -0.7788
vn -0.1375 0.6092 -0.7810
vn 0.9508 -0.2777 0.1374
vn -0.9905 0.0902 0.1035
vn -0.9004 0.0274 0.4341
vn 0.8472 -0.2076 0.4890
vn -0.9783 0.0891 -0.1869
vn 0.9405 -0.2569 -0.2222
vn 0.0104 -0.9998 0.0186
vn -0.9791 0.0820 -0.1862
vn 0.9449 -0.2387 -0.2241
vn 0.6747 -0.0511 -0.7363
vn -0.6491 0.0478 -0.7592
vt 0.652778 0.500000
vt 0.402778 0.302083
vt 0.611111 0.302083
vt 0.000000 0.468750
vt 0.361111 0.666667
vt 0.027778 0.666667
vt 0.375000 0.468750
vt 0.625000 0.666667
vt 0.319444 0.989583
vt 0.000000 0.500000
vt 0.458333 0.500000
vt 0.666667 0.500000
vt 0.041667 0.302083
vt 0.611111 0.312500
vt 0.250000 0.989583
vt 0.277778 0.010417
vt 0.416667 0.000000
vt 0.263889 0.000000
vt 0.333333 0.000000
vt 0.375000 0.270833
vt 0.305556 0.312500
vt 0.208333 0.291667
vt 0.208333 0.093750
vt 0.611111 0.322917
vt 0.361111 0.218750
vt 0.569444 0.187500
vt 0.402778 0.781250
vt 0.611111 0.635417
vt 0.569444 0.781250
vt 0.041667 0.322917
vt 0.083333 0.177083
vt 0.069444 0.802083
vt 0.625000 0.656250
vt 0.597222 0.812500
vt 0.027778 0.635417
vt 0.430556 0.635417
vt 0.027778 0.645833
vt 0.000000 0.489583
vt 0.541667 0.218750
vt 0.333333 0.145833
vt 0.500000 0.083333
vt 0.333333 0.875000
vt 0.527778 0.739583
vt 0.486111 0.875000
vt 0.125000 0.208333
vt 0.166667 0.072917
vt 0.125000 0.937500
vt 0.555556 0.791667
vt 0.513889 0.937500
vt 0.069444 0.739583
vt 0.361111 0.739583
vt 0.486111 0.864583
vt 0.319444 1.000000
vt 0.333333 0.864583
vt 0.500000 0.114583
vt 0.305556 0.010417
vt 0.361111 0.000000
vt 0.458333 0.187500
vt 0.402778 0.197917
vt 0.375000 0.177083
vt 0.458333 0.093750
vt 0.375000 0.093750
vt 0.125000 0.906250
vt 0.361111 1.000000
vt 0.097222 0.864583
vt 0.291667 1.000000
vt 0.166667 0.104167
vt 0.333333 0.156250
vt 0.652778 0.468750
vt 0.416667 0.979167
vt 0.208333 0.000000
vt 0.361111 0.093750
vt 0.361111 0.343750
vt 0.041667 0.781250
vt 0.347222 0.270833
vt 0.097222 0.781250
vt 0.097222 0.875000
vt 0.375000 0.989583
vt 0.513889 0.906250
vt 0.277778 0.000000
s 0
usemtl Primary
f 17/1/1 5/2/1 2/3/1
f 20/4/2 1/5/2 3/6/2
f 14/7/3 4/8/3 1/5/3
f 4/8/4 9/9/4 1/5/4
f 20/10/5 5/2/5 19/11/5
f 16/12/6 2/13/6 4/14/6
f 3/6/7 9/9/7 6/15/7
f 2/3/8 7/16/8 10/17/8
f 3/13/9 7/16/9 5/2/9
f 4/14/6 10/18/6 8/19/6
f 7/20/10 6/21/10 9/22/10
f 8/23/10 7/20/10 9/22/10
f 16/24/11 21/25/11 15/26/11
f 13/27/12 18/28/12 11/29/12
f 21/25/13 20/30/13 12/31/13
f 11/32/6 16/33/6 15/34/6
f 13/27/14 20/35/14 19/36/14
f 16/33/15 18/37/15 17/38/15
f 18/28/10 19/11/10 17/1/10
f 15/39/16 25/40/16 26/41/16
f 24/42/17 11/43/17 22/44/17
f 25/40/13 12/45/13 23/46/13
f 22/47/6 15/48/6 26/49/6
f 24/42/14 12/50/14 13/51/14
f 22/52/18 31/53/18 24/54/18
f 26/55/19 27/56/19 30/57/19
f 27/58/15 29/59/15 31/60/15
f 30/61/15 31/60/15 28/62/15
f 22/63/6 30/64/6 28/53/6
f 23/65/20 31/53/20 29/66/20
f 23/67/21 27/56/21 25/68/21
f 17/1/22 19/11/22 5/2/22
f 20/4/2 14/7/2 1/5/2
f 14/7/23 16/69/23 4/8/23
f 4/8/24 8/70/24 9/9/24
f 20/10/5 3/13/5 5/2/5
f 16/12/6 17/38/6 2/13/6
f 3/6/7 1/5/7 9/9/7
f 2/3/25 5/2/25 7/16/25
f 3/13/9 6/71/9 7/16/9
f 4/14/6 2/13/6 10/18/6
f 8/23/10 10/72/10 7/20/10
f 16/24/26 14/73/26 21/25/26
f 13/27/27 19/36/27 18/28/27
f 21/25/13 14/73/13 20/30/13
f 11/32/28 18/37/28 16/33/28
f 13/27/14 12/74/14 20/35/14
f 15/39/29 21/75/29 25/40/29
f 24/42/30 13/51/30 11/43/30
f 25/40/13 21/75/13 12/45/13
f 22/47/6 11/76/6 15/48/6
f 24/42/14 23/77/14 12/50/14
f 22/52/31 28/78/31 31/53/31
f 26/55/32 25/68/32 27/56/32
f 30/61/15 27/58/15 31/60/15
f 22/63/6 26/79/6 30/64/6
f 23/65/20 24/54/20 31/53/20
f 23/67/21 29/80/21 27/56/21
