# Blender 4.3.0
# www.blender.org
mtllib ChocolateCake01.mtl
o ChocolateCake01
v -0.062158 0.000000 0.062158
v -0.062158 0.050000 0.062158
v -0.062158 0.000000 -0.062158
v -0.062158 0.050000 -0.062158
v 0.062158 0.000000 0.062158
v 0.062158 0.050000 0.062158
v 0.062158 0.000000 -0.062158
v 0.062158 0.050000 -0.062158
vn -1.0000 -0.0000 -0.0000
vn -0.0000 -0.0000 -1.0000
vn 1.0000 -0.0000 -0.0000
vn -0.0000 -0.0000 1.0000
vn -0.0000 -1.0000 -0.0000
vn -0.0000 1.0000 -0.0000
vt 0.000000 0.406250
vt 1.000000 0.000000
vt 0.000000 0.000000
vt 1.000000 0.406250
vt 0.000000 1.000000
vt 1.000000 1.000000
s 0
usemtl Primary
f 2/1/1 3/2/1 1/3/1
f 4/1/2 7/2/2 3/3/2
f 8/1/3 5/2/3 7/3/3
f 6/4/4 1/3/4 5/2/4
f 7/2/5 1/5/5 3/6/5
f 4/5/6 6/2/6 8/6/6
f 2/1/1 4/4/1 3/2/1
f 4/1/2 8/4/2 7/2/2
f 8/1/3 6/4/3 5/2/3
f 6/4/4 2/1/4 1/3/4
f 7/2/5 5/3/5 1/5/5
f 4/5/6 2/3/6 6/2/6
