# Blender 4.3.0
# www.blender.org
mtllib CoffeePack01.mtl
o CoffeePack01
v -0.089789 0.000000 0.044894
v -0.093750 0.300000 0.011204
v -0.089789 0.000000 -0.044894
v -0.093750 0.300000 -0.011204
v 0.089789 0.000000 0.044894
v 0.093750 0.300000 0.011204
v 0.089789 0.000000 -0.044894
v 0.093750 0.300000 -0.011204
v -0.089789 0.263739 0.044894
v -0.089789 0.263739 -0.044894
v 0.089789 0.263739 -0.044894
v 0.089789 0.263739 0.044894
v 0.093750 0.277437 0.000000
v -0.093750 0.000000 0.000000
v 0.093750 0.000000 0.000000
v -0.093750 0.277437 0.000000
vn -0.0000 -0.4448 -0.8956
vn 1.0000 -0.0000 -0.0000
vn -0.0000 -0.4448 0.8956
vn -0.0000 -1.0000 -0.0000
vn -0.0000 1.0000 -0.0000
vn -0.0000 -0.0000 1.0000
vn 0.9961 -0.0000 0.0879
vn -0.0000 -0.0000 -1.0000
vn -0.9961 -0.0000 -0.0879
vn -0.0000 0.9565 0.2918
vn -0.0000 0.9565 -0.2918
vn -0.9961 -0.0000 0.0879
vn 0.9961 -0.0000 -0.0879
vn -1.0000 -0.0000 -0.0000
vt 0.543750 0.976562
vt 0.968750 0.921875
vt 0.543750 0.921875
vt 0.931250 0.921875
vt 0.950000 0.976562
vt 0.906250 0.976562
vt 0.512500 0.640625
vt 0.000000 0.585938
vt 0.512500 0.585938
vt 0.468750 0.085938
vt 0.000000 0.000000
vt 0.043750 0.085938
vt 0.550000 0.921875
vt 0.962500 0.976562
vt 0.962500 0.921875
vt 0.506250 0.859375
vt 0.512500 0.000000
vt 0.468750 0.859375
vt 0.587500 0.859375
vt 0.931250 0.085938
vt 0.587500 0.085938
vt 0.512500 1.000000
vt 0.006250 0.859375
vt 1.000000 1.000000
vt 0.043750 0.859375
vt 0.931250 0.859375
vt 1.000000 0.000000
vt 0.968750 0.976562
vt 0.000000 0.640625
vt 0.550000 0.976562
vt -0.000000 1.000000
vt 0.000000 1.000000
s 0
usemtl Primary
f 4/1/1 13/2/1 16/3/1
f 13/4/2 8/5/2 6/6/2
f 6/7/3 16/8/3 13/9/3
f 15/10/4 1/11/4 14/12/4
f 4/13/5 6/14/5 8/15/5
f 12/16/6 1/12/6 5/10/6
f 15/17/7 12/18/7 5/10/7
f 10/19/8 7/20/8 3/21/8
f 14/17/9 10/19/9 3/21/9
f 13/22/10 9/23/10 12/16/10
f 16/19/11 11/24/11 10/22/11
f 9/25/12 14/11/12 1/12/12
f 11/26/13 15/27/13 7/20/13
f 3/21/4 15/27/4 14/17/4
f 16/4/14 2/6/14 4/5/14
f 4/1/1 8/28/1 13/2/1
f 6/7/3 2/29/3 16/8/3
f 15/10/4 5/17/4 1/11/4
f 4/13/5 2/30/5 6/14/5
f 12/16/6 9/23/6 1/12/6
f 15/17/7 13/22/7 12/18/7
f 10/19/8 11/26/8 7/20/8
f 14/17/9 16/22/9 10/19/9
f 13/22/10 16/31/10 9/23/10
f 16/19/11 13/26/11 11/24/11
f 9/25/12 16/32/12 14/11/12
f 11/26/13 13/24/13 15/27/13
f 3/21/4 7/20/4 15/27/4
