# Blender 4.3.0
# www.blender.org
mtllib Cookie01.mtl
o Cookie01
v -0.000000 -0.000000 -0.062319
v -0.000000 0.013125 -0.062319
v 0.051309 -0.000000 -0.037610
v 0.051309 0.013125 -0.037610
v 0.063982 -0.000000 0.017911
v 0.063982 0.013125 0.017911
v 0.028475 -0.000000 0.062436
v 0.028475 0.013125 0.062436
v -0.028475 -0.000000 0.062436
v -0.028475 0.013125 0.062436
v -0.063982 -0.000000 0.017911
v -0.063982 0.013125 0.017911
v -0.051309 -0.000000 -0.037610
v -0.051309 0.013125 -0.037610
v 0.000000 0.019511 0.003308
v -0.000000 0.002075 0.003308
vn 0.4339 -0.0000 -0.9010
vn 0.9749 -0.0000 -0.2225
vn 0.7818 -0.0000 0.6235
vn -0.0000 -0.0000 1.0000
vn -0.7818 -0.0000 0.6235
vn 0.1047 0.9942 -0.0239
vn -0.9749 -0.0000 -0.2225
vn -0.4339 -0.0000 -0.9010
vn -0.0839 0.9942 0.0669
vn 0.0466 0.9942 -0.0967
vn -0.0466 0.9942 -0.0967
vn -0.0000 0.9942 0.1074
vn 0.0839 0.9942 0.0669
vn -0.1047 0.9942 -0.0239
vn 0.0274 -0.9994 -0.0219
vn -0.0152 -0.9994 0.0316
vn -0.0274 -0.9994 -0.0219
vn 0.0342 -0.9994 0.0078
vn -0.0000 -0.9994 -0.0351
vn 0.0152 -0.9994 0.0316
vn -0.0342 -0.9994 0.0078
vt 0.281250 0.562500
vt 0.687500 0.437500
vt 0.281250 0.437500
vt 0.718750 0.562500
vt 0.718750 0.437500
vt 0.625000 0.562500
vt 0.625000 0.437500
vt 0.687500 0.562500
vt 0.250000 0.437500
vt 1.000000 0.385878
vt 0.900969 0.819762
vt 0.500000 0.500000
vt 0.312500 0.562500
vt 0.312500 0.437500
vt 0.000000 0.385878
vt 0.277479 0.037931
vt 0.500000 1.012858
vt 0.099031 0.819762
vt 0.722521 0.037931
vt 0.250000 0.562500
s 0
usemtl Primary
f 2/1/1 3/2/1 1/3/1
f 4/4/2 5/3/2 3/5/2
f 6/6/3 7/3/3 5/7/3
f 8/8/4 9/9/4 7/2/4
f 10/1/5 11/7/5 9/3/5
f 6/10/6 4/11/6 15/12/6
f 12/1/7 13/2/7 11/3/7
f 14/13/8 1/2/8 13/14/8
f 12/15/9 10/16/9 15/12/9
f 4/11/10 2/17/10 15/12/10
f 2/17/11 14/18/11 15/12/11
f 10/16/12 8/19/12 15/12/12
f 8/19/13 6/10/13 15/12/13
f 14/18/14 12/15/14 15/12/14
f 9/16/15 11/15/15 16/12/15
f 1/17/16 3/11/16 16/12/16
f 5/10/17 7/19/17 16/12/17
f 11/15/18 13/18/18 16/12/18
f 7/19/19 9/16/19 16/12/19
f 13/18/20 1/17/20 16/12/20
f 3/11/21 5/10/21 16/12/21
f 2/1/1 4/8/1 3/2/1
f 4/4/2 6/1/2 5/3/2
f 6/6/3 8/1/3 7/3/3
f 8/8/4 10/20/4 9/9/4
f 10/1/5 12/6/5 11/7/5
f 12/1/7 14/8/7 13/2/7
f 14/13/8 2/8/8 1/2/8
