# Blender 4.3.0
# www.blender.org
mtllib WalnutBag01.mtl
o WalnutBag01
v 0.123057 0.021689 0.000000
v 0.000000 0.006804 0.000000
v 0.067500 0.007655 0.000000
v -0.057293 0.021689 0.045921
v 0.000000 0.028493 0.055888
v 0.067500 0.029344 0.038266
v 0.053891 0.394137 0.000000
v 0.004035 0.395502 0.000000
v -0.051220 0.360985 0.000000
v -0.100779 0.302939 0.000000
v 0.067500 0.302939 0.038266
v 0.067500 0.209189 0.038266
v 0.067500 0.115439 0.038266
v 0.000000 0.302939 0.055888
v 0.000000 0.209189 0.055888
v 0.000000 0.115439 0.055888
v -0.050489 0.302939 0.045921
v -0.050489 0.209189 0.045921
v -0.054742 0.115439 0.045921
v -0.123744 0.209189 0.000000
v -0.117790 0.115439 0.000000
v 0.067500 0.029344 -0.038266
v 0.000000 0.028493 -0.055888
v -0.057293 0.021689 -0.045921
v -0.057293 -0.000000 0.000000
v 0.110243 0.209189 0.000000
v 0.116009 0.116289 0.000000
v 0.117291 0.302088 0.000000
v -0.131399 0.025942 0.000000
v 0.067500 0.302939 -0.038266
v 0.067500 0.209189 -0.038266
v 0.067500 0.115439 -0.038266
v 0.000000 0.302939 -0.055888
v 0.000000 0.209189 -0.055888
v 0.000000 0.115439 -0.055888
v -0.050489 0.302939 -0.045921
v -0.050489 0.209189 -0.045921
v -0.054742 0.115439 -0.045921
vn 0.5267 -0.1290 0.8402
vn -0.5844 0.4989 0.6400
vn -0.3018 -0.8621 0.4072
vn 0.0110 -0.8699 0.4931
vn 0.2146 -0.8497 0.4816
vn 0.0477 -0.9312 0.3614
vn 0.5654 0.3894 0.7271
vn 0.2309 0.4056 0.8844
vn -0.1532 0.6119 0.7759
vn 0.5885 -0.0267 0.8080
vn 0.5218 -0.0793 0.8494
vn -0.6670 -0.0000 0.7451
vn -0.6185 -0.0384 0.7849
vn -0.5707 -0.0425 0.8201
vn -0.2526 -0.0000 0.9676
vn 0.1937 -0.0000 0.9811
vn 0.1791 -0.0081 0.9838
vn 0.1719 -0.0047 0.9851
vn 0.1532 -0.6119 0.7759
vn -0.1719 0.0047 0.9851
vn -0.1791 0.0081 0.9838
vn -0.1937 -0.0000 0.9811
vn 0.2526 -0.0000 0.9676
vn 0.5707 0.0425 0.8201
vn 0.6185 0.0384 0.7849
vn 0.6670 -0.0000 0.7451
vn -0.5218 0.0793 0.8494
vn -0.5885 0.0267 0.8080
vn -0.5267 0.1290 0.8402
vn -0.2309 -0.4056 0.8844
vn -0.5654 -0.3894 0.7271
vn -0.0477 0.9312 0.3614
vn -0.2146 0.8497 0.4816
vn -0.0110 0.8699 0.4931
vn 0.3018 0.8621 0.4072
vn 0.5844 -0.4989 0.6400
vn 0.6743 -0.0000 0.7385
vn 0.1056 -0.9270 0.3598
vn 0.1068 -0.8990 0.4246
vn 0.0141 0.5164 0.8562
vn -0.3129 0.5009 0.8070
vn 0.5308 0.0337 0.8468
vn 0.5887 -0.0160 0.8082
vn -0.6082 0.0461 0.7924
vn -0.6193 -0.0000 0.7851
vn 0.1791 -0.0000 0.9838
vn 0.3129 -0.5009 0.8070
vn -0.1791 -0.0000 0.9838
vn 0.6193 -0.0000 0.7851
vn 0.6082 -0.0461 0.7924
vn -0.5887 0.0160 0.8082
vn -0.5308 -0.0337 0.8468
vn -0.6743 -0.0000 0.7385
vn -0.0141 -0.5164 0.8562
vn -0.1068 0.8990 0.4246
vn -0.1056 0.9270 0.3598
vt 0.226562 0.585938
vt 0.132812 0.781250
vt 0.046875 0.585938
vt 0.226562 0.781250
vt 0.226562 0.898438
vt 0.164062 0.781250
vt 0.226562 0.039062
vt 0.039062 0.179688
vt 0.226562 0.179688
vt 0.562500 0.039062
vt 0.390625 0.179688
vt 0.562500 0.179688
vt 0.703125 0.179688
vt 0.390625 0.031250
vt 0.695312 0.781250
vt 0.539062 0.984375
vt 0.562500 0.781250
vt 0.390625 0.781250
vt 0.039062 0.382812
vt 0.226562 0.382812
vt 0.687500 0.585938
vt 0.562500 0.585938
vt 0.562500 0.382812
vt 0.687500 0.382812
vt 0.390625 0.585938
vt 0.390625 0.382812
vt 0.390625 0.984375
vt 0.390625 0.953125
s 0
usemtl Primary
f 37/1/1 10/2/1 20/3/1
f 17/4/2 9/5/2 10/6/2
f 4/7/3 29/8/3 25/9/3
f 6/10/4 2/11/4 3/12/4
f 1/13/5 6/10/5 3/12/5
f 4/7/6 2/11/6 5/14/6
f 28/15/7 7/16/7 11/17/7
f 7/16/8 14/18/8 11/17/8
f 14/18/9 9/5/9 17/4/9
f 37/1/10 21/19/10 38/20/10
f 24/9/11 21/19/11 29/8/11
f 26/21/12 30/17/12 31/22/12
f 26/21/13 32/23/13 27/24/13
f 27/24/14 22/12/14 1/13/14
f 30/17/15 34/25/15 31/22/15
f 31/22/15 35/26/15 32/23/15
f 22/12/15 35/26/15 23/11/15
f 33/18/16 37/1/16 34/25/16
f 35/26/17 37/1/17 38/20/17
f 23/11/18 38/20/18 24/9/18
f 33/18/19 9/5/19 36/4/19
f 5/11/20 19/20/20 4/9/20
f 16/26/21 18/1/21 19/20/21
f 14/18/22 18/1/22 15/25/22
f 6/12/23 16/26/23 5/11/23
f 12/22/23 16/26/23 13/23/23
f 11/17/23 15/25/23 12/22/23
f 27/24/24 6/12/24 1/13/24
f 26/21/25 13/23/25 27/24/25
f 26/21/26 11/17/26 12/22/26
f 4/9/27 21/19/27 29/8/27
f 18/1/28 21/19/28 19/20/28
f 18/1/29 10/2/29 20/3/29
f 7/16/30 33/18/30 30/17/30
f 28/15/31 7/16/31 30/17/31
f 24/7/32 2/11/32 23/14/32
f 1/13/33 22/10/33 3/12/33
f 22/10/34 2/11/34 3/12/34
f 24/7/35 29/8/35 25/9/35
f 36/4/36 9/5/36 10/6/36
f 37/1/37 36/4/37 10/2/37
f 6/10/38 5/14/38 2/11/38
f 4/7/39 25/9/39 2/11/39
f 7/16/40 8/27/40 14/18/40
f 14/18/41 8/28/41 9/5/41
f 37/1/42 20/3/42 21/19/42
f 24/9/43 38/20/43 21/19/43
f 26/21/44 28/15/44 30/17/44
f 26/21/12 31/22/12 32/23/12
f 27/24/45 32/23/45 22/12/45
f 30/17/15 33/18/15 34/25/15
f 31/22/15 34/25/15 35/26/15
f 22/12/15 32/23/15 35/26/15
f 33/18/16 36/4/16 37/1/16
f 35/26/16 34/25/16 37/1/16
f 23/11/46 35/26/46 38/20/46
f 33/18/47 8/28/47 9/5/47
f 5/11/48 16/26/48 19/20/48
f 16/26/22 15/25/22 18/1/22
f 14/18/22 17/4/22 18/1/22
f 6/12/23 13/23/23 16/26/23
f 12/22/23 15/25/23 16/26/23
f 11/17/23 14/18/23 15/25/23
f 27/24/49 13/23/49 6/12/49
f 26/21/26 12/22/26 13/23/26
f 26/21/50 28/15/50 11/17/50
f 4/9/51 19/20/51 21/19/51
f 18/1/52 20/3/52 21/19/52
f 18/1/53 17/4/53 10/2/53
f 7/16/54 8/27/54 33/18/54
f 24/7/55 25/9/55 2/11/55
f 22/10/56 23/14/56 2/11/56
