# Blender 4.3.0
# www.blender.org
mtllib Watermelon01b.mtl
o Watermelon01b
v 0.000000 0.000000 0.000000
v 0.000000 0.133263 -0.111111
v 0.086870 0.133263 -0.069277
v 0.108326 0.133263 0.024725
v 0.048209 0.133263 0.100108
v -0.048209 0.133263 0.100108
v -0.108326 0.133263 0.024725
v -0.086870 0.133263 -0.069277
v 0.081759 0.062547 -0.065200
v 0.058166 0.022148 -0.046386
v 0.101952 0.062547 0.023270
v 0.072532 0.022148 0.016555
v 0.045373 0.062547 0.094217
v 0.032280 0.022148 0.067030
v -0.045373 0.062547 0.094217
v -0.032280 0.022148 0.067030
v -0.101952 0.062547 0.023270
v -0.072532 0.022148 0.016555
v -0.081759 0.062547 -0.065200
v -0.058166 0.022148 -0.046386
v 0.000000 0.022148 -0.074397
v -0.000000 0.062547 -0.104573
vn -0.4324 -0.0830 -0.8979
vn -0.9716 -0.0830 -0.2218
vn -0.7791 -0.0830 0.6213
vn -0.0000 -0.0830 0.9965
vn 0.7791 -0.0830 0.6213
vn 0.9716 -0.0830 -0.2218
vn 0.4324 -0.0830 -0.8979
vn 0.1361 -0.9495 -0.2827
vn 0.3600 -0.5583 -0.7475
vn 0.3059 -0.9495 -0.0698
vn 0.8088 -0.5583 -0.1846
vn 0.2453 -0.9495 0.1956
vn 0.6486 -0.5583 0.5173
vn -0.0000 -0.9495 0.3137
vn -0.0000 -0.5583 0.8296
vn -0.2453 -0.9495 0.1956
vn -0.6486 -0.5583 0.5173
vn -0.3059 -0.9495 -0.0698
vn -0.8088 -0.5583 -0.1846
vn -0.1361 -0.9495 -0.2827
vn -0.3600 -0.5583 -0.7475
vn -0.0000 1.0000 -0.0000
vt 0.175000 0.500000
vt 0.033333 0.265625
vt 0.183333 0.328125
vt 0.291667 0.500000
vt 0.283333 0.328125
vt 0.458333 0.500000
vt 0.433333 0.265625
vt 0.166667 0.500000
vt 0.025000 0.265625
vt 0.291667 0.328125
vt 0.308333 0.515625
vt 0.175000 0.296875
vt 0.308333 0.343750
vt 0.433333 0.296875
vt 0.308333 0.000000
vt 0.400000 0.156250
vt 0.308333 0.218750
vt 0.208333 0.171875
vt 0.241667 0.000000
vt 0.275000 0.218750
vt 0.191667 0.218750
vt 0.091667 0.109375
vt 0.233333 0.000000
vt 0.375000 0.125000
vt 0.191667 0.218750
vt 0.091667 0.125000
vt 0.800000 -0.000000
vt 1.000000 0.281250
vt 0.566667 0.156250
vt 0.800000 0.984375
vt 0.566667 0.937500
vt 0.975000 0.718750
vt 0.000000 0.500000
vt 0.300000 0.500000
vt 0.166667 0.515625
vt 0.441667 0.515625
s 0
usemtl Primary
f 8/1/1 22/2/1 19/3/1
f 7/4/2 19/3/2 17/5/2
f 6/6/3 17/5/3 15/7/3
f 5/8/4 15/9/4 13/3/4
f 11/10/5 5/8/5 13/3/5
f 3/11/6 11/12/6 9/13/6
f 22/14/7 3/11/7 9/13/7
f 1/15/8 21/16/8 10/17/8
f 22/14/9 10/17/9 21/16/9
f 1/15/10 10/17/10 12/18/10
f 9/13/11 12/18/11 10/17/11
f 1/19/12 12/20/12 14/21/12
f 11/10/13 14/21/13 12/20/13
f 1/19/14 14/21/14 16/22/14
f 14/21/15 15/9/15 16/22/15
f 1/23/16 16/24/16 18/20/16
f 16/24/17 17/5/17 18/20/17
f 1/23/18 18/20/18 20/25/18
f 17/5/19 20/25/19 18/20/19
f 1/23/20 20/25/20 21/26/20
f 19/3/21 21/26/21 20/25/21
f 5/27/22 4/28/22 6/29/22
f 2/30/22 8/31/22 3/32/22
f 7/6/22 6/29/22 8/31/22
f 3/32/22 6/29/22 4/28/22
f 8/1/1 2/33/1 22/2/1
f 7/4/2 8/1/2 19/3/2
f 6/6/3 7/4/3 17/5/3
f 5/8/4 6/33/4 15/9/4
f 11/10/5 4/34/5 5/8/5
f 3/11/6 4/35/6 11/12/6
f 22/14/7 2/36/7 3/11/7
f 22/14/9 9/13/9 10/17/9
f 9/13/11 11/12/11 12/18/11
f 11/10/13 13/3/13 14/21/13
f 14/21/15 13/3/15 15/9/15
f 16/24/17 15/7/17 17/5/17
f 17/5/19 19/3/19 20/25/19
f 19/3/21 22/2/21 21/26/21
f 3/32/22 8/31/22 6/29/22
