# Blender 4.3.0
# www.blender.org
mtllib Chair01.mtl
o Chair01
v -0.246351 0.714846 0.015165
v -0.273451 0.714846 0.015165
v -0.273451 0.714846 -0.015164
v -0.246351 0.714846 -0.015164
v -0.391977 1.245351 0.015165
v -0.391977 1.215022 -0.015164
v -0.419077 1.215022 -0.015164
v -0.419077 1.245351 -0.015164
v 0.000000 0.714846 0.245637
v -0.184616 0.714846 0.153454
v 0.000000 0.682346 0.000000
v -0.119616 0.591630 0.199633
v -0.195000 0.591630 0.195000
v -0.229604 0.591630 0.088454
v -0.116563 0.591630 0.088454
v -0.147484 0.443508 0.218338
v -0.212569 0.443508 0.218338
v -0.215520 0.403621 0.150989
v -0.150435 0.403621 0.150989
v -0.210170 0.032500 0.294879
v -0.255275 0.032500 0.294879
v -0.253061 0.032500 0.264550
v -0.207956 0.032500 0.264550
v 0.000000 0.714846 0.000000
v 0.286451 0.714846 0.245637
v 0.184616 0.591630 0.212633
v 0.297658 0.591630 0.212633
v 0.294604 0.591630 0.088454
v 0.181563 0.591630 0.088454
v 0.244984 0.443508 0.218338
v 0.310069 0.443508 0.218338
v 0.313020 0.403621 0.150989
v 0.247935 0.403621 0.150989
v 0.340170 0.032500 0.294879
v 0.385275 0.032500 0.294879
v 0.383061 0.032500 0.264550
v 0.337956 0.032500 0.264550
v 0.286451 0.714846 0.000000
v -0.391977 1.215022 0.015165
v -0.419077 1.215022 0.015165
v -0.419077 1.245351 0.015165
v -0.357446 1.194654 0.125705
v -0.382071 1.194559 0.137019
v -0.380928 1.224742 0.139760
v -0.356303 1.224837 0.128446
v -0.153210 1.103067 0.264512
v -0.163935 1.107084 0.289073
v -0.153298 1.135486 0.289073
v -0.142573 1.131469 0.264512
v 0.002742 1.043462 0.291758
v 0.002742 1.043462 0.318857
v 0.023612 1.065469 0.318857
v 0.023612 1.065469 0.291758
v 0.126981 0.698890 0.237897
v 0.126981 0.698890 0.245637
v 0.153836 0.698890 0.245637
v 0.153836 0.698890 0.237897
v 0.000000 0.714846 -0.245637
v -0.184616 0.714846 -0.153454
v -0.150435 0.403621 -0.150989
v -0.215520 0.403621 -0.150989
v -0.212569 0.443508 -0.218338
v -0.147484 0.443508 -0.218338
v -0.116563 0.591630 -0.088454
v -0.229604 0.591630 -0.088454
v -0.195000 0.591630 -0.195000
v -0.119616 0.591630 -0.199633
v -0.286451 0.714846 0.000000
v 0.286451 0.714846 -0.245637
v 0.184616 0.591630 -0.212633
v 0.297658 0.591630 -0.212633
v 0.294604 0.591630 -0.088454
v 0.181563 0.591630 -0.088454
v 0.244984 0.443508 -0.218338
v 0.310069 0.443508 -0.218338
v 0.313020 0.403621 -0.150989
v 0.247935 0.403621 -0.150989
v 0.340170 0.032500 -0.294879
v 0.385275 0.032500 -0.294879
v 0.383061 0.032500 -0.264550
v 0.337956 0.032500 -0.264550
v -0.391977 1.245351 -0.015165
v -0.357446 1.194654 -0.125705
v -0.382071 1.194559 -0.137019
v -0.380928 1.224742 -0.139760
v -0.356303 1.224837 -0.128446
v -0.153210 1.103067 -0.264512
v -0.163935 1.107084 -0.289073
v -0.153298 1.135486 -0.289073
v -0.142573 1.131469 -0.264512
v 0.002742 1.043462 -0.291758
v 0.002742 1.043462 -0.318857
v 0.023612 1.065469 -0.318857
v 0.023612 1.065469 -0.291758
v 0.126981 0.698890 -0.237897
v 0.126981 0.698890 -0.245637
v 0.153836 0.698890 -0.245637
v 0.153836 0.698890 -0.237897
v -0.210170 0.032500 -0.294879
v -0.255275 0.032500 -0.294879
v -0.253061 0.032500 -0.264550
v -0.207956 0.032500 -0.264550
v 0.011710 0.714846 0.235596
v -0.165360 0.714846 0.147181
v 0.011710 0.714846 -0.235596
v -0.165360 0.714846 -0.147181
v -0.246351 0.714846 0.000000
v 0.011710 0.731096 0.235596
v -0.165360 0.731096 0.147181
v 0.286451 0.731096 0.245637
v 0.011710 0.731096 0.000000
v 0.011710 0.731096 -0.235596
v -0.165360 0.731096 -0.147181
v 0.286451 0.731096 -0.245637
v -0.246351 0.731096 0.000000
vn -0.0000 -0.0000 1.0000
vn -0.0000 -0.0000 -1.0000
vn -0.9601 -0.2795 -0.0000
vn 0.9601 0.2795 -0.0000
vn -0.0000 1.0000 -0.0000
vn -0.0000 -1.0000 -0.0000
vn 1.0000 -0.0000 -0.0000
vn -1.0000 -0.0000 -0.0000
vn 0.6568 -0.7475 0.0989
vn -0.0000 -0.3156 -0.9489
vn -0.9353 0.1813 0.3038
vn -0.4445 0.0992 0.8903
vn -0.0000 -0.5832 -0.8124
vn 0.9887 -0.1312 0.0722
vn -0.0608 0.1363 0.9888
vn 0.9857 -0.1604 0.0518
vn -0.9389 0.1594 0.3049
vn -0.9948 0.1004 -0.0159
vn -0.0000 -0.2926 -0.9562
vn -0.0000 0.1831 0.9831
vn -0.4881 -0.8653 0.1145
vn 0.9978 0.0660 -0.0000
vn -0.0000 -0.2587 0.9659
vn 0.0704 -0.6206 -0.7810
vn -0.9742 -0.2104 0.0819
vn -0.0000 0.0385 0.9993
vn -0.9261 -0.3766 0.0228
vn 0.9963 0.0825 -0.0245
vn 0.9839 0.1694 -0.0572
vn -0.1484 -0.9319 -0.3308
vn -0.9538 -0.0000 0.3004
vn 0.9563 -0.0097 -0.2921
vn -0.0000 -0.9866 -0.1632
vn 0.0696 0.9847 0.1597
vn -0.1175 0.1114 0.9868
vn 0.3961 0.9179 0.0228
vn -0.5531 -0.0545 0.8313
vn 0.5088 -0.1906 -0.8395
vn -0.9423 -0.3347 -0.0000
vn 0.1542 -0.0578 -0.9863
vn -0.3668 -0.9303 -0.0080
vn 0.3570 0.9341 -0.0000
vn 0.9407 0.3392 -0.0000
vn 0.1114 -0.1056 0.9881
vn -0.0000 0.2079 -0.9782
vn -0.9887 0.1312 0.0722
vn -0.9857 0.1604 0.0518
vn -0.0000 0.2926 -0.9562
vn 0.0608 -0.1363 0.9888
vn 0.4445 -0.0992 0.8903
vn -0.0000 -0.1831 0.9831
vn 0.9948 -0.1004 -0.0159
vn 0.9389 -0.1594 0.3049
vn -0.6568 0.7475 0.0989
vn 0.9353 -0.1813 0.3038
vn -0.0000 0.3156 -0.9489
vn -0.0000 0.5832 -0.8124
vn -0.4881 -0.8653 -0.1145
vn -0.0000 -0.3156 0.9489
vn 0.9950 0.0970 0.0245
vn -0.0000 -0.2587 -0.9659
vn -0.0000 -0.5832 0.8124
vn -0.9741 -0.2145 -0.0711
vn -0.0000 0.0385 -0.9993
vn -0.9477 -0.2910 -0.1309
vn 0.9963 0.0825 0.0245
vn 0.9839 0.1694 0.0572
vn -0.0000 -0.2926 0.9562
vn -0.0000 0.1831 -0.9831
vn -0.1484 -0.9319 0.3308
vn -0.9538 -0.0000 -0.3004
vn 0.9562 -0.0000 0.2928
vn -0.0000 -0.9866 0.1632
vn -0.0000 0.9862 -0.1656
vn -0.1508 0.0565 -0.9869
vn 0.1466 0.9336 -0.3268
vn -0.5531 -0.0545 -0.8313
vn 0.5623 0.0536 0.8252
vn 0.1542 -0.0578 0.9863
vn -0.3668 -0.9303 0.0080
vn 0.3562 0.9344 -0.0027
vn 0.1114 -0.1056 -0.9881
vn -0.1499 0.1422 0.9784
vn -0.0365 -0.0000 0.9993
vn -0.8761 -0.0000 -0.4821
vn -0.4467 -0.0000 0.8947
vn -0.8761 -0.0000 0.4821
vn -0.0365 -0.0000 -0.9993
vn -0.4467 -0.0000 -0.8947
vn 0.7137 -0.7002 0.0196
vn -0.8332 0.0125 0.5529
vn -0.0581 0.3234 0.9445
vn -0.0733 -0.6463 -0.7595
vn 0.9888 -0.1431 0.0414
vn -0.0000 0.1556 0.9878
vn 0.9830 -0.1815 0.0270
vn -0.9960 -0.0502 0.0734
vn -0.9943 0.0784 -0.0726
vn -0.5534 -0.8328 0.0136
vn 0.9950 0.0970 -0.0245
vn -0.9741 -0.2145 0.0711
vn -0.9477 -0.2910 0.1309
vn 0.9955 0.0936 -0.0118
vn 0.9839 0.1637 -0.0718
vn -0.3897 -0.9207 -0.0196
vn -0.9540 0.0089 0.2997
vn 0.9562 -0.0000 -0.2928
vn -0.0683 -0.9852 -0.1569
vn -0.0000 0.9862 0.1656
vn -0.1508 0.0565 0.9869
vn 0.1466 0.9336 0.3268
vn -0.4943 0.1851 0.8494
vn 0.5623 0.0536 -0.8252
vn 0.1207 -0.1145 -0.9861
vn -0.3691 -0.9294 -0.0000
vn 0.3562 0.9344 0.0027
vn -0.0000 -0.1544 0.9880
vn -0.1499 0.1422 -0.9784
vn -0.9888 0.1431 0.0414
vn -0.9830 0.1815 0.0270
vn -0.0000 -0.1556 0.9878
vn 0.0581 -0.3234 0.9445
vn 0.9943 -0.0784 -0.0726
vn 0.9960 0.0502 0.0734
vn -0.7137 0.7002 0.0196
vn 0.8332 -0.0125 0.5529
vn 0.0733 0.6463 -0.7595
vn -0.5534 -0.8328 -0.0136
vn 0.0704 -0.6206 0.7810
vn -0.9742 -0.2104 -0.0819
vn -0.9261 -0.3766 -0.0228
vn 0.9955 0.0936 0.0118
vn 0.9839 0.1637 0.0718
vn -0.3897 -0.9207 0.0196
vn -0.9540 0.0089 -0.2997
vn 0.9563 -0.0097 0.2921
vn -0.0683 -0.9852 0.1569
vn 0.0696 0.9847 -0.1597
vn -0.1175 0.1114 -0.9868
vn 0.3961 0.9179 -0.0228
vn -0.4943 0.1851 -0.8494
vn 0.5088 -0.1906 0.8395
vn 0.1207 -0.1145 0.9861
vn -0.0000 -0.1544 -0.9880
vn -0.0000 0.2079 0.9782
vt 0.848958 0.223214
vt 0.828125 0.245536
vt 0.869792 0.245536
vt 0.848958 0.267857
vt 0.000000 0.000000
vt 0.562500 0.285714
vt 0.718750 0.290179
vt 0.562500 0.316964
vt 0.697917 0.303571
vt 0.838542 0.272321
vt 0.822917 0.241071
vt 0.697917 0.290179
vt 0.687500 0.263393
vt 0.562500 0.330357
vt 0.697917 0.339286
vt 0.562500 0.361607
vt 0.718750 0.339286
vt 0.817708 0.218750
vt 1.000000 0.071429
vt 0.984375 0.058036
vt 0.687500 0.303571
vt 0.822917 0.272321
vt 0.822917 0.196429
vt 0.838542 0.223214
vt 0.807292 0.205357
vt 0.812500 0.196429
vt 0.838542 0.205357
vt 0.968750 0.040179
vt 0.843750 0.227679
vt 0.697917 0.263393
vt 0.630208 0.986607
vt 1.000000 0.428571
vt 1.000000 1.000000
vt 0.630208 0.714286
vt 0.385417 0.540179
vt 0.630208 0.441964
vt 1.000000 0.486929
vt 0.484346 0.513071
vt 0.484346 0.486929
vt 0.500000 0.486929
vt 0.776239 0.513071
vt 0.776239 0.486929
vt 0.152010 0.513071
vt 0.152010 0.486929
vt 0.223761 0.486929
vt 0.500000 0.513071
vt 1.000000 0.513071
vt 0.961029 0.486929
vt 0.038971 0.513071
vt 0.038971 0.486929
vt 0.385417 0.888393
vt 0.281250 0.714286
vt 0.807292 0.250000
vt 0.822917 0.227679
vt 0.223761 0.513071
vt 0.961029 0.513071
s 0
usemtl Primary
f 3/1/1 6/2/1 7/1/1
f 2/3/2 39/4/2 1/4/2
f 1/4/3 6/2/3 4/2/3
f 3/1/4 40/3/4 2/3/4
f 5/5/5 8/5/5 41/5/5
f 40/5/6 6/5/6 39/5/6
f 5/5/7 6/5/7 82/5/7
f 41/5/8 7/5/8 40/5/8
f 9/6/9 15/7/9 11/8/9
f 14/9/10 19/10/10 18/11/10
f 10/6/11 14/12/11 13/13/11
f 10/14/12 12/15/12 9/16/12
f 68/14/13 15/17/13 14/9/13
f 19/18/14 20/19/14 23/20/14
f 13/21/15 16/22/15 12/15/15
f 15/7/16 16/23/16 19/24/16
f 14/12/17 17/25/17 13/13/17
f 20/4/6 22/1/6 23/2/6
f 18/26/18 21/20/18 17/27/18
f 18/26/19 23/20/19 22/28/19
f 17/27/20 20/19/20 16/29/20
f 10/14/5 24/16/5 68/14/5
f 29/7/21 9/6/21 11/8/21
f 28/9/10 33/10/10 29/17/10
f 25/6/22 28/12/22 38/8/22
f 26/15/23 25/14/23 9/16/23
f 38/14/24 29/17/24 11/16/24
f 33/18/25 34/19/25 30/29/25
f 30/22/26 27/21/26 26/15/26
f 29/7/27 30/23/27 26/30/27
f 31/25/28 28/12/28 27/13/28
f 34/4/6 36/1/6 35/3/6
f 35/20/29 32/26/29 31/27/29
f 32/26/19 37/20/19 33/18/19
f 34/19/20 31/27/20 30/29/20
f 38/14/5 9/16/5 25/14/5
f 45/2/30 48/1/30 44/1/30
f 39/4/31 45/2/31 5/2/31
f 40/3/32 44/1/32 43/3/32
f 5/2/33 44/1/33 41/1/33
f 39/4/34 43/3/34 42/4/34
f 49/2/35 50/4/35 53/2/35
f 42/4/36 47/3/36 46/4/36
f 42/4/37 49/2/37 45/2/37
f 43/3/38 48/1/38 47/3/38
f 53/2/39 56/1/39 52/1/39
f 48/1/40 51/3/40 47/3/40
f 49/2/41 52/1/41 48/1/41
f 46/4/42 51/3/42 50/4/42
f 50/4/43 55/3/43 54/4/43
f 50/4/44 57/2/44 53/2/44
f 51/3/45 56/1/45 55/3/45
f 99/4/5 101/1/5 102/2/5
f 60/18/46 99/19/46 102/20/46
f 64/7/47 63/23/47 60/24/47
f 61/26/48 102/20/48 101/28/48
f 66/21/49 63/22/49 67/15/49
f 59/14/50 67/15/50 58/16/50
f 62/27/51 99/19/51 63/29/51
f 61/26/52 100/20/52 62/27/52
f 65/12/53 62/25/53 66/13/53
f 58/6/54 64/7/54 11/8/54
f 59/6/55 65/12/55 66/13/55
f 65/9/56 60/10/56 61/11/56
f 68/14/57 64/17/57 65/9/57
f 59/14/5 24/16/5 58/16/5
f 58/6/58 73/7/58 11/8/58
f 72/9/59 77/10/59 76/11/59
f 69/6/60 72/12/60 71/13/60
f 69/14/61 70/15/61 58/16/61
f 38/14/62 73/17/62 72/9/62
f 77/18/63 78/19/63 81/20/63
f 71/21/64 74/22/64 70/15/64
f 73/7/65 74/23/65 77/24/65
f 72/12/66 75/25/66 71/13/66
f 78/4/6 80/1/6 81/2/6
f 76/26/67 79/20/67 75/27/67
f 76/26/68 81/20/68 80/28/68
f 75/27/69 78/19/69 74/29/69
f 58/16/5 38/14/5 69/14/5
f 89/1/70 86/2/70 85/1/70
f 86/2/71 6/4/71 82/2/71
f 7/3/72 85/1/72 8/1/72
f 85/1/73 82/2/73 8/1/73
f 6/4/74 84/3/74 7/3/74
f 90/2/75 91/4/75 87/4/75
f 83/4/76 88/3/76 84/3/76
f 90/2/77 83/4/77 86/2/77
f 84/3/78 89/1/78 85/1/78
f 97/1/39 94/2/39 93/1/39
f 92/3/79 89/1/79 88/3/79
f 93/1/80 90/2/80 89/1/80
f 87/4/81 92/3/81 88/3/81
f 91/4/43 96/3/43 92/3/43
f 98/2/82 91/4/82 94/2/82
f 92/3/83 97/1/83 93/1/83
f 112/31/5 110/32/5 114/33/5
f 111/34/5 109/35/5 108/36/5
f 25/37/84 108/38/84 103/39/84
f 107/40/85 113/41/85 106/42/85
f 103/39/86 109/43/86 104/44/86
f 104/45/87 115/46/87 107/40/87
f 105/39/88 114/47/88 69/37/88
f 106/44/89 112/38/89 105/39/89
f 69/48/7 110/49/7 25/50/7
f 111/34/5 113/51/5 115/52/5
f 3/1/1 4/2/1 6/2/1
f 2/3/2 40/3/2 39/4/2
f 1/4/3 39/4/3 6/2/3
f 3/1/4 7/1/4 40/3/4
f 5/5/5 82/5/5 8/5/5
f 40/5/6 7/5/6 6/5/6
f 5/5/7 39/5/7 6/5/7
f 41/5/8 8/5/8 7/5/8
f 9/6/90 12/30/90 15/7/90
f 14/9/10 15/17/10 19/10/10
f 10/6/91 68/8/91 14/12/91
f 10/14/92 13/21/92 12/15/92
f 68/14/93 11/16/93 15/17/93
f 19/18/94 16/29/94 20/19/94
f 13/21/95 17/53/95 16/22/95
f 15/7/96 12/30/96 16/23/96
f 14/12/97 18/54/97 17/25/97
f 20/4/6 21/3/6 22/1/6
f 18/26/98 22/28/98 21/20/98
f 18/26/19 19/18/19 23/20/19
f 17/27/20 21/20/20 20/19/20
f 10/14/5 9/16/5 24/16/5
f 29/7/99 26/30/99 9/6/99
f 28/9/10 32/11/10 33/10/10
f 25/6/100 27/13/100 28/12/100
f 26/15/23 27/21/23 25/14/23
f 38/14/13 28/9/13 29/17/13
f 33/18/101 37/20/101 34/19/101
f 30/22/26 31/53/26 27/21/26
f 29/7/102 33/24/102 30/23/102
f 31/25/103 32/54/103 28/12/103
f 34/4/6 37/2/6 36/1/6
f 35/20/104 36/28/104 32/26/104
f 32/26/19 36/28/19 37/20/19
f 34/19/20 35/20/20 31/27/20
f 38/14/5 24/16/5 9/16/5
f 45/2/105 49/2/105 48/1/105
f 39/4/106 42/4/106 45/2/106
f 40/3/107 41/1/107 44/1/107
f 5/2/108 45/2/108 44/1/108
f 39/4/109 40/3/109 43/3/109
f 49/2/110 46/4/110 50/4/110
f 42/4/111 43/3/111 47/3/111
f 42/4/112 46/4/112 49/2/112
f 43/3/113 44/1/113 48/1/113
f 53/2/39 57/2/39 56/1/39
f 48/1/114 52/1/114 51/3/114
f 49/2/115 53/2/115 52/1/115
f 46/4/116 47/3/116 51/3/116
f 50/4/43 51/3/43 55/3/43
f 50/4/117 54/4/117 57/2/117
f 51/3/118 52/1/118 56/1/118
f 99/4/5 100/3/5 101/1/5
f 60/18/119 63/29/119 99/19/119
f 64/7/120 67/30/120 63/23/120
f 61/26/48 60/18/48 102/20/48
f 66/21/121 62/53/121 63/22/121
f 59/14/122 66/21/122 67/15/122
f 62/27/51 100/20/51 99/19/51
f 61/26/123 101/28/123 100/20/123
f 65/12/124 61/54/124 62/25/124
f 58/6/125 67/30/125 64/7/125
f 59/6/126 68/8/126 65/12/126
f 65/9/56 64/17/56 60/10/56
f 68/14/127 11/16/127 64/17/127
f 59/14/5 68/14/5 24/16/5
f 58/6/128 70/30/128 73/7/128
f 72/9/59 73/17/59 77/10/59
f 69/6/22 38/8/22 72/12/22
f 69/14/61 71/21/61 70/15/61
f 38/14/129 11/16/129 73/17/129
f 77/18/130 74/29/130 78/19/130
f 71/21/64 75/53/64 74/22/64
f 73/7/131 70/30/131 74/23/131
f 72/12/132 76/54/132 75/25/132
f 78/4/6 79/3/6 80/1/6
f 76/26/133 80/28/133 79/20/133
f 76/26/68 77/18/68 81/20/68
f 75/27/69 79/20/69 78/19/69
f 58/16/5 24/16/5 38/14/5
f 89/1/134 90/2/134 86/2/134
f 86/2/135 83/4/135 6/4/135
f 7/3/136 84/3/136 85/1/136
f 85/1/137 86/2/137 82/2/137
f 6/4/138 83/4/138 84/3/138
f 90/2/139 94/2/139 91/4/139
f 83/4/140 87/4/140 88/3/140
f 90/2/141 87/4/141 83/4/141
f 84/3/142 88/3/142 89/1/142
f 97/1/39 98/2/39 94/2/39
f 92/3/143 93/1/143 89/1/143
f 93/1/115 94/2/115 90/2/115
f 87/4/42 91/4/42 92/3/42
f 91/4/43 95/4/43 96/3/43
f 98/2/144 95/4/144 91/4/144
f 92/3/145 96/3/145 97/1/145
f 112/31/5 108/36/5 110/32/5
f 111/34/5 115/52/5 109/35/5
f 25/37/84 110/47/84 108/38/84
f 107/40/85 115/46/85 113/41/85
f 103/39/86 108/38/86 109/43/86
f 104/45/87 109/55/87 115/46/87
f 105/39/88 112/38/88 114/47/88
f 106/44/89 113/43/89 112/38/89
f 69/48/7 114/56/7 110/49/7
f 111/34/5 112/31/5 113/51/5
