# Blender 4.3.0
# www.blender.org
mtllib CoffeeTable01.mtl
o CoffeeTable01
v 0.000000 1.100000 -0.500000
v 0.353553 1.000000 -0.353553
v 0.353553 1.100000 -0.353553
v 0.500000 1.000000 0.000000
v 0.500000 1.100000 0.000000
v 0.353553 1.100000 0.353553
v 0.000000 1.100000 0.500000
v -0.353553 1.000000 0.353553
v -0.353553 1.100000 0.353553
v -0.500000 1.000000 0.000000
v -0.500000 1.100000 0.000000
v -0.353553 1.100000 -0.353553
v 0.000000 1.100000 0.000000
v 0.000000 1.000000 -0.500000
v 0.353553 1.000000 0.353553
v 0.000000 1.000000 0.500000
v -0.353553 1.000000 -0.353553
v 0.000000 1.000000 0.000000
v 0.032322 0.400000 -0.067678
v 0.082322 1.000000 -0.117678
v 0.067678 0.400000 -0.067678
v 0.117678 1.000000 -0.117678
v 0.067678 0.400000 -0.032322
v 0.117678 1.000000 -0.082322
v 0.032322 0.400000 -0.032322
v 0.082322 1.000000 -0.082322
v 0.057166 0.241518 -0.092522
v 0.090865 0.252084 -0.090865
v 0.092522 0.241518 -0.057166
v 0.058823 0.230953 -0.058823
v 0.127043 0.112733 -0.162398
v 0.156083 0.131885 -0.156083
v 0.162398 0.112733 -0.127043
v 0.133357 0.093582 -0.133357
v 0.297487 0.025000 -0.332843
v 0.315165 0.050000 -0.315165
v 0.332843 0.025000 -0.297487
v 0.315165 0.000000 -0.315165
v -0.032322 0.400000 -0.067678
v -0.082322 1.000000 -0.117678
v -0.067678 0.400000 -0.067678
v -0.117678 1.000000 -0.117678
v -0.067678 0.400000 -0.032322
v -0.117678 1.000000 -0.082322
v -0.032322 0.400000 -0.032322
v -0.082322 1.000000 -0.082322
v -0.057166 0.241518 -0.092522
v -0.090865 0.252084 -0.090865
v -0.092522 0.241518 -0.057166
v -0.058823 0.230953 -0.058823
v -0.127043 0.112733 -0.162398
v -0.156083 0.131885 -0.156083
v -0.162398 0.112733 -0.127043
v -0.133357 0.093582 -0.133357
v -0.297487 0.025000 -0.332843
v -0.315165 0.050000 -0.315165
v -0.332843 0.025000 -0.297487
v -0.315165 0.000000 -0.315165
v 0.032322 0.400000 0.067678
v 0.082322 1.000000 0.117678
v 0.067678 0.400000 0.067678
v 0.117678 1.000000 0.117678
v 0.067678 0.400000 0.032322
v 0.117678 1.000000 0.082322
v 0.032322 0.400000 0.032322
v 0.082322 1.000000 0.082322
v 0.057166 0.241518 0.092522
v 0.090865 0.252084 0.090865
v 0.092522 0.241518 0.057166
v 0.058823 0.230953 0.058823
v 0.127043 0.112733 0.162398
v 0.156083 0.131885 0.156083
v 0.162398 0.112733 0.127043
v 0.133357 0.093582 0.133357
v 0.297487 0.025000 0.332843
v 0.315165 0.050000 0.315165
v 0.332843 0.025000 0.297487
v 0.315165 0.000000 0.315165
v -0.032322 0.400000 0.067678
v -0.082322 1.000000 0.117678
v -0.067678 0.400000 0.067678
v -0.117678 1.000000 0.117678
v -0.067678 0.400000 0.032322
v -0.117678 1.000000 0.082322
v -0.032322 0.400000 0.032322
v -0.082322 1.000000 0.082322
v -0.057166 0.241518 0.092522
v -0.090865 0.252084 0.090865
v -0.092522 0.241518 0.057166
v -0.058823 0.230953 0.058823
v -0.127043 0.112733 0.162398
v -0.156083 0.131885 0.156083
v -0.162398 0.112733 0.127043
v -0.133357 0.093582 0.133357
v -0.297487 0.025000 0.332843
v -0.315165 0.050000 0.315165
v -0.332843 0.025000 0.297487
v -0.315165 0.000000 0.315165
v 0.000000 0.397500 -0.112500
v 0.000000 0.442500 -0.112500
v 0.097428 0.397500 -0.056250
v 0.097428 0.442500 -0.056250
v 0.097428 0.397500 0.056250
v 0.097428 0.442500 0.056250
v 0.000000 0.397500 0.112500
v 0.000000 0.442500 0.112500
v -0.097428 0.397500 0.056250
v -0.097428 0.442500 0.056250
v -0.097428 0.397500 -0.056250
v -0.097428 0.442500 -0.056250
vn 0.3827 -0.0000 -0.9239
vn 0.9239 -0.0000 -0.3827
vn 0.9239 -0.0000 0.3827
vn 0.3827 -0.0000 0.9239
vn -0.3827 -0.0000 0.9239
vn -0.9239 -0.0000 0.3827
vn -0.9239 -0.0000 -0.3827
vn -0.3827 -0.0000 -0.9239
vn -0.0000 1.0000 -0.0000
vn -0.0000 -1.0000 -0.0000
vn -0.0000 -0.0830 -0.9965
vn 0.9965 -0.0830 -0.0000
vn -0.0000 0.0830 0.9965
vn -0.9965 0.0830 -0.0000
vn -0.9879 -0.1549 -0.0000
vn 0.0926 -0.4356 0.8954
vn 0.9879 0.1549 -0.0000
vn -0.0000 0.1549 -0.9879
vn -0.0000 -0.1549 0.9879
vn -0.6605 -0.6848 -0.3080
vn -0.0926 0.4356 -0.8954
vn -0.8954 -0.4356 -0.0926
vn 0.8954 0.4356 0.0926
vn 0.7071 -0.0000 -0.7071
vn 0.6605 0.6848 0.3080
vn 0.3080 -0.6848 0.6605
vn -0.3080 0.6848 -0.6605
vn -0.9965 -0.0830 -0.0000
vn 0.9965 0.0830 -0.0000
vn 0.9879 -0.1549 -0.0000
vn -0.0926 -0.4356 0.8954
vn -0.9879 0.1549 -0.0000
vn 0.6605 -0.6848 -0.3080
vn 0.0926 0.4356 -0.8954
vn 0.8954 -0.4356 -0.0926
vn -0.8954 0.4356 0.0926
vn -0.7071 -0.0000 -0.7071
vn -0.6605 0.6848 0.3080
vn -0.3080 -0.6848 0.6605
vn 0.3080 0.6848 -0.6605
vn -0.0000 -0.0830 0.9965
vn -0.0000 0.0830 -0.9965
vn 0.0926 -0.4356 -0.8954
vn -0.0000 0.1549 0.9879
vn -0.0000 -0.1549 -0.9879
vn -0.6605 -0.6848 0.3080
vn -0.0926 0.4356 0.8954
vn -0.8954 -0.4356 0.0926
vn 0.8954 0.4356 -0.0926
vn 0.7071 -0.0000 0.7071
vn 0.6605 0.6848 -0.3080
vn 0.3080 -0.6848 -0.6605
vn -0.3080 0.6848 0.6605
vn -0.0926 -0.4356 -0.8954
vn 0.6605 -0.6848 0.3080
vn 0.0926 0.4356 0.8954
vn 0.8954 -0.4356 0.0926
vn -0.8954 0.4356 -0.0926
vn -0.7071 -0.0000 0.7071
vn -0.6605 0.6848 -0.3080
vn -0.3080 -0.6848 -0.6605
vn 0.3080 0.6848 0.6605
vn 0.5000 -0.0000 -0.8660
vn 1.0000 -0.0000 -0.0000
vn 0.5000 -0.0000 0.8660
vn -0.5000 -0.0000 0.8660
vn -1.0000 -0.0000 -0.0000
vn -0.5000 -0.0000 -0.8660
vt 0.463542 0.656250
vt 0.927083 0.544643
vt 0.463542 0.544643
vt 1.000000 0.656250
vt 0.531250 0.544643
vt 1.000000 0.544643
vt 0.531250 0.656250
vt 0.062500 0.544643
vt 0.927083 0.656250
vt 0.000000 0.544643
vt 0.062500 0.656250
vt 0.000000 0.656250
vt 0.500000 0.714286
vt 0.265625 0.513393
vt 0.500000 0.428571
vt 0.734375 0.513393
vt 0.833333 0.714286
vt 0.734375 0.915179
vt 0.500000 1.000000
vt 0.265625 0.915179
vt 0.166667 0.714286
vt -0.000000 0.361607
vt 0.562500 0.330357
vt 0.562500 0.361607
vt 0.562500 0.285714
vt -0.000000 0.316964
vt 0.562500 0.316964
vt 0.718750 0.290179
vt 0.718750 0.339286
vt 0.822917 0.241071
vt 0.697917 0.303571
vt 0.687500 0.263393
vt 0.697917 0.339286
vt 0.817708 0.218750
vt 1.000000 0.071429
vt 0.984375 0.058036
vt 0.687500 0.303571
vt 0.822917 0.272321
vt 0.697917 0.263393
vt 0.838542 0.223214
vt 0.822917 0.227679
vt 0.807292 0.205357
vt 0.869792 0.245536
vt 0.828125 0.245536
vt 0.848958 0.267857
vt 0.812500 0.196429
vt 0.838542 0.205357
vt 0.968750 0.040179
vt 0.843750 0.227679
vt -0.000000 0.285714
vt -0.000000 0.330357
vt 0.822917 0.196429
vt 0.697917 0.290179
vt 0.380208 0.174107
vt 0.458333 0.138393
vt 0.380208 0.138393
vt 0.427083 0.174107
vt 0.333333 0.138393
vt 0.427083 0.138393
vt 0.458333 0.174107
vt 0.302083 0.138393
vt 0.229167 0.165179
vt 0.260417 0.107143
vt 0.260417 0.142857
vt 0.333333 0.174107
vt 0.302083 0.174107
vt 0.229167 0.084821
vt 0.197917 0.142857
vt 0.197917 0.107143
vt 0.838542 0.272321
vt 0.807292 0.250000
vt 0.848958 0.223214
s 0
usemtl Primary
f 1/1/1 2/2/1 14/3/1
f 3/4/2 4/5/2 2/6/2
f 5/7/3 15/8/3 4/5/3
f 6/9/4 16/3/4 15/2/4
f 7/1/5 8/10/5 16/3/5
f 9/11/6 10/5/6 8/8/6
f 11/7/7 17/6/7 10/5/7
f 12/12/8 14/3/8 17/10/8
f 13/13/9 9/14/9 7/15/9
f 13/13/9 6/16/9 5/17/9
f 13/13/9 3/18/9 1/19/9
f 13/13/9 12/20/9 11/21/9
f 8/14/10 18/13/10 16/15/10
f 15/16/10 18/13/10 4/17/10
f 2/18/10 18/13/10 14/19/10
f 17/20/10 18/13/10 10/21/10
f 20/22/11 21/23/11 19/24/11
f 21/25/12 24/26/12 23/27/12
f 23/23/13 26/22/13 25/24/13
f 26/26/14 19/25/14 25/27/14
f 19/25/15 30/28/15 25/27/15
f 30/29/16 33/30/16 29/31/16
f 23/27/17 28/32/17 21/25/17
f 21/23/18 27/33/18 19/24/18
f 23/23/19 30/29/19 29/31/19
f 34/34/20 35/35/20 38/36/20
f 28/37/21 31/38/21 27/33/21
f 27/39/22 34/40/22 30/28/22
f 28/32/23 33/41/23 32/42/23
f 36/43/24 38/44/24 35/45/24
f 33/46/25 36/36/25 32/47/25
f 34/34/26 37/48/26 33/46/26
f 31/49/27 36/36/27 35/35/27
f 41/23/11 40/22/11 39/24/11
f 41/25/28 44/26/28 42/50/28
f 43/23/13 46/22/13 44/51/13
f 39/25/29 46/26/29 45/27/29
f 50/28/30 39/25/30 45/27/30
f 53/30/31 50/29/31 49/31/31
f 48/32/32 43/27/32 41/25/32
f 47/33/18 41/23/18 39/24/18
f 49/31/19 45/24/19 43/23/19
f 54/34/33 55/35/33 51/49/33
f 51/38/34 48/37/34 47/33/34
f 50/28/35 51/52/35 47/39/35
f 52/42/36 49/53/36 48/32/36
f 58/44/37 56/43/37 55/45/37
f 56/36/38 53/46/38 52/47/38
f 57/48/39 54/34/39 53/46/39
f 51/49/40 56/36/40 52/47/40
f 61/23/41 60/22/41 59/24/41
f 61/25/12 64/26/12 62/50/12
f 63/23/42 66/22/42 64/51/42
f 59/25/14 66/26/14 65/27/14
f 70/28/15 59/25/15 65/27/15
f 73/30/43 70/29/43 69/31/43
f 68/32/17 63/27/17 61/25/17
f 67/33/44 61/23/44 59/24/44
f 69/31/45 65/24/45 63/23/45
f 74/34/46 75/35/46 71/49/46
f 71/38/47 68/37/47 67/33/47
f 70/28/48 71/52/48 67/39/48
f 72/42/49 69/53/49 68/32/49
f 78/44/50 76/43/50 75/45/50
f 76/36/51 73/46/51 72/47/51
f 77/48/52 74/34/52 73/46/52
f 71/49/53 76/36/53 72/47/53
f 80/22/41 81/23/41 79/24/41
f 81/25/28 84/26/28 83/27/28
f 83/23/42 86/22/42 85/24/42
f 86/26/29 79/25/29 85/27/29
f 79/25/30 90/28/30 85/27/30
f 90/29/54 93/30/54 89/31/54
f 83/27/32 88/32/32 81/25/32
f 81/23/44 87/33/44 79/24/44
f 83/23/45 90/29/45 89/31/45
f 94/34/55 95/35/55 98/36/55
f 88/37/56 91/38/56 87/33/56
f 87/39/57 94/40/57 90/28/57
f 88/32/58 93/41/58 92/42/58
f 96/43/59 98/44/59 95/45/59
f 93/46/60 96/36/60 92/47/60
f 94/34/61 97/48/61 93/46/61
f 91/49/62 96/36/62 95/35/62
f 100/54/63 101/55/63 99/56/63
f 102/57/64 103/58/64 101/59/64
f 104/60/65 105/56/65 103/55/65
f 106/54/66 107/61/66 105/56/66
f 100/62/9 104/63/9 102/64/9
f 108/65/67 109/59/67 107/58/67
f 110/66/68 99/56/68 109/61/68
f 106/67/9 110/68/9 108/69/9
f 99/62/10 103/63/10 105/67/10
f 105/67/10 109/68/10 99/62/10
f 1/1/1 3/9/1 2/2/1
f 3/4/2 5/7/2 4/5/2
f 5/7/3 6/11/3 15/8/3
f 6/9/4 7/1/4 16/3/4
f 7/1/5 9/12/5 8/10/5
f 9/11/6 11/7/6 10/5/6
f 11/7/7 12/4/7 17/6/7
f 12/12/8 1/1/8 14/3/8
f 13/13/9 11/21/9 9/14/9
f 13/13/9 7/15/9 6/16/9
f 13/13/9 5/17/9 3/18/9
f 13/13/9 1/19/9 12/20/9
f 8/14/10 10/21/10 18/13/10
f 15/16/10 16/15/10 18/13/10
f 2/18/10 4/17/10 18/13/10
f 17/20/10 14/19/10 18/13/10
f 20/22/11 22/51/11 21/23/11
f 21/25/12 22/50/12 24/26/12
f 23/23/13 24/51/13 26/22/13
f 26/26/14 20/50/14 19/25/14
f 19/25/15 27/39/15 30/28/15
f 30/29/16 34/70/16 33/30/16
f 23/27/17 29/53/17 28/32/17
f 21/23/18 28/37/18 27/33/18
f 23/23/19 25/24/19 30/29/19
f 34/34/20 31/49/20 35/35/20
f 28/37/21 32/71/21 31/38/21
f 27/39/22 31/52/22 34/40/22
f 28/32/23 29/53/23 33/41/23
f 36/43/24 37/72/24 38/44/24
f 33/46/25 37/48/25 36/36/25
f 34/34/26 38/36/26 37/48/26
f 31/49/27 32/47/27 36/36/27
f 41/23/11 42/51/11 40/22/11
f 41/25/28 43/27/28 44/26/28
f 43/23/13 45/24/13 46/22/13
f 39/25/29 40/50/29 46/26/29
f 50/28/30 47/39/30 39/25/30
f 53/30/31 54/70/31 50/29/31
f 48/32/32 49/53/32 43/27/32
f 47/33/18 48/37/18 41/23/18
f 49/31/19 50/29/19 45/24/19
f 54/34/33 58/36/33 55/35/33
f 51/38/34 52/71/34 48/37/34
f 50/28/35 54/40/35 51/52/35
f 52/42/36 53/41/36 49/53/36
f 58/44/37 57/72/37 56/43/37
f 56/36/38 57/48/38 53/46/38
f 57/48/39 58/36/39 54/34/39
f 51/49/40 55/35/40 56/36/40
f 61/23/41 62/51/41 60/22/41
f 61/25/12 63/27/12 64/26/12
f 63/23/42 65/24/42 66/22/42
f 59/25/14 60/50/14 66/26/14
f 70/28/15 67/39/15 59/25/15
f 73/30/43 74/70/43 70/29/43
f 68/32/17 69/53/17 63/27/17
f 67/33/44 68/37/44 61/23/44
f 69/31/45 70/29/45 65/24/45
f 74/34/46 78/36/46 75/35/46
f 71/38/47 72/71/47 68/37/47
f 70/28/48 74/40/48 71/52/48
f 72/42/49 73/41/49 69/53/49
f 78/44/50 77/72/50 76/43/50
f 76/36/51 77/48/51 73/46/51
f 77/48/52 78/36/52 74/34/52
f 71/49/53 75/35/53 76/36/53
f 80/22/41 82/51/41 81/23/41
f 81/25/28 82/50/28 84/26/28
f 83/23/42 84/51/42 86/22/42
f 86/26/29 80/50/29 79/25/29
f 79/25/30 87/39/30 90/28/30
f 90/29/54 94/70/54 93/30/54
f 83/27/32 89/53/32 88/32/32
f 81/23/44 88/37/44 87/33/44
f 83/23/45 85/24/45 90/29/45
f 94/34/55 91/49/55 95/35/55
f 88/37/56 92/71/56 91/38/56
f 87/39/57 91/52/57 94/40/57
f 88/32/58 89/53/58 93/41/58
f 96/43/59 97/72/59 98/44/59
f 93/46/60 97/48/60 96/36/60
f 94/34/61 98/36/61 97/48/61
f 91/49/62 92/47/62 96/36/62
f 100/54/63 102/60/63 101/55/63
f 102/57/64 104/65/64 103/58/64
f 104/60/65 106/54/65 105/56/65
f 106/54/66 108/66/66 107/61/66
f 100/62/9 106/67/9 104/63/9
f 108/65/67 110/57/67 109/59/67
f 110/66/68 100/54/68 99/56/68
f 106/67/9 100/62/9 110/68/9
f 99/62/10 101/64/10 103/63/10
f 105/67/10 107/69/10 109/68/10
