# Blender 4.3.0
# www.blender.org
mtllib DisplayCounter02.mtl
o DisplayCounter02
v -0.308750 1.300000 -0.325000
v 0.325000 0.650000 -0.325000
v 0.308750 0.975000 -0.325000
v -0.308750 0.975000 -0.325000
v 0.308750 0.650000 -0.325000
v 0.325000 0.000000 -0.325000
v 0.308750 1.625000 -0.325000
v 0.325000 0.000000 0.325000
v -0.325000 0.000000 0.325000
v -0.308750 1.625000 -0.325000
v -0.325000 0.000000 -0.325000
v 0.308750 1.300000 -0.325000
v -0.308750 1.300000 0.316875
v 0.308750 1.300000 0.316875
v -0.308750 1.625000 0.316875
v 0.308750 1.625000 0.316875
v -0.308750 0.975000 0.316875
v 0.308750 0.975000 0.316875
v 0.308750 1.315000 -0.325000
v 0.308750 1.315000 0.316875
v 0.308750 1.640000 0.316875
v 0.308750 1.640000 -0.325000
v -0.308750 1.315000 0.316875
v -0.308750 1.640000 0.316875
v -0.308750 0.990000 0.316875
v 0.308750 0.990000 0.316875
v 0.308750 0.990000 -0.325000
v -0.308750 1.315000 -0.325000
v -0.308750 1.640000 -0.325000
v -0.308750 0.990000 -0.325000
v -0.308750 0.650000 -0.325000
v -0.325000 1.950000 0.325000
v 0.325000 1.950000 0.325000
v -0.308750 1.933750 0.316875
v 0.308750 1.933750 0.316875
v 0.308750 1.933750 -0.325000
v 0.325000 1.950000 -0.325000
v -0.308750 1.933750 -0.325000
v -0.325000 1.950000 -0.325000
v -0.325000 0.650000 -0.325000
v 0.308750 0.650000 0.316875
v -0.308750 0.650000 0.316875
v 0.325000 0.650000 0.325000
v -0.325000 0.650000 0.325000
vn -0.0000 -0.0000 -1.0000
vn -0.0000 -0.0000 1.0000
vn -1.0000 -0.0000 -0.0000
vn 1.0000 -0.0000 -0.0000
vn -0.0000 1.0000 -0.0000
vn -0.0000 -1.0000 -0.0000
vt 0.000000 0.296875
vt 1.000000 0.089844
vt 0.000000 0.089844
vt 1.000000 0.503906
vt 1.000000 0.296875
vt 0.020833 0.593750
vt 0.979167 0.781250
vt 0.020833 0.781250
vt 0.979167 0.593750
vt 0.000000 0.789062
vt 1.000000 0.996094
vt 1.000000 0.789062
vt 0.208333 1.000000
vt 0.791667 0.781250
vt 0.208333 0.781250
vt 0.791667 1.000000
vt 0.250000 0.984375
vt 0.729167 0.980469
vt 0.270833 0.980469
vt 0.750000 0.796875
vt 0.729167 0.796875
vt 0.979167 0.800781
vt 0.020833 0.988281
vt 0.979167 0.988281
vt 0.250000 0.796875
vt 0.270833 0.796875
vt 0.000000 0.503906
vt 0.000000 0.996094
vt 0.750000 0.984375
vt 0.020833 0.800781
s 0
usemtl Primary
f 40/1/1 6/2/1 11/3/1
f 43/4/2 9/1/2 8/5/2
f 44/1/3 11/2/3 9/3/3
f 2/5/4 8/3/4 6/2/4
f 42/6/5 5/7/5 31/8/5
f 4/8/6 18/9/6 17/6/6
f 14/9/6 1/8/6 12/7/6
f 16/9/6 10/8/6 7/7/6
f 26/9/5 30/8/5 25/6/5
f 28/8/5 20/9/5 19/7/5
f 29/8/5 21/9/5 22/7/5
f 18/9/2 25/6/2 17/6/2
f 15/6/3 29/8/3 10/8/3
f 10/8/1 22/7/1 7/7/1
f 17/6/3 30/8/3 4/8/3
f 12/7/4 20/9/4 14/9/4
f 14/9/2 23/6/2 13/6/2
f 3/7/4 26/9/4 18/9/4
f 4/8/1 27/7/1 3/7/1
f 16/9/2 24/6/2 15/6/2
f 13/6/3 28/8/3 1/8/3
f 1/8/1 19/7/1 12/7/1
f 7/7/4 21/9/4 16/9/4
f 40/1/1 2/5/1 6/2/1
f 43/4/2 44/27/2 9/1/2
f 44/1/3 40/5/3 11/2/3
f 2/5/4 43/1/4 8/3/4
f 42/6/5 41/9/5 5/7/5
f 4/8/6 3/7/6 18/9/6
f 14/9/6 13/6/6 1/8/6
f 16/9/6 15/6/6 10/8/6
f 26/9/5 27/7/5 30/8/5
f 28/8/5 23/6/5 20/9/5
f 29/8/5 24/6/5 21/9/5
f 18/9/2 26/9/2 25/6/2
f 15/6/3 24/6/3 29/8/3
f 10/8/1 29/8/1 22/7/1
f 17/6/3 25/6/3 30/8/3
f 12/7/4 19/7/4 20/9/4
f 14/9/2 20/9/2 23/6/2
f 3/7/4 27/7/4 26/9/4
f 4/8/1 30/8/1 27/7/1
f 16/9/2 21/9/2 24/6/2
f 13/6/3 23/6/3 28/8/3
f 1/8/1 28/8/1 19/7/1
f 7/7/4 22/7/4 21/9/4
usemtl Secondary
f 32/10/5 37/11/5 39/12/5
f 35/13/3 5/14/3 41/15/3
f 38/16/4 42/15/4 31/14/4
f 39/17/1 36/18/1 38/19/1
f 40/14/3 32/13/3 39/16/3
f 43/15/4 37/16/4 33/13/4
f 44/15/2 33/16/2 32/13/2
f 36/18/1 2/20/1 5/21/1
f 35/22/6 38/23/6 36/24/6
f 40/25/1 38/19/1 31/26/1
f 34/13/1 41/14/1 42/15/1
f 32/10/5 33/28/5 37/11/5
f 35/13/3 36/16/3 5/14/3
f 38/16/4 34/13/4 42/15/4
f 39/17/1 37/29/1 36/18/1
f 40/14/3 44/15/3 32/13/3
f 43/15/4 2/14/4 37/16/4
f 44/15/2 43/14/2 33/16/2
f 36/18/1 37/29/1 2/20/1
f 35/22/6 34/30/6 38/23/6
f 40/25/1 39/17/1 38/19/1
f 34/13/1 35/16/1 41/14/1
