# Blender 4.3.0
# www.blender.org
mtllib DisplayCounter01.mtl
o DisplayCounter01
v -0.750000 0.000000 -0.375000
v -0.750000 0.000000 0.375000
v -0.750000 0.750000 0.375000
v 0.750000 0.000000 -0.375000
v 0.750000 0.000000 0.375000
v 0.750000 0.750000 0.375000
v -0.750000 1.125000 0.274519
v 0.750000 1.125000 0.274519
v -0.750000 1.399519 0.000000
v 0.750000 1.399519 0.000000
v -0.731250 0.768750 -0.375000
v -0.731250 1.481250 -0.375000
v 0.731250 0.768750 -0.375000
v 0.731250 1.481250 -0.375000
v -0.750000 0.750000 -0.375000
v -0.750000 1.500000 -0.375000
v 0.750000 1.500000 -0.375000
v 0.750000 0.750000 -0.375000
v -0.731250 0.766238 -0.365625
v -0.731250 1.383281 -0.009375
v 0.731250 1.383281 -0.009375
v 0.731250 0.766238 -0.365625
v -0.731250 0.759375 -0.358762
v -0.731250 1.115625 0.258281
v 0.731250 1.115625 0.258281
v 0.731250 0.759375 -0.358762
v -0.731250 0.750000 -0.356250
v -0.731250 0.750000 0.356250
v 0.731250 0.750000 0.356250
v 0.731250 0.750000 -0.356250
vn 1.0000 -0.0000 -0.0000
vn -0.0000 -0.0000 -1.0000
vn -1.0000 -0.0000 -0.0000
vn -0.0000 -0.0000 1.0000
vn -0.0000 1.0000 -0.0000
vn -0.0000 -0.2588 -0.9659
vn -0.0000 -0.7071 -0.7071
vn -0.0000 -0.9659 -0.2588
vn -0.0000 0.7071 0.7071
vn -0.0000 0.9659 0.2588
vn -0.0000 0.2588 0.9659
vt 1.000000 0.296875
vt 0.000000 0.089844
vt 1.000000 0.089844
vt 0.000000 0.503906
vt 0.000000 0.296875
vt 1.000000 0.593750
vt 0.000000 0.781250
vt 0.000000 0.593750
vt 1.000000 0.781250
vt 0.125000 0.875000
vt 0.500000 0.945312
vt 0.395833 1.000000
vt 0.687500 0.781250
vt 0.395833 0.781250
vt 1.000000 0.968750
vt 0.687500 1.000000
vt 0.895833 0.781250
vt 0.979167 0.882812
vt 0.020833 0.878906
vt 0.020833 0.882812
vt 0.104167 1.000000
vt 0.104167 0.781250
vt 0.020833 0.996094
vt 0.000000 0.906250
vt 0.020833 0.906250
vt 0.979167 0.996094
vt 0.000000 1.000000
vt 0.979167 0.906250
vt 1.000000 1.000000
vt 1.000000 0.882812
vt 0.916667 1.000000
vt 0.916667 0.781250
vt 1.000000 0.785156
vt 0.979167 0.785156
vt 0.145833 0.875000
vt 0.979167 0.781250
vt 0.979167 0.878906
vt 1.000000 0.503906
vt 0.895833 1.000000
vt 1.000000 0.906250
vt 0.000000 0.882812
s 0
usemtl Primary
f 15/1/1 2/2/1 1/3/1
f 3/4/2 5/1/2 2/5/2
f 6/5/3 4/3/3 5/2/3
f 18/1/4 1/2/4 4/3/4
f 6/6/5 15/7/5 3/8/5
f 18/9/3 8/10/3 10/11/3
f 3/12/6 8/13/6 6/14/6
f 18/9/3 6/7/3 8/10/3
f 3/7/1 15/9/1 7/10/1
f 18/9/3 10/11/3 17/15/3
f 7/10/1 15/9/1 9/11/1
f 7/16/7 10/17/7 8/13/7
f 13/18/8 19/19/8 11/20/8
f 9/11/1 15/9/1 16/15/1
f 9/21/8 17/14/8 10/22/8
f 12/23/4 15/24/4 11/25/4
f 14/26/4 16/27/4 12/23/4
f 13/28/4 17/29/4 14/26/4
f 11/20/4 18/30/4 13/18/4
f 20/31/9 25/13/9 21/32/9
f 12/12/10 21/22/10 14/14/10
f 14/15/1 22/33/1 13/33/1
f 12/15/3 19/34/3 20/11/3
f 25/35/1 30/36/1 26/34/1
f 22/33/1 25/35/1 26/34/1
f 19/34/3 24/10/3 20/11/3
f 22/37/7 23/19/7 19/19/7
f 24/10/3 27/36/3 28/7/3
f 26/18/6 27/20/6 23/20/6
f 24/16/11 29/14/11 25/13/11
f 15/1/1 3/5/1 2/2/1
f 3/4/2 6/38/2 5/1/2
f 6/5/3 18/1/3 4/3/3
f 18/1/4 15/5/4 1/2/4
f 6/6/5 18/9/5 15/7/5
f 3/12/6 7/16/6 8/13/6
f 7/16/7 9/39/7 10/17/7
f 13/18/8 22/37/8 19/19/8
f 9/21/8 16/12/8 17/14/8
f 12/23/4 16/27/4 15/24/4
f 14/26/4 17/29/4 16/27/4
f 13/28/4 18/40/4 17/29/4
f 11/20/4 15/41/4 18/30/4
f 20/31/9 24/16/9 25/13/9
f 12/12/10 20/21/10 21/22/10
f 14/15/1 21/11/1 22/33/1
f 12/15/3 11/33/3 19/34/3
f 25/35/1 29/7/1 30/36/1
f 22/33/1 21/11/1 25/35/1
f 19/34/3 23/34/3 24/10/3
f 22/37/7 26/37/7 23/19/7
f 24/10/3 23/34/3 27/36/3
f 26/18/6 30/18/6 27/20/6
f 24/16/11 28/12/11 29/14/11
