# Blender 4.3.0
# www.blender.org
mtllib SignBakery01.mtl
o SignBakery01
v -2.501609 -0.934227 0.025000
v -2.501609 0.934227 0.025000
v -2.501609 -0.934227 -0.025000
v -2.501609 0.934227 -0.025000
v 2.501609 -0.934227 0.025000
v 2.501609 0.934227 0.025000
v 2.501609 -0.934227 -0.025000
v 2.501609 0.934227 -0.025000
vn -1.0000 -0.0000 -0.0000
vn -0.0000 -0.0000 -1.0000
vn 1.0000 -0.0000 -0.0000
vn -0.0000 -0.0000 1.0000
vn -0.0000 -1.0000 -0.0000
vn -0.0000 1.0000 -0.0000
vt 0.640351 0.500000
vt 0.359649 0.484375
vt 0.359649 0.500000
vt 0.000000 0.488281
vt 1.000000 0.000000
vt 0.000000 0.000000
vt 0.640351 0.484375
vt 1.000000 1.000000
vt 0.000000 0.500000
vt 1.000000 0.500000
vt 0.000000 0.484375
vt 1.000000 0.484375
vt 1.000000 0.488281
vt 0.000000 1.000000
s 0
usemtl Primary
f 2/1/1 3/2/1 1/3/1
f 4/4/2 7/5/2 3/6/2
f 8/7/3 5/3/3 7/2/3
f 6/8/4 1/9/4 5/10/4
f 7/10/5 1/11/5 3/9/5
f 4/9/6 6/12/6 8/10/6
f 2/1/1 4/7/1 3/2/1
f 4/4/2 8/13/2 7/5/2
f 8/7/3 6/1/3 5/3/3
f 6/8/4 2/14/4 1/9/4
f 7/10/5 5/12/5 1/11/5
f 4/9/6 2/11/6 6/12/6
