# Blender 4.3.0
# www.blender.org
mtllib BasketWicker02.mtl
o BasketWicker02
v 0.143400 0.135000 -0.100800
v 0.119520 0.000000 -0.090000
v 0.143400 0.135000 0.100800
v 0.119520 0.000000 0.090000
v -0.143400 0.135000 -0.100800
v -0.119520 0.000000 -0.090000
v -0.143400 0.135000 0.100800
v -0.119520 0.000000 0.090000
v 0.149400 0.135000 0.108000
v -0.149400 0.135000 0.108000
v 0.149400 0.135000 -0.108000
v -0.149400 0.135000 -0.108000
v 0.114720 0.004500 0.084000
v -0.114720 0.004500 0.084000
v 0.114720 0.004500 -0.084000
v -0.114720 0.004500 -0.084000
vn 0.9767 0.2146 -0.0000
vn -0.0000 -0.1322 0.9912
vn -0.9764 -0.2161 -0.0000
vn -0.0000 -1.0000 -0.0000
vn 0.9764 -0.2161 -0.0000
vn -0.0000 -0.1322 -0.9912
vn -0.0000 1.0000 -0.0000
vn -0.0000 0.1277 -0.9918
vn -0.0000 0.1277 0.9918
vn -0.9767 0.2146 -0.0000
vt 0.150000 1.000000
vt 0.793750 -0.000000
vt 0.850000 1.000000
vt 1.000000 1.000000
vt 0.100000 -0.000000
vt 0.900000 -0.000000
vt 0.137500 1.000000
vt 0.800000 0.000000
vt 0.200000 0.000000
vt 0.893750 1.000000
vt 0.106250 0.000000
vt 0.106250 1.000000
vt 0.862500 1.000000
vt 0.000000 1.000000
vt 0.869980 0.741667
vt 0.625000 0.750000
vt 0.630020 0.741667
vt 0.625000 0.500000
vt 0.630020 0.508333
vt 0.869980 0.508333
vt 0.875000 0.750000
vt 0.875000 0.500000
vt 0.118750 0.968750
vt 0.881250 0.031250
vt 0.881250 0.968750
vt 0.206250 -0.000000
vt 0.893750 0.000000
vt 0.118750 0.031250
s 0
usemtl Primary
f 7/1/1 16/2/1 5/3/1
f 9/4/2 8/5/2 4/6/2
f 10/7/3 6/8/3 8/9/3
f 2/10/4 8/11/4 6/12/4
f 11/13/5 4/9/5 2/8/5
f 12/14/6 2/6/6 6/5/6
f 7/15/7 9/16/7 3/17/7
f 3/17/7 11/18/7 1/19/7
f 5/20/7 10/21/7 7/15/7
f 1/19/7 12/22/7 5/20/7
f 16/23/7 13/24/7 15/25/7
f 7/14/8 13/6/8 14/5/8
f 1/4/9 16/5/9 15/6/9
f 1/3/10 13/26/10 3/1/10
f 7/1/1 14/26/1 16/2/1
f 9/4/2 10/14/2 8/5/2
f 10/7/3 12/13/3 6/8/3
f 2/10/4 4/27/4 8/11/4
f 11/13/5 9/7/5 4/9/5
f 12/14/6 11/4/6 2/6/6
f 7/15/7 10/21/7 9/16/7
f 3/17/7 9/16/7 11/18/7
f 5/20/7 12/22/7 10/21/7
f 1/19/7 11/18/7 12/22/7
f 16/23/7 14/28/7 13/24/7
f 7/14/8 3/4/8 13/6/8
f 1/4/9 5/14/9 16/5/9
f 1/3/10 15/2/10 13/26/10
