# Blender 4.3.0
# www.blender.org
mtllib BreadKnife01.mtl
o BreadKnife01
v 0.843005 -0.171200 0.061533
v 0.793782 0.174063 0.061533
v 0.843005 -0.171200 -0.061533
v 0.793782 0.174063 -0.061533
v 2.465826 -0.171200 0.061533
v 2.405665 0.174063 0.061533
v 2.465826 -0.171200 -0.061533
v 2.405665 0.174063 -0.061533
v 1.089857 -0.123172 -0.061533
v 1.089857 0.174063 -0.061533
v 1.089857 -0.123172 0.061533
v 1.089857 0.174063 0.061533
v 1.677653 0.174063 -0.061533
v 1.677653 -0.171200 0.061533
v 1.677653 -0.171200 -0.061533
v 1.677653 0.174063 0.061533
v 2.156327 0.174063 -0.061533
v 2.156327 -0.113875 0.061533
v 2.156327 -0.113875 -0.061533
v 2.156327 0.174063 0.061533
v -1.363942 -0.203355 0.000000
v -1.363942 0.202837 0.000000
v -1.363942 -0.203355 0.000000
v -1.363942 0.202837 0.000000
v 0.799312 -0.203355 0.000000
v 0.799312 0.202837 0.000000
v 0.799312 -0.203355 0.000000
v 0.799312 0.202837 0.000000
v -1.363942 -0.000259 0.016486
v -1.363942 0.001431 -0.016486
v 0.799312 0.001431 -0.016486
v 0.799312 -0.000259 0.016486
v -1.867707 -0.145786 -0.000000
v -1.867707 0.155818 -0.000000
v -1.867707 -0.145786 -0.000000
v -1.867707 0.155818 -0.000000
v -1.867707 0.005016 0.012241
v -1.867707 0.005016 -0.012241
v -2.302897 -0.062994 -0.000000
v -2.302897 0.083577 -0.000000
v -2.302897 -0.062994 -0.000000
v -2.302897 0.083577 -0.000000
v -2.302897 0.010291 0.005949
v -2.302897 0.010291 -0.005949
v -2.505986 0.018204 0.000000
v 1.089857 0.202837 0.000000
v 2.438426 0.202837 0.000000
v 2.498586 -0.203355 0.000000
v 0.750090 0.202837 0.000000
v 0.799312 -0.203355 0.000000
v 1.089857 -0.146851 0.000000
v 1.677653 0.202837 0.000000
v 1.677653 -0.203355 0.000000
v 2.156327 0.202837 0.000000
v 2.156327 -0.135913 0.000000
vn -0.7819 -0.1115 -0.6134
vn -0.0000 -0.0000 -1.0000
vn 0.9020 0.1336 0.4104
vn -0.0000 -0.0000 1.0000
vn -0.1718 -0.9274 0.3322
vn -0.0000 0.9058 0.4236
vn 0.1786 -0.9184 0.3531
vn -0.0760 -0.9306 0.3581
vn 0.1239 -0.8795 0.4596
vn -0.0090 -0.0809 -0.9967
vn -0.0000 0.0816 -0.9967
vn 1.0000 -0.0000 -0.0000
vn -0.0000 0.0809 0.9967
vn -0.0000 1.0000 -0.0000
vn -0.0000 -0.0809 0.9967
vn -0.0000 -0.0802 -0.9968
vn -0.0092 -0.0809 0.9967
vn -0.0076 0.0809 0.9967
vn -0.0076 0.0816 -0.9966
vn -0.0323 -0.0809 0.9962
vn -0.0260 0.0809 0.9964
vn -0.0134 0.0809 -0.9966
vn -0.0154 -0.0809 -0.9966
vn -0.0134 0.0809 0.9966
vn -0.0154 -0.0809 0.9966
vn -0.0760 -0.9306 -0.3581
vn -0.0000 0.9058 -0.4236
vn -0.0260 0.0809 -0.9964
vn -0.0323 -0.0809 -0.9962
vn 0.1239 -0.8795 -0.4596
vn 0.1786 -0.9184 -0.3531
vn -0.1718 -0.9274 -0.3322
vn 0.9020 0.1336 -0.4104
vn -0.7819 -0.1115 0.6134
vn -0.8329 -0.1009 -0.5442
vn 0.8430 0.1469 0.5175
vn -0.1789 -0.9079 0.3792
vn 0.1787 -0.9183 0.3534
vn -0.0849 -0.8831 0.4615
vn 0.1120 -0.9355 0.3351
vn -0.0092 -0.0802 -0.9967
vn -0.0078 0.0809 -0.9967
vn -0.0849 -0.8831 -0.4615
vn 0.1120 -0.9355 -0.3351
vn 0.1787 -0.9183 -0.3534
vn -0.1789 -0.9079 -0.3792
vn 0.8430 0.1469 -0.5175
vn -0.8329 -0.1009 0.5442
vt 0.666667 0.125000
vt 0.679688 0.937500
vt 0.679688 0.187500
vt 0.934896 0.343750
vt 0.979167 0.937500
vt 0.989583 0.218750
vt 0.677083 1.000000
vt 0.664062 0.187500
vt 0.677083 0.125000
vt 0.710938 0.468750
vt 0.658854 1.000000
vt 0.664062 0.125000
vt 0.937500 0.875000
vt 0.989583 1.000000
vt 0.937500 1.000000
vt 0.718750 0.875000
vt 0.666667 1.000000
vt 0.718750 1.000000
vt 0.833333 1.000000
vt 0.833333 0.875000
vt 0.723958 0.875000
vt 0.671875 1.000000
vt 0.661458 0.875000
vt 0.833333 0.250000
vt 0.927083 1.000000
vt 0.927083 0.875000
vt 0.841146 1.000000
vt 0.723958 1.000000
vt 0.979167 1.000000
vt 0.992188 0.875000
vt 0.841146 0.875000
vt 0.500000 0.250000
vt 0.375000 0.250000
vt 0.625000 0.250000
vt 0.500000 0.500000
vt 0.625000 0.750000
vt 0.500000 0.750000
vt 0.648438 1.000000
vt 0.250000 0.500000
vt 0.653646 0.500000
vt 0.125000 0.500000
vt 0.375000 0.750000
vt 0.125000 0.750000
vt 0.625000 0.500000
vt 0.875000 0.750000
vt 0.658854 0.000000
vt 0.250000 0.000000
vt 0.375000 0.500000
vt 0.875000 0.500000
vt 0.164062 0.125000
vt 0.164062 0.937500
vt 0.164062 0.531250
vt 0.065104 0.281250
vt 0.065104 0.562500
vt -0.000000 0.562500
vt 0.065104 0.781250
vt 0.934896 1.000000
vt 0.664062 0.937500
vt 0.710938 1.000000
vt 1.000000 0.875000
vt 0.653646 0.875000
vt 0.250000 1.000000
s 0
usemtl Primary
f 50/1/1 4/2/1 3/3/1
f 19/4/2 8/5/2 7/6/2
f 47/7/3 5/8/3 48/9/3
f 11/10/4 2/11/4 1/12/4
f 55/13/5 5/14/5 18/15/5
f 46/16/6 2/17/6 12/18/6
f 46/16/6 16/19/6 52/20/6
f 51/21/7 1/22/7 50/23/7
f 16/19/4 11/10/4 14/24/4
f 4/11/2 9/10/2 3/12/2
f 18/4/4 16/19/4 14/24/4
f 52/20/6 20/25/6 54/26/6
f 51/21/8 14/27/8 11/28/8
f 9/10/2 13/19/2 15/24/2
f 54/26/6 6/29/6 47/30/6
f 6/5/4 18/4/4 5/6/4
f 55/13/9 14/27/9 53/31/9
f 13/19/2 19/4/2 15/24/2
f 30/32/10 35/33/10 38/32/10
f 24/34/11 31/35/11 30/32/11
f 31/35/12 26/36/12 32/37/12
f 26/38/13 29/39/13 32/40/13
f 23/41/14 25/42/14 21/43/14
f 28/44/14 22/45/14 26/36/14
f 25/46/15 29/39/15 21/47/15
f 27/48/14 32/37/14 25/42/14
f 30/32/16 27/48/16 23/33/16
f 23/41/14 33/43/14 35/41/14
f 35/41/14 39/43/14 41/41/14
f 34/45/14 42/49/14 40/45/14
f 29/39/17 33/50/17 21/47/17
f 29/39/18 34/51/18 37/52/18
f 30/32/19 36/34/19 24/34/19
f 22/45/14 36/49/14 34/45/14
f 39/53/20 43/54/20 45/55/20
f 43/54/21 40/56/21 45/55/21
f 38/32/22 42/34/22 36/34/22
f 38/32/23 41/33/23 44/32/23
f 37/52/24 40/56/24 43/54/24
f 37/52/25 39/53/25 33/50/25
f 15/27/26 51/21/26 9/28/26
f 8/29/27 54/26/27 47/30/27
f 40/45/14 42/49/14 45/45/14
f 41/41/14 39/43/14 45/41/14
f 42/34/28 44/32/28 45/34/28
f 44/32/29 41/33/29 45/32/29
f 15/27/30 55/13/30 53/31/30
f 13/19/27 54/26/27 17/25/27
f 3/22/31 51/21/31 50/23/31
f 10/18/27 52/20/27 13/19/27
f 4/17/27 46/16/27 10/18/27
f 7/14/32 55/13/32 19/15/32
f 7/8/33 47/7/33 48/9/33
f 2/2/34 50/1/34 1/3/34
f 50/1/35 49/17/35 4/2/35
f 19/4/2 17/57/2 8/5/2
f 47/7/36 6/58/36 5/8/36
f 11/10/4 12/59/4 2/11/4
f 55/13/37 48/60/37 5/14/37
f 46/16/6 49/61/6 2/17/6
f 46/16/6 12/18/6 16/19/6
f 51/21/38 11/28/38 1/22/38
f 16/19/4 12/59/4 11/10/4
f 4/11/2 10/59/2 9/10/2
f 18/4/4 20/57/4 16/19/4
f 52/20/6 16/19/6 20/25/6
f 51/21/39 53/31/39 14/27/39
f 9/10/2 10/59/2 13/19/2
f 54/26/6 20/25/6 6/29/6
f 6/5/4 20/57/4 18/4/4
f 55/13/40 18/15/40 14/27/40
f 13/19/2 17/57/2 19/4/2
f 30/32/41 23/33/41 35/33/41
f 24/34/11 28/44/11 31/35/11
f 31/35/14 28/44/14 26/36/14
f 26/38/13 22/62/13 29/39/13
f 23/41/14 27/48/14 25/42/14
f 28/44/14 24/49/14 22/45/14
f 25/46/15 32/40/15 29/39/15
f 27/48/12 31/35/12 32/37/12
f 30/32/16 31/35/16 27/48/16
f 23/41/14 21/43/14 33/43/14
f 35/41/14 33/43/14 39/43/14
f 34/45/14 36/49/14 42/49/14
f 29/39/17 37/52/17 33/50/17
f 29/39/18 22/62/18 34/51/18
f 30/32/42 38/32/42 36/34/42
f 22/45/14 24/49/14 36/49/14
f 38/32/22 44/32/22 42/34/22
f 38/32/23 35/33/23 41/33/23
f 37/52/24 34/51/24 40/56/24
f 37/52/25 43/54/25 39/53/25
f 15/27/43 53/31/43 51/21/43
f 8/29/27 17/25/27 54/26/27
f 15/27/44 19/15/44 55/13/44
f 13/19/27 52/20/27 54/26/27
f 3/22/45 9/28/45 51/21/45
f 10/18/27 46/16/27 52/20/27
f 4/17/27 49/61/27 46/16/27
f 7/14/46 48/60/46 55/13/46
f 7/8/47 8/58/47 47/7/47
f 2/2/48 49/17/48 50/1/48
