# Blender 4.3.0
# www.blender.org
mtllib Sign10.mtl
o Sign07
v -0.020000 3.042099 -0.020000
v -0.020000 0.000000 -0.020000
v -0.020000 3.042099 0.020000
v -0.020000 0.000000 0.020000
v 0.020000 0.000000 0.020000
v 0.020000 3.042099 0.020000
v 0.020000 0.000000 -0.020000
v 0.020000 3.042099 -0.020000
v 0.406875 1.993125 0.020000
v -0.406875 1.993125 0.020000
v 0.406875 1.993125 0.050000
v -0.406875 1.993125 0.050000
v 0.406875 3.193125 0.020000
v -0.406875 3.193125 0.020000
v 0.406875 3.193125 0.050000
v -0.406875 3.193125 0.050000
vn -0.0000 -0.0000 1.0000
vn 1.0000 -0.0000 -0.0000
vn -0.0000 -0.0000 -1.0000
vn -1.0000 -0.0000 -0.0000
vn -0.0000 1.0000 -0.0000
vn -0.0000 -1.0000 -0.0000
vt 0.739583 0.920635
vt 0.760417 0.000000
vt 0.739583 0.000000
vt 0.760417 0.920635
vt 0.739583 0.888889
vt 0.625000 0.656250
vt 0.604167 0.000000
vt 0.625000 0.000000
vt 0.604167 0.656250
vt 0.500000 1.000000
vt 0.000000 0.500000
vt 0.500000 0.500000
vt 0.625000 0.812500
vt 0.588542 1.000000
vt 0.911458 0.373016
vt 0.588542 0.373016
vt 0.760417 0.888889
vt 0.000000 1.000000
vt 0.604167 0.812500
vt 0.911458 1.000000
s 0
usemtl Sign07
f 6/1/1 4/2/1 5/3/1
f 8/1/2 5/2/2 7/3/2
f 1/4/3 7/3/3 2/2/3
f 3/1/4 2/2/4 4/3/4
f 1/4/5 6/5/5 8/1/5
f 13/6/2 11/7/2 9/8/2
f 10/7/4 16/6/4 14/9/4
f 11/10/1 16/11/1 12/12/1
f 9/13/6 12/7/6 10/8/6
f 14/14/3 9/15/3 10/16/3
f 15/13/5 14/7/5 16/8/5
f 6/1/1 3/4/1 4/2/1
f 8/1/2 6/4/2 5/2/2
f 1/4/3 8/1/3 7/3/3
f 3/1/4 1/4/4 2/2/4
f 1/4/5 3/17/5 6/5/5
f 13/6/2 15/9/2 11/7/2
f 10/7/4 12/8/4 16/6/4
f 11/10/1 15/18/1 16/11/1
f 9/13/6 11/19/6 12/7/6
f 14/14/3 13/20/3 9/15/3
f 15/13/5 13/19/5 14/7/5
