# This file was created with Minddesk Qubicle 3.0
# Get Qubicle at www.getqubicle.com

mtllib ExtractorFan1_Body.mtl

vn 0.0 0.0 1.0
vn 0.0 0.0 -1.0
vn -1.0 0.0 0.0
vn 1.0 0.0 0.0
vn 0.0 1.0 0.0
vn 0.0 -1.0 0.0

v 0.44100 0.63000 -0.50400
v 0.44100 0.00000 -0.50400
v -0.44100 0.00000 -0.50400
v -0.44100 0.63000 -0.50400
v -0.44100 0.63000 -0.44100
v -0.44100 0.00000 -0.44100
v -0.50400 0.00000 -0.44100
v -0.50400 0.63000 -0.44100
v 0.50400 0.63000 -0.44100
v 0.50400 0.00000 -0.44100
v 0.44100 0.00000 -0.44100
v 0.44100 0.63000 -0.44100
v 0.37800 0.69300 0.44100
v 0.37800 0.44100 0.44100
v -0.37800 0.44100 0.44100
v -0.37800 0.69300 0.44100
v -0.37800 0.69300 0.37800
v -0.37800 0.44100 0.37800
v -0.44100 0.44100 0.37800
v -0.44100 0.69300 0.37800
v 0.44100 0.69300 0.37800
v 0.44100 0.44100 0.37800
v 0.37800 0.44100 0.37800
v 0.37800 0.69300 0.37800
v 0.50400 0.69300 -0.50400
v 0.50400 0.63000 -0.50400
v -0.50400 0.63000 -0.50400
v -0.50400 0.69300 -0.50400
v 0.44100 0.69300 -0.31500
v 0.44100 0.63000 -0.31500
v -0.44100 0.63000 -0.31500
v -0.44100 0.69300 -0.31500
v 0.44100 0.69300 -0.12600
v 0.44100 0.63000 -0.12600
v -0.44100 0.63000 -0.12600
v -0.44100 0.69300 -0.12600
v 0.44100 0.69300 0.06300
v 0.44100 0.63000 0.06300
v -0.44100 0.63000 0.06300
v -0.44100 0.69300 0.06300
v 0.44100 0.69300 0.25200
v 0.44100 0.63000 0.25200
v -0.44100 0.63000 0.25200
v -0.44100 0.69300 0.25200
v -0.37800 0.75600 -0.50400
v -0.37800 0.69300 -0.50400
v -0.50400 0.75600 -0.50400
v 0.50400 0.75600 -0.50400
v 0.37800 0.69300 -0.50400
v 0.37800 0.75600 -0.50400
v -0.37800 0.75600 0.37800
v -0.50400 0.69300 0.37800
v -0.50400 0.75600 0.37800
v 0.50400 0.75600 0.37800
v 0.50400 0.69300 0.37800
v 0.37800 0.75600 0.37800
v -0.44100 0.63000 0.50400
v -0.44100 0.00000 0.50400
v 0.44100 0.00000 0.50400
v 0.44100 0.63000 0.50400
v -0.50400 0.63000 0.44100
v -0.50400 0.00000 0.44100
v -0.44100 0.00000 0.44100
v -0.44100 0.63000 0.44100
v 0.44100 0.63000 0.44100
v 0.44100 0.00000 0.44100
v 0.50400 0.00000 0.44100
v 0.50400 0.63000 0.44100
v -0.37800 0.69300 -0.44100
v -0.37800 0.44100 -0.44100
v 0.37800 0.44100 -0.44100
v 0.37800 0.69300 -0.44100
v -0.44100 0.69300 -0.37800
v -0.44100 0.44100 -0.37800
v -0.37800 0.44100 -0.37800
v -0.37800 0.69300 -0.37800
v 0.37800 0.69300 -0.37800
v 0.37800 0.44100 -0.37800
v 0.44100 0.44100 -0.37800
v 0.44100 0.69300 -0.37800
v -0.44100 0.69300 -0.25200
v -0.44100 0.63000 -0.25200
v 0.44100 0.63000 -0.25200
v 0.44100 0.69300 -0.25200
v -0.44100 0.69300 -0.06300
v -0.44100 0.63000 -0.06300
v 0.44100 0.63000 -0.06300
v 0.44100 0.69300 -0.06300
v -0.44100 0.69300 0.12600
v -0.44100 0.63000 0.12600
v 0.44100 0.63000 0.12600
v 0.44100 0.69300 0.12600
v -0.44100 0.69300 0.31500
v -0.44100 0.63000 0.31500
v 0.44100 0.63000 0.31500
v 0.44100 0.69300 0.31500
v -0.50400 0.69300 0.50400
v -0.50400 0.63000 0.50400
v 0.50400 0.63000 0.50400
v 0.50400 0.69300 0.50400
v -0.50400 0.75600 -0.37800
v -0.50400 0.69300 -0.37800
v -0.37800 0.75600 -0.37800
v 0.37800 0.75600 -0.37800
v 0.50400 0.69300 -0.37800
v 0.50400 0.75600 -0.37800
v -0.50400 0.75600 0.50400
v -0.37800 0.69300 0.50400
v -0.37800 0.75600 0.50400
v 0.37800 0.75600 0.50400
v 0.37800 0.69300 0.50400
v 0.50400 0.75600 0.50400
v 0.44100 0.63000 -0.37800
v 0.44100 0.63000 0.37800
v -0.44100 0.63000 0.37800
v -0.44100 0.63000 -0.37800
v -0.50400 0.69300 -0.25200
v -0.50400 0.69300 -0.12600
v 0.50400 0.69300 -0.12600
v 0.50400 0.69300 -0.25200
v -0.50400 0.69300 -0.06300
v -0.50400 0.69300 0.06300
v 0.50400 0.69300 0.06300
v 0.50400 0.69300 -0.06300
v -0.50400 0.69300 0.12600
v -0.50400 0.69300 0.25200
v 0.50400 0.69300 0.25200
v 0.50400 0.69300 0.12600
v -0.50400 0.69300 -0.31500
v 0.50400 0.69300 -0.31500
v -0.50400 0.69300 0.31500
v 0.50400 0.69300 0.31500

vt 0.00781 0.23438
vt 0.00781 0.01563
vt 0.13281 0.01563
vt 0.13281 0.23438
vt 0.14844 0.20313
vt 0.14844 0.01563
vt 0.25781 0.01563
vt 0.25781 0.20313
vt 0.27344 0.17188
vt 0.27344 0.01563
vt 0.38281 0.01563
vt 0.38281 0.17188
vt 0.39844 0.17188
vt 0.39844 0.01563
vt 0.50781 0.01563
vt 0.50781 0.17188
vt 0.52344 0.17188
vt 0.52344 0.01563
vt 0.63281 0.01563
vt 0.63281 0.17188
vt 0.64844 0.17188
vt 0.64844 0.01563
vt 0.75781 0.01563
vt 0.75781 0.17188
vt 0.77344 0.17188
vt 0.77344 0.01563
vt 0.78125 0.01563
vt 0.78125 0.17188
vt 0.79688 0.17188
vt 0.79688 0.01563
vt 0.80469 0.01563
vt 0.80469 0.17188
vt 0.82031 0.17188
vt 0.82031 0.01563
vt 0.82813 0.01563
vt 0.82813 0.17188
vt 0.84375 0.17188
vt 0.84375 0.01563
vt 0.85156 0.01563
vt 0.85156 0.17188
vt 0.86719 0.17188
vt 0.86719 0.01563
vt 0.87500 0.01563
vt 0.87500 0.17188
vt 0.89063 0.17188
vt 0.89063 0.01563
vt 0.89844 0.01563
vt 0.89844 0.17188
vt 0.91406 0.17188
vt 0.91406 0.01563
vt 0.92188 0.01563
vt 0.92188 0.17188
vt 0.93750 0.17188
vt 0.93750 0.01563
vt 0.94531 0.01563
vt 0.94531 0.17188
vt 0.00781 0.32813
vt 0.00781 0.26563
vt 0.10156 0.26563
vt 0.10156 0.32813
vt 0.11719 0.32813
vt 0.11719 0.26563
vt 0.21094 0.26563
vt 0.21094 0.32813
vt 0.96094 0.07813
vt 0.96094 0.01563
vt 0.96875 0.01563
vt 0.96875 0.07813
vt 0.98438 0.07813
vt 0.98438 0.01563
vt 0.99219 0.01563
vt 0.99219 0.07813
vt 0.96094 0.17188
vt 0.96094 0.10938
vt 0.96875 0.10938
vt 0.96875 0.17188
vt 0.98438 0.17188
vt 0.98438 0.10938
vt 0.99219 0.10938
vt 0.99219 0.17188
vt 0.22656 0.32813
vt 0.22656 0.26563
vt 0.23438 0.26563
vt 0.23438 0.32813
vt 0.25000 0.32813
vt 0.25000 0.26563
vt 0.25781 0.26563
vt 0.25781 0.32813
vt 0.27344 0.32813
vt 0.27344 0.26563
vt 0.28125 0.26563
vt 0.28125 0.32813
vt 0.29688 0.32813
vt 0.29688 0.26563
vt 0.30469 0.26563
vt 0.30469 0.32813
vt 0.32031 0.31250
vt 0.32031 0.26563
vt 0.41406 0.26563
vt 0.41406 0.31250
vt 0.42969 0.31250
vt 0.42969 0.26563
vt 0.52344 0.26563
vt 0.52344 0.31250
vt 0.53906 0.29688
vt 0.53906 0.26563
vt 0.55469 0.26563
vt 0.55469 0.29688
vt 0.57031 0.29688
vt 0.57031 0.26563
vt 0.58594 0.26563
vt 0.58594 0.29688
vt 0.60156 0.29688
vt 0.60156 0.26563
vt 0.61719 0.26563
vt 0.61719 0.29688
vt 0.63281 0.29688
vt 0.63281 0.26563
vt 0.64844 0.26563
vt 0.64844 0.29688
vt 0.66406 0.29688
vt 0.66406 0.26563
vt 0.67188 0.26563
vt 0.67188 0.29688
vt 0.68750 0.29688
vt 0.68750 0.26563
vt 0.69531 0.26563
vt 0.69531 0.29688
vt 0.71094 0.29688
vt 0.71094 0.26563
vt 0.71875 0.26563
vt 0.71875 0.29688
vt 0.73438 0.29688
vt 0.73438 0.26563
vt 0.74219 0.26563
vt 0.74219 0.29688
vt 0.75781 0.29688
vt 0.75781 0.26563
vt 0.76563 0.26563
vt 0.76563 0.29688
vt 0.78125 0.29688
vt 0.78125 0.26563
vt 0.78906 0.26563
vt 0.78906 0.29688
vt 0.80469 0.28125
vt 0.80469 0.26563
vt 0.92969 0.26563
vt 0.92969 0.28125
vt 0.00781 0.37500
vt 0.00781 0.35938
vt 0.13281 0.35938
vt 0.13281 0.37500
vt 0.14844 0.37500
vt 0.14844 0.35938
vt 0.27344 0.35938
vt 0.27344 0.37500
vt 0.28906 0.37500
vt 0.28906 0.35938
vt 0.41406 0.35938
vt 0.41406 0.37500
vt 0.42969 0.37500
vt 0.42969 0.35938
vt 0.55469 0.35938
vt 0.55469 0.37500
vt 0.57031 0.37500
vt 0.57031 0.35938
vt 0.69531 0.35938
vt 0.69531 0.37500
vt 0.71094 0.37500
vt 0.71094 0.35938
vt 0.83594 0.35938
vt 0.83594 0.37500
vt 0.85156 0.37500
vt 0.85156 0.35938
vt 0.97656 0.35938
vt 0.97656 0.37500
vt 0.00781 0.42188
vt 0.00781 0.40625
vt 0.11719 0.40625
vt 0.11719 0.42188
vt 0.13281 0.42188
vt 0.13281 0.40625
vt 0.24219 0.40625
vt 0.24219 0.42188
vt 0.25781 0.42188
vt 0.25781 0.40625
vt 0.36719 0.40625
vt 0.36719 0.42188
vt 0.38281 0.42188
vt 0.38281 0.40625
vt 0.49219 0.40625
vt 0.49219 0.42188
vt 0.50781 0.42188
vt 0.50781 0.40625
vt 0.61719 0.40625
vt 0.61719 0.42188
vt 0.63281 0.42188
vt 0.63281 0.40625
vt 0.74219 0.40625
vt 0.74219 0.42188
vt 0.75781 0.42188
vt 0.75781 0.40625
vt 0.86719 0.40625
vt 0.86719 0.42188
vt 0.88281 0.42188
vt 0.88281 0.40625
vt 0.99219 0.40625
vt 0.99219 0.42188
vt 0.00781 0.46875
vt 0.00781 0.45313
vt 0.11719 0.45313
vt 0.11719 0.46875
vt 0.13281 0.46875
vt 0.13281 0.45313
vt 0.24219 0.45313
vt 0.24219 0.46875
vt 0.25781 0.46875
vt 0.25781 0.45313
vt 0.36719 0.45313
vt 0.36719 0.46875
vt 0.38281 0.46875
vt 0.38281 0.45313
vt 0.49219 0.45313
vt 0.49219 0.46875
vt 0.50781 0.46875
vt 0.50781 0.45313
vt 0.61719 0.45313
vt 0.61719 0.46875
vt 0.63281 0.46875
vt 0.63281 0.45313
vt 0.74219 0.45313
vt 0.74219 0.46875
vt 0.75781 0.46875
vt 0.75781 0.45313
vt 0.85156 0.45313
vt 0.85156 0.46875
vt 0.86719 0.46875
vt 0.86719 0.45313
vt 0.96094 0.45313
vt 0.96094 0.46875
vt 0.00781 0.51563
vt 0.00781 0.50000
vt 0.10156 0.50000
vt 0.10156 0.51563
vt 0.11719 0.51563
vt 0.11719 0.50000
vt 0.21094 0.50000
vt 0.21094 0.51563
vt 0.94531 0.28125
vt 0.94531 0.26563
vt 0.96094 0.26563
vt 0.96094 0.28125
vt 0.97656 0.28125
vt 0.97656 0.26563
vt 0.99219 0.26563
vt 0.99219 0.28125
vt 0.97656 0.46875
vt 0.97656 0.45313
vt 0.99219 0.45313
vt 0.99219 0.46875
vt 0.22656 0.51563
vt 0.22656 0.50000
vt 0.24219 0.50000
vt 0.24219 0.51563
vt 0.25781 0.51563
vt 0.25781 0.50000
vt 0.27344 0.50000
vt 0.27344 0.51563
vt 0.28906 0.51563
vt 0.28906 0.50000
vt 0.30469 0.50000
vt 0.30469 0.51563
vt 0.32031 0.51563
vt 0.32031 0.50000
vt 0.33594 0.50000
vt 0.33594 0.51563
vt 0.35156 0.51563
vt 0.35156 0.50000
vt 0.36719 0.50000
vt 0.36719 0.51563
vt 0.38281 0.51563
vt 0.38281 0.50000
vt 0.39844 0.50000
vt 0.39844 0.51563
vt 0.41406 0.51563
vt 0.41406 0.50000
vt 0.42969 0.50000
vt 0.42969 0.51563
vt 0.44531 0.51563
vt 0.44531 0.50000
vt 0.46094 0.50000
vt 0.46094 0.51563
vt 0.47656 0.51563
vt 0.47656 0.50000
vt 0.49219 0.50000
vt 0.49219 0.51563
vt 0.50781 0.51563
vt 0.50781 0.50000
vt 0.52344 0.50000
vt 0.52344 0.51563
vt 0.53906 0.51563
vt 0.53906 0.50000
vt 0.55469 0.50000
vt 0.55469 0.51563
vt 0.57031 0.51563
vt 0.57031 0.50000
vt 0.58594 0.50000
vt 0.58594 0.51563
vt 0.60156 0.51563
vt 0.60156 0.50000
vt 0.61719 0.50000
vt 0.61719 0.51563
vt 0.63281 0.51563
vt 0.63281 0.50000
vt 0.64844 0.50000
vt 0.64844 0.51563
vt 0.66406 0.51563
vt 0.66406 0.50000
vt 0.67969 0.50000
vt 0.67969 0.51563
vt 0.69531 0.51563
vt 0.69531 0.50000
vt 0.71094 0.50000
vt 0.71094 0.51563
vt 0.72656 0.51563
vt 0.72656 0.50000
vt 0.74219 0.50000
vt 0.74219 0.51563
vt 0.75781 0.51563
vt 0.75781 0.50000
vt 0.77344 0.50000
vt 0.77344 0.51563
vt 0.78906 0.51563
vt 0.78906 0.50000
vt 0.80469 0.50000
vt 0.80469 0.51563
vt 0.82031 0.51563
vt 0.82031 0.50000
vt 0.82813 0.50000
vt 0.82813 0.51563
vt 0.84375 0.51563
vt 0.84375 0.50000
vt 0.85156 0.50000
vt 0.85156 0.51563
vt 0.86719 0.51563
vt 0.86719 0.50000
vt 0.87500 0.50000
vt 0.87500 0.51563
vt 0.89063 0.51563
vt 0.89063 0.50000
vt 0.89844 0.50000
vt 0.89844 0.51563
vt 0.91406 0.51563
vt 0.91406 0.50000
vt 0.92188 0.50000
vt 0.92188 0.51563
vt 0.93750 0.51563
vt 0.93750 0.50000
vt 0.94531 0.50000
vt 0.94531 0.51563
vt 0.96094 0.51563
vt 0.96094 0.50000
vt 0.96875 0.50000
vt 0.96875 0.51563
vt 0.98438 0.51563
vt 0.98438 0.50000
vt 0.99219 0.50000
vt 0.99219 0.51563
vt 0.00781 0.56250
vt 0.00781 0.54688
vt 0.01563 0.54688
vt 0.01563 0.56250
vt 0.03125 0.56250
vt 0.03125 0.54688
vt 0.03906 0.54688
vt 0.03906 0.56250
vt 0.05469 0.56250
vt 0.05469 0.54688
vt 0.06250 0.54688
vt 0.06250 0.56250
vt 0.07813 0.56250
vt 0.07813 0.54688
vt 0.08594 0.54688
vt 0.08594 0.56250

g ExtractorFan1_Body
usemtl ExtractorFan1_Body_Material
f 1/17/2 2/18/2 3/19/2 4/20/2
f 5/41/2 6/42/2 7/43/2 8/44/2
f 9/37/2 10/38/2 11/39/2 12/40/2
f 13/61/2 14/62/2 15/63/2 16/64/2
f 17/77/2 18/78/2 19/79/2 20/80/2
f 21/81/2 22/82/2 23/83/2 24/84/2
f 25/165/2 26/166/2 27/167/2 28/168/2
f 29/209/2 30/210/2 31/211/2 32/212/2
f 33/213/2 34/214/2 35/215/2 36/216/2
f 37/201/2 38/202/2 39/203/2 40/204/2
f 41/205/2 42/206/2 43/207/2 44/208/2
f 45/261/2 46/262/2 28/263/2 47/264/2
f 48/257/2 25/258/2 49/259/2 50/260/2
f 51/269/2 17/270/2 52/271/2 53/272/2
f 54/265/2 55/266/2 24/267/2 56/268/2
f 57/13/1 58/14/1 59/15/1 60/16/1
f 61/45/1 62/46/1 63/47/1 64/48/1
f 65/53/1 66/54/1 67/55/1 68/56/1
f 69/57/1 70/58/1 71/59/1 72/60/1
f 73/85/1 74/86/1 75/87/1 76/88/1
f 77/73/1 78/74/1 79/75/1 80/76/1
f 81/193/1 82/194/1 83/195/1 84/196/1
f 85/197/1 86/198/1 87/199/1 88/200/1
f 89/185/1 90/186/1 91/187/1 92/188/1
f 93/189/1 94/190/1 95/191/1 96/192/1
f 97/173/1 98/174/1 99/175/1 100/176/1
f 101/253/1 102/254/1 76/255/1 103/256/1
f 104/249/1 77/250/1 105/251/1 106/252/1
f 107/317/1 97/318/1 108/319/1 109/320/1
f 110/321/1 111/322/1 100/323/1 112/324/1
f 8/9/3 7/10/3 62/11/3 61/12/3
f 4/49/3 3/50/3 6/51/3 5/52/3
f 64/33/3 63/34/3 58/35/3 57/36/3
f 113/97/3 79/98/3 22/99/3 114/100/3
f 72/69/3 71/70/3 78/71/3 77/72/3
f 24/65/3 23/66/3 14/67/3 13/68/3
f 28/161/3 27/162/3 98/163/3 97/164/3
f 47/325/3 28/326/3 102/327/3 101/328/3
f 50/305/3 49/306/3 77/307/3 104/308/3
f 84/309/3 83/310/3 34/311/3 33/312/3
f 88/313/3 87/314/3 38/315/3 37/316/3
f 92/329/3 91/330/3 42/331/3 41/332/3
f 53/333/3 52/334/3 97/335/3 107/336/3
f 56/281/3 24/282/3 111/283/3 110/284/3
f 80/377/3 113/378/3 30/379/3 29/380/3
f 96/381/3 95/382/3 114/383/3 21/384/3
f 68/21/4 67/22/4 10/23/4 9/24/4
f 12/29/4 11/30/4 2/31/4 1/32/4
f 60/25/4 59/26/4 66/27/4 65/28/4
f 115/101/4 19/102/4 74/103/4 116/104/4
f 76/89/4 75/90/4 70/91/4 69/92/4
f 16/93/4 15/94/4 18/95/4 17/96/4
f 100/153/4 99/154/4 26/155/4 25/156/4
f 103/285/4 76/286/4 46/287/4 45/288/4
f 106/273/4 105/274/4 25/275/4 48/276/4
f 36/277/4 35/278/4 82/279/4 81/280/4
f 40/297/4 39/298/4 86/299/4 85/300/4
f 44/301/4 43/302/4 90/303/4 89/304/4
f 109/289/4 108/290/4 17/291/4 51/292/4
f 112/293/4 100/294/4 55/295/4 54/296/4
f 32/373/4 31/374/4 116/375/4 73/376/4
f 20/341/4 115/342/4 94/343/4 93/344/4
f 74/5/5 19/6/5 22/7/5 79/8/5
f 47/113/5 101/114/5 103/115/5 45/116/5
f 50/109/5 104/110/5 106/111/5 48/112/5
f 53/105/5 107/106/5 109/107/5 51/108/5
f 56/117/5 110/118/5 112/119/5 54/120/5
f 117/133/5 118/134/5 36/135/5 81/136/5
f 84/137/5 33/138/5 119/139/5 120/140/5
f 121/141/5 122/142/5 40/143/5 85/144/5
f 88/121/5 37/122/5 123/123/5 124/124/5
f 125/125/5 126/126/5 44/127/5 89/128/5
f 92/129/5 41/130/5 127/131/5 128/132/5
f 46/245/5 69/246/5 72/247/5 49/248/5
f 70/233/5 75/234/5 78/235/5 71/236/5
f 129/157/5 117/158/5 120/159/5 130/160/5
f 118/169/5 121/170/5 124/171/5 119/172/5
f 122/149/5 125/150/5 128/151/5 123/152/5
f 126/145/5 131/146/5 132/147/5 127/148/5
f 18/237/5 15/238/5 14/239/5 23/240/5
f 16/241/5 108/242/5 111/243/5 13/244/5
f 102/345/5 129/346/5 32/347/5 73/348/5
f 80/337/5 29/338/5 130/339/5 105/340/5
f 131/369/5 52/370/5 20/371/5 93/372/5
f 96/361/5 21/362/5 55/363/5 132/364/5
f 62/1/6 7/2/6 10/3/6 67/4/6
f 6/225/6 3/226/6 2/227/6 11/228/6
f 82/181/6 31/182/6 30/183/6 83/184/6
f 86/217/6 35/218/6 34/219/6 87/220/6
f 90/229/6 39/230/6 38/231/6 91/232/6
f 94/177/6 43/178/6 42/179/6 95/180/6
f 58/221/6 63/222/6 66/223/6 59/224/6
f 8/365/6 27/366/6 4/367/6 5/368/6
f 12/357/6 1/358/6 26/359/6 9/360/6
f 98/353/6 61/354/6 64/355/6 57/356/6
f 60/349/6 65/350/6 68/351/6 99/352/6
