# This file was created with Minddesk Qubicle 3.0
# Get Qubicle at www.getqubicle.com

mtllib Tree01.mtl

vn 0.0 0.0 1.0
vn 0.0 0.0 -1.0
vn -1.0 0.0 0.0
vn 1.0 0.0 0.0
vn 0.0 1.0 0.0
vn 0.0 -1.0 0.0

v 0.09300 1.33300 -0.09300
v 0.09300 0.00000 -0.09300
v -0.09300 0.00000 -0.09300
v -0.09300 1.33300 -0.09300
v 0.18600 2.23200 -0.49600
v 0.18600 1.33300 -0.49600
v -0.31000 1.33300 -0.49600
v -0.31000 2.23200 -0.49600
v 0.00000 3.50300 -0.31000
v 0.00000 2.63500 -0.31000
v -0.49600 2.63500 -0.31000
v -0.49600 3.50300 -0.31000
v 0.49600 3.68900 -0.21700
v 0.49600 3.03800 -0.21700
v 0.00000 3.03800 -0.21700
v 0.00000 3.68900 -0.21700
v -0.21700 2.38700 0.00000
v -0.21700 1.86000 0.00000
v -0.46500 1.86000 0.00000
v -0.46500 2.38700 0.00000
v 0.24800 2.38700 0.00000
v 0.24800 1.86000 0.00000
v 0.09300 1.86000 0.00000
v 0.09300 2.38700 0.00000
v 0.18600 2.63500 -0.40300
v 0.18600 2.23200 -0.40300
v -0.24800 2.23200 -0.40300
v -0.24800 2.63500 -0.40300
v 0.31000 3.96800 -0.21700
v 0.31000 3.68900 -0.21700
v 0.00000 3.96800 -0.21700
v -0.09300 3.10000 0.00000
v -0.09300 2.63500 0.00000
v -0.46500 2.63500 0.00000
v -0.46500 3.10000 0.00000
v 0.24800 3.03800 0.00000
v 0.24800 2.63500 0.00000
v 0.09300 2.63500 0.00000
v 0.09300 3.03800 0.00000
v 0.00000 3.96800 -0.09300
v 0.00000 3.50300 -0.09300
v -0.09300 3.50300 -0.09300
v -0.09300 3.96800 -0.09300
v 0.09300 3.03800 -0.09300
v 0.09300 2.63500 -0.09300
v 0.00000 2.63500 -0.09300
v 0.00000 3.03800 -0.09300
v 0.21700 1.86000 0.00000
v 0.21700 1.58100 0.00000
v 0.09300 1.58100 0.00000
v -0.24800 2.63500 0.00000
v -0.24800 2.38700 0.00000
v 0.18600 2.38700 0.00000
v 0.18600 2.63500 0.00000
v -0.46500 3.10000 0.46500
v -0.46500 1.86000 0.46500
v 0.24800 1.86000 0.46500
v 0.24800 3.10000 0.46500
v -0.09300 1.58100 0.09300
v -0.09300 0.00000 0.09300
v 0.09300 0.00000 0.09300
v 0.09300 1.58100 0.09300
v 0.09300 2.38700 -0.09300
v 0.18600 1.33300 -0.09300
v 0.18600 2.38700 -0.09300
v -0.49600 3.50300 -0.06200
v -0.49600 2.63500 -0.06200
v -0.09300 2.63500 -0.06200
v -0.09300 3.50300 -0.06200
v 0.00000 3.68900 0.31000
v 0.00000 3.10000 0.31000
v 0.49600 3.10000 0.31000
v 0.49600 3.68900 0.31000
v -0.31000 2.23200 -0.09300
v -0.31000 1.48800 -0.09300
v -0.21700 1.48800 -0.09300
v -0.21700 2.23200 -0.09300
v -0.09300 3.96800 0.09300
v -0.09300 3.10000 0.09300
v 0.00000 3.10000 0.09300
v 0.00000 3.96800 0.09300
v 0.00000 3.96800 0.31000
v 0.31000 3.68900 0.31000
v 0.31000 3.96800 0.31000
v -0.18600 1.86000 0.34100
v -0.18600 1.58100 0.34100
v 0.21700 1.58100 0.34100
v 0.21700 1.86000 0.34100
v -0.21700 1.86000 0.06200
v -0.21700 1.58100 0.06200
v -0.18600 1.58100 0.06200
v -0.18600 1.86000 0.06200
v -0.31000 1.33300 -0.09300
v -0.09300 1.48800 -0.09300
v -0.24800 2.38700 -0.09300
v -0.24800 2.23200 -0.09300
v -0.21700 2.38700 -0.09300
v -0.21700 1.48800 0.06200
v -0.09300 1.48800 0.06200
v -0.09300 1.58100 0.06200
v 0.24800 3.10000 0.31000
v 0.24800 3.03800 0.31000
v 0.49600 3.03800 0.31000
v -0.09300 1.48800 0.09300
v -0.21700 1.86000 -0.09300
v -0.09300 3.50300 0.09300
v -0.09300 3.10000 -0.06200
v 0.00000 3.50300 -0.21700
v -0.24800 2.38700 -0.40300
v 0.24800 3.03800 0.46500
v 0.09300 1.58100 -0.09300
v 0.18600 2.23200 -0.09300
v 0.00000 3.03800 -0.31000
v 0.18600 2.38700 -0.40300
v -0.31000 2.23200 -0.40300
v -0.46500 3.10000 0.31000
v -0.49600 3.50300 -0.09300
v 0.31000 3.96800 0.09300
v 0.31000 3.96800 -0.09300
v -0.46500 3.10000 0.09300
v 0.18600 2.63500 -0.09300
v 0.18600 2.63500 -0.31000
v -0.24800 2.63500 -0.31000
v -0.24800 2.63500 -0.06200
v -0.46500 1.86000 0.34100
v -0.46500 1.86000 0.06200
v 0.49600 3.03800 0.00000
v 0.24800 1.86000 0.34100
v -0.18600 1.58100 0.09300
v 0.21700 1.58100 0.09300
v 0.49600 3.03800 -0.09300

vt 0.00391 0.40625
vt 0.00391 0.00781
vt 0.02734 0.00781
vt 0.02734 0.40625
vt 0.03516 0.40625
vt 0.03516 0.00781
vt 0.05859 0.00781
vt 0.05859 0.40625
vt 0.06641 0.38281
vt 0.06641 0.00781
vt 0.08984 0.00781
vt 0.08984 0.38281
vt 0.09766 0.34375
vt 0.09766 0.00781
vt 0.12109 0.00781
vt 0.12109 0.34375
vt 0.12891 0.32031
vt 0.12891 0.00781
vt 0.21875 0.00781
vt 0.21875 0.32031
vt 0.22656 0.32031
vt 0.22656 0.00781
vt 0.28516 0.00781
vt 0.28516 0.32031
vt 0.29297 0.30469
vt 0.29297 0.00781
vt 0.35156 0.00781
vt 0.35156 0.30469
vt 0.35938 0.27344
vt 0.35938 0.00781
vt 0.37109 0.00781
vt 0.37109 0.27344
vt 0.37891 0.23438
vt 0.37891 0.00781
vt 0.44141 0.00781
vt 0.44141 0.23438
vt 0.44922 0.23438
vt 0.44922 0.00781
vt 0.50000 0.00781
vt 0.50000 0.23438
vt 0.50781 0.23438
vt 0.50781 0.00781
vt 0.55859 0.00781
vt 0.55859 0.23438
vt 0.56641 0.22656
vt 0.56641 0.00781
vt 0.62891 0.00781
vt 0.62891 0.22656
vt 0.63672 0.22656
vt 0.63672 0.00781
vt 0.68750 0.00781
vt 0.68750 0.22656
vt 0.69531 0.22656
vt 0.69531 0.00781
vt 0.72656 0.00781
vt 0.72656 0.22656
vt 0.73438 0.22656
vt 0.73438 0.00781
vt 0.76172 0.00781
vt 0.76172 0.22656
vt 0.76953 0.22656
vt 0.76953 0.00781
vt 0.78125 0.00781
vt 0.78125 0.22656
vt 0.78906 0.21094
vt 0.78906 0.00781
vt 0.80078 0.00781
vt 0.80078 0.21094
vt 0.80859 0.19531
vt 0.80859 0.00781
vt 0.82031 0.00781
vt 0.82031 0.19531
vt 0.82813 0.17188
vt 0.82813 0.00781
vt 0.89453 0.00781
vt 0.89453 0.17188
vt 0.90234 0.17188
vt 0.90234 0.00781
vt 0.96484 0.00781
vt 0.96484 0.17188
vt 0.00391 0.57031
vt 0.00391 0.42188
vt 0.06641 0.42188
vt 0.06641 0.57031
vt 0.07422 0.55469
vt 0.07422 0.42188
vt 0.10547 0.42188
vt 0.10547 0.55469
vt 0.97266 0.14063
vt 0.97266 0.00781
vt 0.99609 0.00781
vt 0.99609 0.14063
vt 0.11328 0.55469
vt 0.11328 0.42188
vt 0.13281 0.42188
vt 0.13281 0.55469
vt 0.14063 0.55469
vt 0.14063 0.42188
vt 0.15234 0.42188
vt 0.15234 0.55469
vt 0.16016 0.53906
vt 0.16016 0.42188
vt 0.20703 0.42188
vt 0.20703 0.53906
vt 0.21484 0.53906
vt 0.21484 0.42188
vt 0.23828 0.42188
vt 0.23828 0.53906
vt 0.24609 0.53906
vt 0.24609 0.42188
vt 0.26172 0.42188
vt 0.26172 0.53906
vt 0.26953 0.53906
vt 0.26953 0.42188
vt 0.28125 0.42188
vt 0.28125 0.53906
vt 0.28906 0.53906
vt 0.28906 0.42188
vt 0.30078 0.42188
vt 0.30078 0.53906
vt 0.30859 0.53906
vt 0.30859 0.42188
vt 0.31641 0.42188
vt 0.31641 0.53906
vt 0.32422 0.52344
vt 0.32422 0.42188
vt 0.38672 0.42188
vt 0.38672 0.52344
vt 0.39453 0.52344
vt 0.39453 0.42188
vt 0.44922 0.42188
vt 0.44922 0.52344
vt 0.45703 0.52344
vt 0.45703 0.42188
vt 0.48438 0.42188
vt 0.48438 0.52344
vt 0.49219 0.52344
vt 0.49219 0.42188
vt 0.51172 0.42188
vt 0.51172 0.52344
vt 0.51953 0.52344
vt 0.51953 0.42188
vt 0.53906 0.42188
vt 0.53906 0.52344
vt 0.54688 0.52344
vt 0.54688 0.42188
vt 0.55859 0.42188
vt 0.55859 0.52344
vt 0.56641 0.52344
vt 0.56641 0.42188
vt 0.57813 0.42188
vt 0.57813 0.52344
vt 0.58594 0.51563
vt 0.58594 0.42188
vt 0.60547 0.42188
vt 0.60547 0.51563
vt 0.61328 0.50781
vt 0.61328 0.42188
vt 0.61719 0.42188
vt 0.61719 0.50781
vt 0.62500 0.50000
vt 0.62500 0.42188
vt 0.65625 0.42188
vt 0.65625 0.50000
vt 0.66406 0.50000
vt 0.66406 0.42188
vt 0.67188 0.42188
vt 0.67188 0.50000
vt 0.67969 0.49219
vt 0.67969 0.42188
vt 0.74609 0.42188
vt 0.74609 0.49219
vt 0.75391 0.49219
vt 0.75391 0.42188
vt 0.80469 0.42188
vt 0.80469 0.49219
vt 0.81250 0.49219
vt 0.81250 0.42188
vt 0.85547 0.42188
vt 0.85547 0.49219
vt 0.86328 0.49219
vt 0.86328 0.42188
vt 0.90234 0.42188
vt 0.90234 0.49219
vt 0.91016 0.49219
vt 0.91016 0.42188
vt 0.94922 0.42188
vt 0.94922 0.49219
vt 0.95703 0.49219
vt 0.95703 0.42188
vt 0.99219 0.42188
vt 0.99219 0.49219
vt 0.00391 0.65625
vt 0.00391 0.58594
vt 0.03906 0.58594
vt 0.03906 0.65625
vt 0.04688 0.65625
vt 0.04688 0.58594
vt 0.06250 0.58594
vt 0.06250 0.65625
vt 0.07031 0.65625
vt 0.07031 0.58594
vt 0.07422 0.58594
vt 0.07422 0.65625
vt 0.08203 0.64844
vt 0.08203 0.58594
vt 0.13281 0.58594
vt 0.13281 0.64844
vt 0.14063 0.64844
vt 0.14063 0.58594
vt 0.19141 0.58594
vt 0.19141 0.64844
vt 0.19922 0.64844
vt 0.19922 0.58594
vt 0.25000 0.58594
vt 0.25000 0.64844
vt 0.25781 0.64844
vt 0.25781 0.58594
vt 0.28906 0.58594
vt 0.28906 0.64844
vt 0.29688 0.64844
vt 0.29688 0.58594
vt 0.32422 0.58594
vt 0.32422 0.64844
vt 0.33203 0.64844
vt 0.33203 0.58594
vt 0.33984 0.58594
vt 0.33984 0.64844
vt 0.34766 0.64063
vt 0.34766 0.58594
vt 0.41016 0.58594
vt 0.41016 0.64063
vt 0.41797 0.64063
vt 0.41797 0.58594
vt 0.47656 0.58594
vt 0.47656 0.64063
vt 0.48438 0.64063
vt 0.48438 0.58594
vt 0.52344 0.58594
vt 0.52344 0.64063
vt 0.53125 0.64063
vt 0.53125 0.58594
vt 0.55469 0.58594
vt 0.55469 0.64063
vt 0.56250 0.63281
vt 0.56250 0.58594
vt 0.61328 0.58594
vt 0.61328 0.63281
vt 0.62109 0.63281
vt 0.62109 0.58594
vt 0.64453 0.58594
vt 0.64453 0.63281
vt 0.65234 0.62500
vt 0.65234 0.58594
vt 0.74219 0.58594
vt 0.74219 0.62500
vt 0.75000 0.62500
vt 0.75000 0.58594
vt 0.78906 0.58594
vt 0.78906 0.62500
vt 0.79688 0.62500
vt 0.79688 0.58594
vt 0.83594 0.58594
vt 0.83594 0.62500
vt 0.84375 0.62500
vt 0.84375 0.58594
vt 0.87109 0.58594
vt 0.87109 0.62500
vt 0.87891 0.62500
vt 0.87891 0.58594
vt 0.89453 0.58594
vt 0.89453 0.62500
vt 0.90234 0.62500
vt 0.90234 0.58594
vt 0.90625 0.58594
vt 0.90625 0.62500
vt 0.00391 0.70313
vt 0.00391 0.67188
vt 0.09375 0.67188
vt 0.09375 0.70313
vt 0.91406 0.61719
vt 0.91406 0.58594
vt 0.97656 0.58594
vt 0.97656 0.61719
vt 0.10156 0.70313
vt 0.10156 0.67188
vt 0.14063 0.67188
vt 0.14063 0.70313
vt 0.37891 0.27344
vt 0.37891 0.25000
vt 0.44141 0.25000
vt 0.44141 0.27344
vt 0.44922 0.27344
vt 0.44922 0.25000
vt 0.50391 0.25000
vt 0.50391 0.27344
vt 0.51172 0.27344
vt 0.51172 0.25000
vt 0.56250 0.25000
vt 0.56250 0.27344
vt 0.57031 0.27344
vt 0.57031 0.25000
vt 0.61719 0.25000
vt 0.61719 0.27344
vt 0.62500 0.27344
vt 0.62500 0.25000
vt 0.64063 0.25000
vt 0.64063 0.27344
vt 0.64844 0.27344
vt 0.64844 0.25000
vt 0.66406 0.25000
vt 0.66406 0.27344
vt 0.67188 0.27344
vt 0.67188 0.25000
vt 0.68359 0.25000
vt 0.68359 0.27344
vt 0.69141 0.27344
vt 0.69141 0.25000
vt 0.70313 0.25000
vt 0.70313 0.27344
vt 0.71094 0.27344
vt 0.71094 0.25000
vt 0.71484 0.25000
vt 0.71484 0.27344
vt 0.72266 0.27344
vt 0.72266 0.25000
vt 0.72656 0.25000
vt 0.72656 0.27344
vt 0.73438 0.26563
vt 0.73438 0.25000
vt 0.76563 0.25000
vt 0.76563 0.26563
vt 0.77344 0.26563
vt 0.77344 0.25000
vt 0.80469 0.25000
vt 0.80469 0.26563
vt 0.97266 0.17188
vt 0.97266 0.15625
vt 0.99219 0.15625
vt 0.99219 0.17188
vt 0.81250 0.26563
vt 0.81250 0.25000
vt 0.83203 0.25000
vt 0.83203 0.26563
vt 0.82813 0.19531
vt 0.82813 0.18750
vt 0.87891 0.18750
vt 0.87891 0.19531
vt 0.88672 0.19531
vt 0.88672 0.18750
vt 0.89844 0.18750
vt 0.89844 0.19531

g Box
usemtl Tree01_Material
f 1/13/2 2/14/2 3/15/2 4/16/2
f 5/33/2 6/34/2 7/35/2 8/36/2
f 9/45/2 10/46/2 11/47/2 12/48/2
f 13/77/2 14/78/2 15/79/2 16/80/2
f 17/85/2 18/86/2 19/87/2 20/88/2
f 21/93/2 22/94/2 23/95/2 24/96/2
f 25/129/2 26/130/2 27/131/2 28/132/2
f 29/181/2 30/182/2 16/183/2 31/184/2
f 32/101/2 33/102/2 34/103/2 35/104/2
f 36/141/2 37/142/2 38/143/2 39/144/2
f 40/113/2 41/114/2 42/115/2 43/116/2
f 44/145/2 45/146/2 46/147/2 47/148/2
f 48/197/2 49/198/2 50/199/2 23/200/2
f 51/221/2 52/222/2 20/223/2 34/224/2
f 37/225/2 21/226/2 53/227/2 54/228/2
f 55/17/1 56/18/1 57/19/1 58/20/1
f 59/5/1 60/6/1 61/7/1 62/8/1
f 63/29/1 1/30/1 64/31/1 65/32/1
f 66/49/1 67/50/1 68/51/1 69/52/1
f 70/81/1 71/82/1 72/83/1 73/84/1
f 74/69/1 75/70/1 76/71/1 77/72/1
f 78/61/1 79/62/1 80/63/1 81/64/1
f 82/185/1 70/186/1 83/187/1 84/188/1
f 85/173/1 86/174/1 87/175/1 88/176/1
f 89/201/1 90/202/1 91/203/1 92/204/1
f 75/265/1 93/266/1 4/267/1 94/268/1
f 95/273/1 96/274/1 77/275/1 97/276/1
f 90/305/1 98/306/1 99/307/1 100/308/1
f 101/333/1 102/334/1 103/335/1 72/336/1
f 35/21/3 19/22/3 56/23/3 55/24/3
f 94/9/3 3/10/3 60/11/3 104/12/3
f 8/41/3 7/42/3 93/43/3 74/44/3
f 12/53/3 11/54/3 67/55/3 66/56/3
f 81/57/3 80/58/3 71/59/3 82/60/3
f 97/97/3 105/98/3 18/99/3 17/100/3
f 92/193/3 91/194/3 86/195/3 85/196/3
f 105/153/3 76/154/3 98/155/3 89/156/3
f 43/105/3 42/106/3 106/107/3 78/108/3
f 69/137/3 107/138/3 79/139/3 106/140/3
f 31/109/3 108/110/3 41/111/3 40/112/3
f 107/121/3 68/122/3 33/123/3 32/124/3
f 109/261/3 27/262/3 96/263/3 95/264/3
f 28/209/3 109/210/3 52/211/3 51/212/3
f 100/325/3 99/326/3 104/327/3 59/328/3
f 110/25/4 57/26/4 22/27/4 36/28/4
f 62/1/4 61/2/4 2/3/4 111/4/4
f 73/73/4 103/74/4 14/75/4 13/76/4
f 112/37/4 64/38/4 6/39/4 5/40/4
f 24/65/4 50/66/4 111/67/4 63/68/4
f 84/169/4 83/170/4 30/171/4 29/172/4
f 88/177/4 87/178/4 49/179/4 48/180/4
f 47/133/4 46/134/4 10/135/4 113/136/4
f 108/117/4 15/118/4 113/119/4 9/120/4
f 39/149/4 38/150/4 45/151/4 44/152/4
f 65/257/4 112/258/4 26/259/4 114/260/4
f 54/205/4 53/206/4 114/207/4 25/208/4
f 58/337/4 110/338/4 102/339/4 101/340/4
f 30/89/5 83/90/5 73/91/5 13/92/5
f 115/165/5 74/166/5 96/167/5 27/168/5
f 116/253/5 55/254/5 58/255/5 101/256/5
f 12/229/5 117/230/5 41/231/5 9/232/5
f 43/245/5 78/246/5 118/247/5 119/248/5
f 120/233/5 116/234/5 71/235/5 80/236/5
f 81/237/5 82/238/5 84/239/5 118/240/5
f 10/241/5 46/242/5 121/243/5 122/244/5
f 8/289/5 115/290/5 26/291/5 5/292/5
f 28/293/5 123/294/5 122/295/5 25/296/5
f 31/285/5 40/286/5 119/287/5 29/288/5
f 35/301/5 120/302/5 79/303/5 32/304/5
f 45/313/5 38/314/5 54/315/5 121/316/5
f 124/341/5 51/342/5 33/343/5 68/344/5
f 117/345/5 66/346/5 69/347/5 42/348/5
f 93/125/6 7/126/6 6/127/6 64/128/6
f 125/189/6 126/190/6 92/191/6 85/192/6
f 102/161/6 36/162/6 127/163/6 103/164/6
f 88/157/6 48/158/6 22/159/6 128/160/6
f 86/213/6 129/214/6 130/215/6 87/216/6
f 67/217/6 11/218/6 123/219/6 124/220/6
f 60/249/6 3/250/6 2/251/6 61/252/6
f 98/269/6 76/270/6 94/271/6 99/272/6
f 56/277/6 125/278/6 128/279/6 57/280/6
f 47/281/6 15/282/6 14/283/6 131/284/6
f 39/297/6 44/298/6 131/299/6 127/300/6
f 24/317/6 63/318/6 65/319/6 53/320/6
f 62/309/6 50/310/6 49/311/6 130/312/6
f 52/321/6 95/322/6 97/323/6 17/324/6
f 126/329/6 19/330/6 18/331/6 89/332/6
f 129/349/6 91/350/6 100/351/6 59/352/6
