# This file was created with Minddesk Qubicle 3.0
# Get Qubicle at www.getqubicle.com

mtllib Street2.mtl

vn 0.0 0.0 1.0
vn 0.0 0.0 -1.0
vn -1.0 0.0 0.0
vn 1.0 0.0 0.0
vn 0.0 1.0 0.0
vn 0.0 -1.0 0.0

v 3.52800 -0.12600 -3.52800
v 3.52800 -1.00800 -3.52800
v -3.52800 -1.00800 -3.52800
v -3.52800 -0.12600 -3.52800
v 3.52800 0.00000 -2.64600
v 3.52800 -0.12600 -2.64600
v -2.58300 -0.12600 -2.64600
v -2.58300 0.00000 -2.64600
v 3.52800 0.00000 -2.52000
v 3.52800 -0.12600 -2.52000
v -2.52000 -0.12600 -2.52000
v -2.52000 0.00000 -2.52000
v -2.58300 0.00000 -3.46500
v -2.58300 -0.12600 -3.46500
v -3.46500 -0.12600 -3.46500
v -3.46500 0.00000 -3.46500
v -1.57500 0.00000 -3.46500
v -1.57500 -0.12600 -3.46500
v -2.45700 -0.12600 -3.46500
v -2.45700 0.00000 -3.46500
v -0.56700 0.00000 -3.46500
v -0.56700 -0.12600 -3.46500
v -1.44900 -0.12600 -3.46500
v -1.44900 0.00000 -3.46500
v 0.44100 0.00000 -3.46500
v 0.44100 -0.12600 -3.46500
v -0.44100 -0.12600 -3.46500
v -0.44100 0.00000 -3.46500
v 1.44900 0.00000 -3.46500
v 1.44900 -0.12600 -3.46500
v 0.56700 -0.12600 -3.46500
v 0.56700 0.00000 -3.46500
v 2.45700 0.00000 -3.46500
v 2.45700 -0.12600 -3.46500
v 1.57500 -0.12600 -3.46500
v 1.57500 0.00000 -3.46500
v 3.46500 0.00000 -3.46500
v 3.46500 -0.12600 -3.46500
v 2.58300 -0.12600 -3.46500
v 2.58300 0.00000 -3.46500
v -2.70900 0.00000 -2.45700
v -2.70900 -0.12600 -2.45700
v -3.46500 -0.12600 -2.45700
v -3.46500 0.00000 -2.45700
v -2.70900 0.00000 -1.44900
v -2.70900 -0.12600 -1.44900
v -3.46500 -0.12600 -1.44900
v -3.46500 0.00000 -1.44900
v -2.70900 0.00000 -0.44100
v -2.70900 -0.12600 -0.44100
v -3.46500 -0.12600 -0.44100
v -3.46500 0.00000 -0.44100
v -2.70900 0.00000 0.56700
v -2.70900 -0.12600 0.56700
v -3.46500 -0.12600 0.56700
v -3.46500 0.00000 0.56700
v -2.70900 0.00000 1.57500
v -2.70900 -0.12600 1.57500
v -3.46500 -0.12600 1.57500
v -3.46500 0.00000 1.57500
v -2.70900 0.00000 2.58300
v -2.70900 -0.12600 2.58300
v -3.46500 -0.12600 2.58300
v -3.46500 0.00000 2.58300
v 3.52800 0.00000 2.58300
v 3.52800 -0.12600 2.58300
v 2.58300 -0.12600 2.58300
v 2.58300 0.00000 2.58300
v 3.46500 0.00000 2.70900
v 3.46500 -0.12600 2.70900
v 2.70900 -0.12600 2.70900
v 2.70900 0.00000 2.70900
v -3.52800 -0.12600 3.52800
v -3.52800 -1.00800 3.52800
v 3.52800 -1.00800 3.52800
v 3.52800 -0.12600 3.52800
v -2.52000 0.00000 -2.58300
v -2.52000 -0.12600 -2.58300
v 3.52800 -0.12600 -2.58300
v 3.52800 0.00000 -2.58300
v -2.52000 0.00000 3.52800
v -2.52000 -0.12600 3.52800
v 2.52000 -0.12600 3.52800
v 2.52000 0.00000 3.52800
v -2.45700 0.00000 -2.70900
v -2.45700 -0.12600 -2.70900
v -1.57500 -0.12600 -2.70900
v -1.57500 0.00000 -2.70900
v -1.44900 0.00000 -2.70900
v -1.44900 -0.12600 -2.70900
v -0.56700 -0.12600 -2.70900
v -0.56700 0.00000 -2.70900
v -0.44100 0.00000 -2.70900
v -0.44100 -0.12600 -2.70900
v 0.44100 -0.12600 -2.70900
v 0.44100 0.00000 -2.70900
v 0.56700 0.00000 -2.70900
v 0.56700 -0.12600 -2.70900
v 1.44900 -0.12600 -2.70900
v 1.44900 0.00000 -2.70900
v 1.57500 0.00000 -2.70900
v 1.57500 -0.12600 -2.70900
v 2.45700 -0.12600 -2.70900
v 2.45700 0.00000 -2.70900
v 2.58300 0.00000 -2.70900
v 2.58300 -0.12600 -2.70900
v 3.46500 -0.12600 -2.70900
v 3.46500 0.00000 -2.70900
v -3.46500 0.00000 -2.58300
v -3.46500 -0.12600 -2.58300
v -2.64600 -0.12600 -2.58300
v -2.64600 0.00000 -2.58300
v -3.46500 0.00000 -1.57500
v -3.46500 -0.12600 -1.57500
v -2.70900 -0.12600 -1.57500
v -2.70900 0.00000 -1.57500
v -3.46500 0.00000 -0.56700
v -3.46500 -0.12600 -0.56700
v -2.70900 -0.12600 -0.56700
v -2.70900 0.00000 -0.56700
v -3.46500 0.00000 0.44100
v -3.46500 -0.12600 0.44100
v -2.70900 -0.12600 0.44100
v -2.70900 0.00000 0.44100
v -3.46500 0.00000 1.44900
v -3.46500 -0.12600 1.44900
v -2.70900 -0.12600 1.44900
v -2.70900 0.00000 1.44900
v -3.46500 0.00000 2.45700
v -3.46500 -0.12600 2.45700
v -2.70900 -0.12600 2.45700
v -2.70900 0.00000 2.45700
v 2.52000 0.00000 2.52000
v 2.52000 -0.12600 2.52000
v 3.52800 -0.12600 2.52000
v 3.52800 0.00000 2.52000
v 2.64600 0.00000 2.64600
v 2.64600 -0.12600 2.64600
v 3.52800 -0.12600 2.64600
v 3.52800 0.00000 2.64600
v -3.46500 0.00000 3.46500
v -3.46500 -0.12600 3.46500
v -2.70900 -0.12600 3.46500
v -2.70900 0.00000 3.46500
v 2.70900 0.00000 3.46500
v 2.70900 -0.12600 3.46500
v 3.46500 -0.12600 3.46500
v 3.46500 0.00000 3.46500
v -2.58300 0.00000 -2.52000
v -2.58300 -0.12600 -2.52000
v -2.64600 0.00000 3.52800
v -2.64600 -0.12600 3.52800
v -2.58300 -0.12600 3.52800
v -2.58300 0.00000 3.52800
v 2.58300 0.00000 3.52800
v 2.58300 -0.12600 3.52800
v 2.64600 -0.12600 3.52800
v 2.64600 0.00000 3.52800
v -2.52000 0.00000 2.52000
v -2.64600 0.00000 -2.52000
v -3.46500 0.00000 -2.64600
v -2.58300 -0.12600 -2.70900
v -3.52800 -0.12600 -3.46500
v -3.52800 -0.12600 -2.58300
v 3.52800 -0.12600 -2.70900
v 3.52800 -0.12600 -3.46500
v -3.52800 -0.12600 -2.45700
v -3.52800 -0.12600 -1.57500
v -2.64600 -0.12600 -1.57500
v -2.64600 -0.12600 -2.45700
v -3.52800 -0.12600 -1.44900
v -3.52800 -0.12600 -0.56700
v -2.64600 -0.12600 -0.56700
v -2.64600 -0.12600 -1.44900
v -3.52800 -0.12600 -0.44100
v -3.52800 -0.12600 0.44100
v -2.64600 -0.12600 0.44100
v -2.64600 -0.12600 -0.44100
v -3.52800 -0.12600 0.56700
v -3.52800 -0.12600 1.44900
v -2.64600 -0.12600 1.44900
v -2.64600 -0.12600 0.56700
v -3.52800 -0.12600 1.57500
v -3.52800 -0.12600 2.45700
v -2.64600 -0.12600 2.45700
v -2.64600 -0.12600 1.57500
v -3.52800 -0.12600 2.58300
v -3.52800 -0.12600 3.46500
v -2.64600 -0.12600 3.46500
v -2.64600 -0.12600 2.58300
v 2.52000 -0.12600 2.58300
v 2.58300 0.00000 2.64600
v 2.64600 -0.12600 2.70900
v 2.64600 -0.12600 3.46500
v 3.52800 -0.12600 3.46500
v 3.52800 -0.12600 2.70900

vt 0.00391 0.44141
vt 0.00391 0.00391
vt 0.44141 0.00391
vt 0.44141 0.44141
vt 0.44922 0.37891
vt 0.44922 0.00391
vt 0.45313 0.00391
vt 0.45313 0.37891
vt 0.46094 0.37891
vt 0.46094 0.00391
vt 0.46484 0.00391
vt 0.46484 0.37891
vt 0.47266 0.31641
vt 0.47266 0.00391
vt 0.84766 0.00391
vt 0.84766 0.31641
vt 0.00391 0.51172
vt 0.00391 0.44922
vt 0.31641 0.44922
vt 0.31641 0.51172
vt 0.85547 0.06250
vt 0.85547 0.00391
vt 0.85938 0.00391
vt 0.85938 0.06250
vt 0.47266 0.37891
vt 0.47266 0.32422
vt 0.91016 0.32422
vt 0.91016 0.37891
vt 0.44922 0.44141
vt 0.44922 0.38672
vt 0.88672 0.38672
vt 0.88672 0.44141
vt 0.32422 0.50391
vt 0.32422 0.44922
vt 0.76172 0.44922
vt 0.76172 0.50391
vt 0.00391 0.57422
vt 0.00391 0.51953
vt 0.44141 0.51953
vt 0.44141 0.57422
vt 0.86719 0.05859
vt 0.86719 0.00391
vt 0.91406 0.00391
vt 0.91406 0.05859
vt 0.92188 0.05859
vt 0.92188 0.00391
vt 0.96875 0.00391
vt 0.96875 0.05859
vt 0.85547 0.12500
vt 0.85547 0.07031
vt 0.90234 0.07031
vt 0.90234 0.12500
vt 0.91016 0.12500
vt 0.91016 0.07031
vt 0.95703 0.07031
vt 0.95703 0.12500
vt 0.85547 0.18750
vt 0.85547 0.13281
vt 0.90234 0.13281
vt 0.90234 0.18750
vt 0.91016 0.18750
vt 0.91016 0.13281
vt 0.95703 0.13281
vt 0.95703 0.18750
vt 0.97656 0.05859
vt 0.97656 0.00391
vt 0.98047 0.00391
vt 0.98047 0.05859
vt 0.98828 0.05859
vt 0.98828 0.00391
vt 0.99219 0.00391
vt 0.99219 0.05859
vt 0.96484 0.12500
vt 0.96484 0.07031
vt 0.96875 0.07031
vt 0.96875 0.12500
vt 0.97656 0.12500
vt 0.97656 0.07031
vt 0.98047 0.07031
vt 0.98047 0.12500
vt 0.98828 0.12500
vt 0.98828 0.07031
vt 0.99219 0.07031
vt 0.99219 0.12500
vt 0.96484 0.18750
vt 0.96484 0.13281
vt 0.96875 0.13281
vt 0.96875 0.18750
vt 0.97656 0.18750
vt 0.97656 0.13281
vt 0.98047 0.13281
vt 0.98047 0.18750
vt 0.98828 0.18750
vt 0.98828 0.13281
vt 0.99219 0.13281
vt 0.99219 0.18750
vt 0.85547 0.25000
vt 0.85547 0.19531
vt 0.85938 0.19531
vt 0.85938 0.25000
vt 0.86719 0.25000
vt 0.86719 0.19531
vt 0.87109 0.19531
vt 0.87109 0.25000
vt 0.87891 0.25000
vt 0.87891 0.19531
vt 0.88281 0.19531
vt 0.88281 0.25000
vt 0.89063 0.25000
vt 0.89063 0.19531
vt 0.89453 0.19531
vt 0.89453 0.25000
vt 0.90234 0.25000
vt 0.90234 0.19531
vt 0.90625 0.19531
vt 0.90625 0.25000
vt 0.91406 0.25000
vt 0.91406 0.19531
vt 0.91797 0.19531
vt 0.91797 0.25000
vt 0.92578 0.24609
vt 0.92578 0.19531
vt 0.98047 0.19531
vt 0.98047 0.24609
vt 0.85547 0.30469
vt 0.85547 0.25781
vt 0.91016 0.25781
vt 0.91016 0.30469
vt 0.91797 0.30469
vt 0.91797 0.25781
vt 0.97266 0.25781
vt 0.97266 0.30469
vt 0.91797 0.37109
vt 0.91797 0.32422
vt 0.97266 0.32422
vt 0.97266 0.37109
vt 0.89453 0.43359
vt 0.89453 0.38672
vt 0.94922 0.38672
vt 0.94922 0.43359
vt 0.76953 0.49609
vt 0.76953 0.44922
vt 0.82422 0.44922
vt 0.82422 0.49609
vt 0.83203 0.49609
vt 0.83203 0.44922
vt 0.88672 0.44922
vt 0.88672 0.49609
vt 0.89453 0.49609
vt 0.89453 0.44922
vt 0.94141 0.44922
vt 0.94141 0.49609
vt 0.98828 0.24219
vt 0.98828 0.19531
vt 0.99609 0.19531
vt 0.99609 0.24219
vt 0.98047 0.30469
vt 0.98047 0.25781
vt 0.98828 0.25781
vt 0.98828 0.30469
vt 0.98047 0.37109
vt 0.98047 0.32422
vt 0.98828 0.32422
vt 0.98828 0.37109
vt 0.95703 0.43359
vt 0.95703 0.38672
vt 0.96484 0.38672
vt 0.96484 0.43359
vt 0.97266 0.43359
vt 0.97266 0.38672
vt 0.98047 0.38672
vt 0.98047 0.43359
vt 0.98828 0.43359
vt 0.98828 0.38672
vt 0.99609 0.38672
vt 0.99609 0.43359
vt 0.94922 0.49609
vt 0.94922 0.44922
vt 0.95313 0.44922
vt 0.95313 0.49609
vt 0.96094 0.49609
vt 0.96094 0.44922
vt 0.96484 0.44922
vt 0.96484 0.49609
vt 0.97266 0.49609
vt 0.97266 0.44922
vt 0.97656 0.44922
vt 0.97656 0.49609
vt 0.44922 0.52734
vt 0.44922 0.51953
vt 0.82813 0.51953
vt 0.82813 0.52734
vt 0.44922 0.54297
vt 0.44922 0.53516
vt 0.82813 0.53516
vt 0.82813 0.54297
vt 0.44922 0.55859
vt 0.44922 0.55078
vt 0.82422 0.55078
vt 0.82422 0.55859
vt 0.44922 0.57422
vt 0.44922 0.56641
vt 0.82422 0.56641
vt 0.82422 0.57422
vt 0.00391 0.58984
vt 0.00391 0.58203
vt 0.37891 0.58203
vt 0.37891 0.58984
vt 0.38672 0.58984
vt 0.38672 0.58203
vt 0.76172 0.58203
vt 0.76172 0.58984
vt 0.00391 0.60547
vt 0.00391 0.59766
vt 0.31641 0.59766
vt 0.31641 0.60547
vt 0.32422 0.60547
vt 0.32422 0.59766
vt 0.63672 0.59766
vt 0.63672 0.60547
vt 0.83594 0.52734
vt 0.83594 0.51953
vt 0.89844 0.51953
vt 0.89844 0.52734
vt 0.90625 0.52734
vt 0.90625 0.51953
vt 0.96875 0.51953
vt 0.96875 0.52734
vt 0.83594 0.54297
vt 0.83594 0.53516
vt 0.89453 0.53516
vt 0.89453 0.54297
vt 0.90234 0.54297
vt 0.90234 0.53516
vt 0.96094 0.53516
vt 0.96094 0.54297
vt 0.83203 0.55859
vt 0.83203 0.55078
vt 0.88672 0.55078
vt 0.88672 0.55859
vt 0.89453 0.55859
vt 0.89453 0.55078
vt 0.94922 0.55078
vt 0.94922 0.55859
vt 0.83203 0.57422
vt 0.83203 0.56641
vt 0.88672 0.56641
vt 0.88672 0.57422
vt 0.89453 0.57422
vt 0.89453 0.56641
vt 0.94922 0.56641
vt 0.94922 0.57422
vt 0.76953 0.58984
vt 0.76953 0.58203
vt 0.82422 0.58203
vt 0.82422 0.58984
vt 0.83203 0.58984
vt 0.83203 0.58203
vt 0.88672 0.58203
vt 0.88672 0.58984
vt 0.89453 0.58984
vt 0.89453 0.58203
vt 0.94922 0.58203
vt 0.94922 0.58984
vt 0.64453 0.60547
vt 0.64453 0.59766
vt 0.69922 0.59766
vt 0.69922 0.60547
vt 0.70703 0.60547
vt 0.70703 0.59766
vt 0.76172 0.59766
vt 0.76172 0.60547
vt 0.76953 0.60547
vt 0.76953 0.59766
vt 0.82422 0.59766
vt 0.82422 0.60547
vt 0.83203 0.60547
vt 0.83203 0.59766
vt 0.88672 0.59766
vt 0.88672 0.60547
vt 0.89453 0.60547
vt 0.89453 0.59766
vt 0.94922 0.59766
vt 0.94922 0.60547
vt 0.00391 0.62109
vt 0.00391 0.61328
vt 0.05859 0.61328
vt 0.05859 0.62109
vt 0.06641 0.62109
vt 0.06641 0.61328
vt 0.12109 0.61328
vt 0.12109 0.62109
vt 0.12891 0.62109
vt 0.12891 0.61328
vt 0.18359 0.61328
vt 0.18359 0.62109
vt 0.19141 0.62109
vt 0.19141 0.61328
vt 0.24609 0.61328
vt 0.24609 0.62109
vt 0.25391 0.62109
vt 0.25391 0.61328
vt 0.30859 0.61328
vt 0.30859 0.62109
vt 0.31641 0.62109
vt 0.31641 0.61328
vt 0.37109 0.61328
vt 0.37109 0.62109
vt 0.37891 0.62109
vt 0.37891 0.61328
vt 0.43359 0.61328
vt 0.43359 0.62109
vt 0.44141 0.62109
vt 0.44141 0.61328
vt 0.49609 0.61328
vt 0.49609 0.62109
vt 0.50391 0.62109
vt 0.50391 0.61328
vt 0.55859 0.61328
vt 0.55859 0.62109
vt 0.56641 0.62109
vt 0.56641 0.61328
vt 0.62109 0.61328
vt 0.62109 0.62109
vt 0.62891 0.62109
vt 0.62891 0.61328
vt 0.68359 0.61328
vt 0.68359 0.62109
vt 0.69141 0.62109
vt 0.69141 0.61328
vt 0.74609 0.61328
vt 0.74609 0.62109
vt 0.75391 0.62109
vt 0.75391 0.61328
vt 0.80859 0.61328
vt 0.80859 0.62109
vt 0.81641 0.62109
vt 0.81641 0.61328
vt 0.87109 0.61328
vt 0.87109 0.62109
vt 0.87891 0.62109
vt 0.87891 0.61328
vt 0.93359 0.61328
vt 0.93359 0.62109
vt 0.94141 0.62109
vt 0.94141 0.61328
vt 0.99609 0.61328
vt 0.99609 0.62109
vt 0.00391 0.63672
vt 0.00391 0.62891
vt 0.05859 0.62891
vt 0.05859 0.63672
vt 0.06641 0.63672
vt 0.06641 0.62891
vt 0.12109 0.62891
vt 0.12109 0.63672
vt 0.12891 0.63672
vt 0.12891 0.62891
vt 0.18359 0.62891
vt 0.18359 0.63672
vt 0.19141 0.63672
vt 0.19141 0.62891
vt 0.24609 0.62891
vt 0.24609 0.63672
vt 0.25391 0.63672
vt 0.25391 0.62891
vt 0.30859 0.62891
vt 0.30859 0.63672
vt 0.31641 0.63672
vt 0.31641 0.62891
vt 0.37109 0.62891
vt 0.37109 0.63672
vt 0.37891 0.63672
vt 0.37891 0.62891
vt 0.42969 0.62891
vt 0.42969 0.63672
vt 0.43750 0.63672
vt 0.43750 0.62891
vt 0.48828 0.62891
vt 0.48828 0.63672
vt 0.49609 0.63672
vt 0.49609 0.62891
vt 0.54297 0.62891
vt 0.54297 0.63672
vt 0.55078 0.63672
vt 0.55078 0.62891
vt 0.59766 0.62891
vt 0.59766 0.63672
vt 0.60547 0.63672
vt 0.60547 0.62891
vt 0.65234 0.62891
vt 0.65234 0.63672
vt 0.66016 0.63672
vt 0.66016 0.62891
vt 0.70703 0.62891
vt 0.70703 0.63672
vt 0.71484 0.63672
vt 0.71484 0.62891
vt 0.76172 0.62891
vt 0.76172 0.63672
vt 0.76953 0.63672
vt 0.76953 0.62891
vt 0.81641 0.62891
vt 0.81641 0.63672
vt 0.82422 0.63672
vt 0.82422 0.62891
vt 0.87109 0.62891
vt 0.87109 0.63672
vt 0.87891 0.63672
vt 0.87891 0.62891
vt 0.92578 0.62891
vt 0.92578 0.63672
vt 0.93359 0.63672
vt 0.93359 0.62891
vt 0.98047 0.62891
vt 0.98047 0.63672
vt 0.00391 0.65234
vt 0.00391 0.64453
vt 0.05078 0.64453
vt 0.05078 0.65234
vt 0.05859 0.65234
vt 0.05859 0.64453
vt 0.10547 0.64453
vt 0.10547 0.65234
vt 0.11328 0.65234
vt 0.11328 0.64453
vt 0.16016 0.64453
vt 0.16016 0.65234
vt 0.16797 0.65234
vt 0.16797 0.64453
vt 0.21484 0.64453
vt 0.21484 0.65234
vt 0.22266 0.65234
vt 0.22266 0.64453
vt 0.26953 0.64453
vt 0.26953 0.65234
vt 0.27734 0.65234
vt 0.27734 0.64453
vt 0.32422 0.64453
vt 0.32422 0.65234
vt 0.33203 0.65234
vt 0.33203 0.64453
vt 0.37891 0.64453
vt 0.37891 0.65234
vt 0.38672 0.65234
vt 0.38672 0.64453
vt 0.43359 0.64453
vt 0.43359 0.65234
vt 0.44141 0.65234
vt 0.44141 0.64453
vt 0.48828 0.64453
vt 0.48828 0.65234
vt 0.49609 0.65234
vt 0.49609 0.64453
vt 0.54297 0.64453
vt 0.54297 0.65234
vt 0.55078 0.65234
vt 0.55078 0.64453
vt 0.59766 0.64453
vt 0.59766 0.65234
vt 0.60547 0.65234
vt 0.60547 0.64453
vt 0.65234 0.64453
vt 0.65234 0.65234
vt 0.66016 0.65234
vt 0.66016 0.64453
vt 0.70703 0.64453
vt 0.70703 0.65234
vt 0.71484 0.65234
vt 0.71484 0.64453
vt 0.76172 0.64453
vt 0.76172 0.65234
vt 0.76953 0.65234
vt 0.76953 0.64453
vt 0.81641 0.64453
vt 0.81641 0.65234
vt 0.82422 0.65234
vt 0.82422 0.64453
vt 0.87109 0.64453
vt 0.87109 0.65234
vt 0.87891 0.65234
vt 0.87891 0.64453
vt 0.92578 0.64453
vt 0.92578 0.65234
vt 0.93359 0.65234
vt 0.93359 0.64453
vt 0.98047 0.64453
vt 0.98047 0.65234
vt 0.00391 0.66797
vt 0.00391 0.66016
vt 0.05078 0.66016
vt 0.05078 0.66797
vt 0.98438 0.45703
vt 0.98438 0.44922
vt 0.98828 0.44922
vt 0.98828 0.45703
vt 0.98438 0.47266
vt 0.98438 0.46484
vt 0.98828 0.46484
vt 0.98828 0.47266
vt 0.98438 0.48828
vt 0.98438 0.48047
vt 0.98828 0.48047
vt 0.98828 0.48828
vt 0.97656 0.52734
vt 0.97656 0.51953
vt 0.98047 0.51953
vt 0.98047 0.52734
vt 0.98828 0.52734
vt 0.98828 0.51953
vt 0.99219 0.51953
vt 0.99219 0.52734
vt 0.96875 0.54297
vt 0.96875 0.53516
vt 0.97266 0.53516
vt 0.97266 0.54297
vt 0.05859 0.66406
vt 0.05859 0.66016
vt 0.49609 0.66016
vt 0.49609 0.66406
vt 0.50391 0.66406
vt 0.50391 0.66016
vt 0.93750 0.66016
vt 0.93750 0.66406
vt 0.00391 0.67969
vt 0.00391 0.67578
vt 0.38281 0.67578
vt 0.38281 0.67969
vt 0.39063 0.67969
vt 0.39063 0.67578
vt 0.76563 0.67578
vt 0.76563 0.67969
vt 0.85547 0.31641
vt 0.85547 0.31250
vt 0.91797 0.31250
vt 0.91797 0.31641
vt 0.92578 0.31641
vt 0.92578 0.31250
vt 0.98438 0.31250
vt 0.98438 0.31641
vt 0.77344 0.67969
vt 0.77344 0.67578
vt 0.82813 0.67578
vt 0.82813 0.67969
vt 0.83594 0.67969
vt 0.83594 0.67578
vt 0.89063 0.67578
vt 0.89063 0.67969
vt 0.89844 0.67969
vt 0.89844 0.67578
vt 0.95313 0.67578
vt 0.95313 0.67969
vt 0.98047 0.53906
vt 0.98047 0.53516
vt 0.98828 0.53516
vt 0.98828 0.53906

g Street2
usemtl Street2_Material
f 1/33/2 2/34/2 3/35/2 4/36/2
f 5/193/2 6/194/2 7/195/2 8/196/2
f 9/197/2 10/198/2 11/199/2 12/200/2
f 13/313/2 14/314/2 15/315/2 16/316/2
f 17/309/2 18/310/2 19/311/2 20/312/2
f 21/273/2 22/274/2 23/275/2 24/276/2
f 25/269/2 26/270/2 27/271/2 28/272/2
f 29/265/2 30/266/2 31/267/2 32/268/2
f 33/277/2 34/278/2 35/279/2 36/280/2
f 37/289/2 38/290/2 39/291/2 40/292/2
f 41/393/2 42/394/2 43/395/2 44/396/2
f 45/421/2 46/422/2 47/423/2 48/424/2
f 49/425/2 50/426/2 51/427/2 52/428/2
f 53/413/2 54/414/2 55/415/2 56/416/2
f 57/401/2 58/402/2 59/403/2 60/404/2
f 61/405/2 62/406/2 63/407/2 64/408/2
f 65/233/2 66/234/2 67/235/2 68/236/2
f 69/409/2 70/410/2 71/411/2 72/412/2
f 73/25/1 74/26/1 75/27/1 76/28/1
f 77/209/1 78/210/1 79/211/1 80/212/1
f 81/213/1 82/214/1 83/215/1 84/216/1
f 85/285/1 86/286/1 87/287/1 88/288/1
f 89/281/1 90/282/1 91/283/1 92/284/1
f 93/317/1 94/318/1 95/319/1 96/320/1
f 97/305/1 98/306/1 99/307/1 100/308/1
f 101/293/1 102/294/1 103/295/1 104/296/1
f 105/297/1 106/298/1 107/299/1 108/300/1
f 109/377/1 110/378/1 111/379/1 112/380/1
f 113/385/1 114/386/1 115/387/1 116/388/1
f 117/381/1 118/382/1 119/383/1 120/384/1
f 121/397/1 122/398/1 123/399/1 124/400/1
f 125/389/1 126/390/1 127/391/1 128/392/1
f 129/481/1 130/482/1 131/483/1 132/484/1
f 133/225/1 134/226/1 135/227/1 136/228/1
f 137/301/1 138/302/1 139/303/1 140/304/1
f 141/477/1 142/478/1 143/479/1 144/480/1
f 145/473/1 146/474/1 147/475/1 148/476/1
f 149/493/1 150/494/1 11/495/1 12/496/1
f 151/509/1 152/510/1 153/511/1 154/512/1
f 155/513/1 156/514/1 157/515/1 158/516/1
f 4/37/3 3/38/3 74/39/3 73/40/3
f 112/189/3 111/190/3 152/191/3 151/192/3
f 12/205/3 11/206/3 82/207/3 81/208/3
f 16/257/3 15/258/3 110/259/3 109/260/3
f 20/485/3 19/486/3 86/487/3 85/488/3
f 24/489/3 23/490/3 90/491/3 89/492/3
f 28/441/3 27/442/3 94/443/3 93/444/3
f 32/445/3 31/446/3 98/447/3 97/448/3
f 36/437/3 35/438/3 102/439/3 101/440/3
f 40/429/3 39/430/3 106/431/3 105/432/3
f 44/261/3 43/262/3 114/263/3 113/264/3
f 48/249/3 47/250/3 118/251/3 117/252/3
f 52/253/3 51/254/3 122/255/3 121/256/3
f 56/245/3 55/246/3 126/247/3 125/248/3
f 60/237/3 59/238/3 130/239/3 129/240/3
f 64/241/3 63/242/3 142/243/3 141/244/3
f 68/229/3 67/230/3 156/231/3 155/232/3
f 72/457/3 71/458/3 146/459/3 145/460/3
f 76/29/4 75/30/4 2/31/4 1/32/4
f 154/201/4 153/202/4 150/203/4 149/204/4
f 136/217/4 135/218/4 10/219/4 9/220/4
f 8/373/4 7/374/4 14/375/4 13/376/4
f 88/453/4 87/454/4 18/455/4 17/456/4
f 92/461/4 91/462/4 22/463/4 21/464/4
f 96/469/4 95/470/4 26/471/4 25/472/4
f 100/465/4 99/466/4 30/467/4 29/468/4
f 104/449/4 103/450/4 34/451/4 33/452/4
f 108/433/4 107/434/4 38/435/4 37/436/4
f 116/369/4 115/370/4 42/371/4 41/372/4
f 120/325/4 119/326/4 46/327/4 45/328/4
f 124/353/4 123/354/4 50/355/4 49/356/4
f 128/357/4 127/358/4 54/359/4 53/360/4
f 132/349/4 131/350/4 58/351/4 57/352/4
f 84/221/4 83/222/4 134/223/4 133/224/4
f 144/341/4 143/342/4 62/343/4 61/344/4
f 158/345/4 157/346/4 138/347/4 137/348/4
f 148/417/4 147/418/4 70/419/4 69/420/4
f 80/501/4 79/502/4 6/503/4 5/504/4
f 12/505/4 11/506/4 78/507/4 77/508/4
f 140/497/4 139/498/4 66/499/4 65/500/4
f 12/13/5 159/14/5 136/15/5 9/16/5
f 160/5/5 151/6/5 154/7/5 149/8/5
f 150/9/5 153/10/5 82/11/5 11/12/5
f 159/17/5 81/18/5 84/19/5 133/20/5
f 16/121/5 161/122/5 8/123/5 13/124/5
f 20/129/5 85/130/5 88/131/5 17/132/5
f 24/125/5 89/126/5 92/127/5 21/128/5
f 28/133/5 93/134/5 96/135/5 25/136/5
f 32/145/5 97/146/5 100/147/5 29/148/5
f 36/141/5 101/142/5 104/143/5 33/144/5
f 40/137/5 105/138/5 108/139/5 37/140/5
f 44/41/5 113/42/5 116/43/5 41/44/5
f 48/49/5 117/50/5 120/51/5 45/52/5
f 52/45/5 121/46/5 124/47/5 49/48/5
f 56/53/5 125/54/5 128/55/5 53/56/5
f 60/57/5 129/58/5 132/59/5 57/60/5
f 64/61/5 141/62/5 144/63/5 61/64/5
f 72/149/5 145/150/5 148/151/5 69/152/5
f 14/153/5 162/154/5 86/155/5 19/156/5
f 18/157/5 87/158/5 90/159/5 23/160/5
f 22/169/5 91/170/5 94/171/5 27/172/5
f 26/173/5 95/174/5 98/175/5 31/176/5
f 30/161/5 99/162/5 102/163/5 35/164/5
f 34/165/5 103/166/5 106/167/5 39/168/5
f 163/97/5 164/98/5 110/99/5 15/100/5
f 38/185/5 107/186/5 165/187/5 166/188/5
f 167/85/5 168/86/5 114/87/5 43/88/5
f 42/81/5 115/82/5 169/83/5 170/84/5
f 171/89/5 172/90/5 118/91/5 47/92/5
f 46/93/5 119/94/5 173/95/5 174/96/5
f 175/77/5 176/78/5 122/79/5 51/80/5
f 50/73/5 123/74/5 177/75/5 178/76/5
f 179/65/5 180/66/5 126/67/5 55/68/5
f 54/69/5 127/70/5 181/71/5 182/72/5
f 183/113/5 184/114/5 130/115/5 59/116/5
f 58/117/5 131/118/5 185/119/5 186/120/5
f 187/109/5 188/110/5 142/111/5 63/112/5
f 62/101/5 143/102/5 189/103/5 190/104/5
f 191/21/5 83/22/5 156/23/5 67/24/5
f 192/105/5 155/106/5 158/107/5 137/108/5
f 193/181/5 194/182/5 146/183/5 71/184/5
f 70/177/5 147/178/5 195/179/5 196/180/5
f 164/321/5 167/322/5 170/323/5 111/324/5
f 168/329/5 171/330/5 174/331/5 169/332/5
f 172/337/5 175/338/5 178/339/5 173/340/5
f 176/333/5 179/334/5 182/335/5 177/336/5
f 180/361/5 183/362/5 186/363/5 181/364/5
f 184/365/5 187/366/5 190/367/5 185/368/5
f 4/517/5 163/518/5 166/519/5 1/520/5
f 162/525/5 7/526/5 6/527/5 165/528/5
f 161/521/5 109/522/5 80/523/5 5/524/5
f 78/529/5 11/530/5 10/531/5 79/532/5
f 134/533/5 191/534/5 66/535/5 135/536/5
f 68/537/5 192/538/5 140/539/5 65/540/5
f 138/549/5 193/550/5 196/551/5 139/552/5
f 188/545/5 73/546/5 152/547/5 189/548/5
f 194/541/5 157/542/5 76/543/5 195/544/5
f 112/553/5 160/554/5 12/555/5 77/556/5
f 74/1/6 3/2/6 2/3/6 75/4/6
