# This file was created with Minddesk Qubicle 3.0
# Get Qubicle at www.getqubicle.com

mtllib LightPost2.mtl

vn 0.0 0.0 1.0
vn 0.0 0.0 -1.0
vn -1.0 0.0 0.0
vn 1.0 0.0 0.0
vn 0.0 1.0 0.0
vn 0.0 -1.0 0.0

v 0.06300 1.00800 -0.06300
v 0.06300 0.06300 -0.06300
v -0.06300 0.06300 -0.06300
v -0.06300 1.00800 -0.06300
v 0.12600 1.51200 -0.12600
v 0.12600 1.19700 -0.12600
v -0.12600 1.19700 -0.12600
v -0.12600 1.51200 -0.12600
v 0.12600 0.12600 -0.18900
v 0.12600 0.00000 -0.18900
v -0.12600 0.00000 -0.18900
v -0.12600 0.12600 -0.18900
v -0.12600 0.12600 -0.12600
v -0.12600 0.00000 -0.12600
v -0.18900 0.00000 -0.12600
v -0.18900 0.12600 -0.12600
v 0.18900 0.12600 -0.12600
v 0.18900 0.00000 -0.12600
v 0.12600 0.00000 -0.12600
v 0.12600 0.12600 -0.12600
v 0.06300 1.13400 -0.06300
v 0.06300 1.07100 -0.06300
v -0.06300 1.07100 -0.06300
v -0.06300 1.13400 -0.06300
v 0.06300 0.12600 0.12600
v 0.06300 0.06300 0.12600
v -0.06300 0.06300 0.12600
v -0.06300 0.12600 0.12600
v -0.06300 0.12600 0.06300
v -0.06300 0.06300 0.06300
v -0.12600 0.06300 0.06300
v -0.12600 0.12600 0.06300
v 0.12600 0.12600 0.06300
v 0.12600 0.06300 0.06300
v 0.06300 0.06300 0.06300
v 0.06300 0.12600 0.06300
v -0.06300 1.00800 0.06300
v 0.06300 1.00800 0.06300
v -0.12600 1.51200 0.12600
v -0.12600 1.19700 0.12600
v 0.12600 1.19700 0.12600
v 0.12600 1.51200 0.12600
v -0.12600 0.12600 0.18900
v -0.12600 0.00000 0.18900
v 0.12600 0.00000 0.18900
v 0.12600 0.12600 0.18900
v -0.18900 0.12600 0.12600
v -0.18900 0.00000 0.12600
v -0.12600 0.00000 0.12600
v -0.12600 0.12600 0.12600
v 0.12600 0.12600 0.12600
v 0.12600 0.00000 0.12600
v 0.18900 0.00000 0.12600
v 0.18900 0.12600 0.12600
v -0.06300 0.12600 -0.12600
v -0.06300 0.06300 -0.12600
v 0.06300 0.06300 -0.12600
v 0.06300 0.12600 -0.12600
v -0.06300 1.13400 0.06300
v -0.06300 1.07100 0.06300
v 0.06300 1.07100 0.06300
v 0.06300 1.13400 0.06300
v -0.12600 0.12600 -0.06300
v -0.12600 0.06300 -0.06300
v -0.06300 0.12600 -0.06300
v 0.06300 0.12600 -0.06300
v 0.12600 0.06300 -0.06300
v 0.12600 0.12600 -0.06300
v -0.18900 0.12600 -0.06300
v -0.18900 0.12600 0.06300
v 0.18900 0.12600 0.06300
v 0.18900 0.12600 -0.06300

vt 0.01563 0.50000
vt 0.01563 0.03125
vt 0.04688 0.03125
vt 0.04688 0.50000
vt 0.07813 0.50000
vt 0.07813 0.03125
vt 0.10938 0.03125
vt 0.10938 0.50000
vt 0.14063 0.50000
vt 0.14063 0.03125
vt 0.17188 0.03125
vt 0.17188 0.50000
vt 0.20313 0.50000
vt 0.20313 0.03125
vt 0.23438 0.03125
vt 0.23438 0.50000
vt 0.26563 0.18750
vt 0.26563 0.03125
vt 0.32813 0.03125
vt 0.32813 0.18750
vt 0.35938 0.18750
vt 0.35938 0.03125
vt 0.42188 0.03125
vt 0.42188 0.18750
vt 0.45313 0.18750
vt 0.45313 0.03125
vt 0.51563 0.03125
vt 0.51563 0.18750
vt 0.54688 0.18750
vt 0.54688 0.03125
vt 0.60938 0.03125
vt 0.60938 0.18750
vt 0.64063 0.15625
vt 0.64063 0.03125
vt 0.73438 0.03125
vt 0.73438 0.15625
vt 0.76563 0.15625
vt 0.76563 0.03125
vt 0.82813 0.03125
vt 0.82813 0.15625
vt 0.85938 0.15625
vt 0.85938 0.03125
vt 0.92188 0.03125
vt 0.92188 0.15625
vt 0.26563 0.31250
vt 0.26563 0.25000
vt 0.32813 0.25000
vt 0.32813 0.31250
vt 0.35938 0.31250
vt 0.35938 0.25000
vt 0.42188 0.25000
vt 0.42188 0.31250
vt 0.45313 0.31250
vt 0.45313 0.25000
vt 0.51563 0.25000
vt 0.51563 0.31250
vt 0.54688 0.31250
vt 0.54688 0.25000
vt 0.60938 0.25000
vt 0.60938 0.31250
vt 0.95313 0.09375
vt 0.95313 0.03125
vt 0.98438 0.03125
vt 0.98438 0.09375
vt 0.64063 0.31250
vt 0.64063 0.25000
vt 0.67188 0.25000
vt 0.67188 0.31250
vt 0.70313 0.31250
vt 0.70313 0.25000
vt 0.73438 0.25000
vt 0.73438 0.31250
vt 0.76563 0.31250
vt 0.76563 0.25000
vt 0.78125 0.25000
vt 0.78125 0.31250
vt 0.81250 0.31250
vt 0.81250 0.25000
vt 0.82813 0.25000
vt 0.82813 0.31250
vt 0.85938 0.31250
vt 0.85938 0.25000
vt 0.87500 0.25000
vt 0.87500 0.31250
vt 0.90625 0.31250
vt 0.90625 0.25000
vt 0.92188 0.25000
vt 0.92188 0.31250
vt 0.95313 0.31250
vt 0.95313 0.25000
vt 0.96875 0.25000
vt 0.96875 0.31250
vt 0.26563 0.43750
vt 0.26563 0.37500
vt 0.28125 0.37500
vt 0.28125 0.43750
vt 0.31250 0.43750
vt 0.31250 0.37500
vt 0.32813 0.37500
vt 0.32813 0.43750
vt 0.35938 0.43750
vt 0.35938 0.37500
vt 0.37500 0.37500
vt 0.37500 0.43750
vt 0.40625 0.43750
vt 0.40625 0.37500
vt 0.42188 0.37500
vt 0.42188 0.43750
vt 0.45313 0.43750
vt 0.45313 0.37500
vt 0.46875 0.37500
vt 0.46875 0.43750
vt 0.50000 0.43750
vt 0.50000 0.37500
vt 0.51563 0.37500
vt 0.51563 0.43750
vt 0.54688 0.43750
vt 0.54688 0.37500
vt 0.56250 0.37500
vt 0.56250 0.43750
vt 0.59375 0.40625
vt 0.59375 0.37500
vt 0.65625 0.37500
vt 0.65625 0.40625
vt 0.68750 0.40625
vt 0.68750 0.37500
vt 0.75000 0.37500
vt 0.75000 0.40625
vt 0.78125 0.40625
vt 0.78125 0.37500
vt 0.84375 0.37500
vt 0.84375 0.40625
vt 0.87500 0.40625
vt 0.87500 0.37500
vt 0.93750 0.37500
vt 0.93750 0.40625
vt 0.01563 0.59375
vt 0.01563 0.56250
vt 0.04688 0.56250
vt 0.04688 0.59375
vt 0.07813 0.59375
vt 0.07813 0.56250
vt 0.10938 0.56250
vt 0.10938 0.59375
vt 0.14063 0.59375
vt 0.14063 0.56250
vt 0.17188 0.56250
vt 0.17188 0.59375
vt 0.20313 0.59375
vt 0.20313 0.56250
vt 0.23438 0.56250
vt 0.23438 0.59375
vt 0.26563 0.59375
vt 0.26563 0.56250
vt 0.29688 0.56250
vt 0.29688 0.59375
vt 0.32813 0.59375
vt 0.32813 0.56250
vt 0.35938 0.56250
vt 0.35938 0.59375
vt 0.39063 0.59375
vt 0.39063 0.56250
vt 0.42188 0.56250
vt 0.42188 0.59375
vt 0.45313 0.59375
vt 0.45313 0.56250
vt 0.48438 0.56250
vt 0.48438 0.59375
vt 0.51563 0.59375
vt 0.51563 0.56250
vt 0.54688 0.56250
vt 0.54688 0.59375
vt 0.57813 0.59375
vt 0.57813 0.56250
vt 0.60938 0.56250
vt 0.60938 0.59375
vt 0.64063 0.59375
vt 0.64063 0.56250
vt 0.67188 0.56250
vt 0.67188 0.59375
vt 0.70313 0.59375
vt 0.70313 0.56250
vt 0.73438 0.56250
vt 0.73438 0.59375
vt 0.76563 0.59375
vt 0.76563 0.56250
vt 0.79688 0.56250
vt 0.79688 0.59375
vt 0.82813 0.59375
vt 0.82813 0.56250
vt 0.85938 0.56250
vt 0.85938 0.59375
vt 0.96875 0.40625
vt 0.96875 0.37500
vt 0.98438 0.37500
vt 0.98438 0.40625
vt 0.89063 0.59375
vt 0.89063 0.56250
vt 0.90625 0.56250
vt 0.90625 0.59375
vt 0.93750 0.59375
vt 0.93750 0.56250
vt 0.95313 0.56250
vt 0.95313 0.59375
vt 0.01563 0.68750
vt 0.01563 0.65625
vt 0.03125 0.65625
vt 0.03125 0.68750
vt 0.06250 0.68750
vt 0.06250 0.65625
vt 0.07813 0.65625
vt 0.07813 0.68750
vt 0.10938 0.68750
vt 0.10938 0.65625
vt 0.12500 0.65625
vt 0.12500 0.68750
vt 0.15625 0.68750
vt 0.15625 0.65625
vt 0.17188 0.65625
vt 0.17188 0.68750
vt 0.20313 0.68750
vt 0.20313 0.65625
vt 0.21875 0.65625
vt 0.21875 0.68750

g LightPost2
usemtl LightPost2_Material
f 1/9/2 2/10/2 3/11/2 4/12/2
f 5/21/2 6/22/2 7/23/2 8/24/2
f 9/57/2 10/58/2 11/59/2 12/60/2
f 13/85/2 14/86/2 15/87/2 16/88/2
f 17/97/2 18/98/2 19/99/2 20/100/2
f 21/157/2 22/158/2 23/159/2 24/160/2
f 25/137/2 26/138/2 27/139/2 28/140/2
f 29/193/2 30/194/2 31/195/2 32/196/2
f 33/213/2 34/214/2 35/215/2 36/216/2
f 37/13/1 30/14/1 35/15/1 38/16/1
f 39/29/1 40/30/1 41/31/1 42/32/1
f 43/49/1 44/50/1 45/51/1 46/52/1
f 47/89/1 48/90/1 49/91/1 50/92/1
f 51/93/1 52/94/1 53/95/1 54/96/1
f 55/153/1 56/154/1 57/155/1 58/156/1
f 59/145/1 60/146/1 61/147/1 62/148/1
f 63/217/1 64/218/1 3/219/1 65/220/1
f 66/221/1 2/222/1 67/223/1 68/224/1
f 4/1/3 3/2/3 30/3/3 37/4/3
f 8/17/3 7/18/3 40/19/3 39/20/3
f 16/53/3 15/54/3 48/55/3 47/56/3
f 12/109/3 11/110/3 14/111/3 13/112/3
f 50/73/3 49/74/3 44/75/3 43/76/3
f 24/189/3 23/190/3 60/191/3 59/192/3
f 68/185/3 67/186/3 34/187/3 33/188/3
f 58/209/3 57/210/3 2/211/3 66/212/3
f 36/197/3 35/198/3 26/199/3 25/200/3
f 38/5/4 35/6/4 2/7/4 1/8/4
f 42/25/4 41/26/4 6/27/4 5/28/4
f 54/45/4 53/46/4 18/47/4 17/48/4
f 20/77/4 19/78/4 10/79/4 9/80/4
f 46/81/4 45/82/4 52/83/4 51/84/4
f 32/173/4 31/174/4 64/175/4 63/176/4
f 62/169/4 61/170/4 22/171/4 21/172/4
f 65/201/4 3/202/4 56/203/4 55/204/4
f 28/205/4 27/206/4 30/207/4 29/208/4
f 8/41/5 39/42/5 42/43/5 5/44/5
f 4/61/5 37/62/5 38/63/5 1/64/5
f 24/69/5 59/70/5 62/71/5 21/72/5
f 69/105/5 70/106/5 32/107/5 63/108/5
f 64/113/5 31/114/5 30/115/5 3/116/5
f 2/101/5 35/102/5 34/103/5 67/104/5
f 68/117/5 33/118/5 71/119/5 72/120/5
f 12/121/5 13/122/5 20/123/5 9/124/5
f 50/133/5 43/134/5 46/135/5 51/136/5
f 16/161/5 69/162/5 65/163/5 55/164/5
f 56/165/5 3/166/5 2/167/5 57/168/5
f 58/177/5 66/178/5 72/179/5 17/180/5
f 70/181/5 47/182/5 28/183/5 29/184/5
f 30/141/5 27/142/5 26/143/5 35/144/5
f 36/149/5 25/150/5 54/151/5 71/152/5
f 48/33/6 15/34/6 18/35/6 53/36/6
f 40/37/6 7/38/6 6/39/6 41/40/6
f 60/65/6 23/66/6 22/67/6 61/68/6
f 14/125/6 11/126/6 10/127/6 19/128/6
f 44/129/6 49/130/6 52/131/6 45/132/6
